<?xml version="1.0" encoding="UTF-8" standalone="no"?>
<!DOCTYPE svg PUBLIC "-//W3C//DTD SVG 1.1//EN"
 "http://www.w3.org/Graphics/SVG/1.1/DTD/svg11.dtd">
<!-- Generated by graphviz version 2.43.0 (0)
 -->
<!-- Title: snakemake_dag Pages: 1 -->
<svg width="2800pt" height="1057pt"
 viewBox="0.00 0.00 2799.96 1057.00" xmlns="http://www.w3.org/2000/svg" xmlns:xlink="http://www.w3.org/1999/xlink">
<g id="graph0" class="graph" transform="scale(1 1) rotate(0) translate(4 1053)">
<title>snakemake_dag</title>
<polygon fill="white" stroke="transparent" points="-4,4 -4,-1053 2795.96,-1053 2795.96,4 -4,4"/>
<!-- 0 -->
<g id="node1" class="node">
<title>0</title>
<path fill="none" stroke="#d89c56" stroke-width="2" stroke-dasharray="5,2" d="M1093.02,-36C1093.02,-36 1063.02,-36 1063.02,-36 1057.02,-36 1051.02,-30 1051.02,-24 1051.02,-24 1051.02,-12 1051.02,-12 1051.02,-6 1057.02,0 1063.02,0 1063.02,0 1093.02,0 1093.02,0 1099.02,0 1105.02,-6 1105.02,-12 1105.02,-12 1105.02,-24 1105.02,-24 1105.02,-30 1099.02,-36 1093.02,-36"/>
<text text-anchor="middle" x="1078.02" y="-15.5" font-family="sans" font-size="10.00">all</text>
</g>
<!-- 1 -->
<g id="node2" class="node">
<title>1</title>
<path fill="none" stroke="#c6d856" stroke-width="2" stroke-dasharray="5,2" d="M1101.02,-108C1101.02,-108 1055.02,-108 1055.02,-108 1049.02,-108 1043.02,-102 1043.02,-96 1043.02,-96 1043.02,-84 1043.02,-84 1043.02,-78 1049.02,-72 1055.02,-72 1055.02,-72 1101.02,-72 1101.02,-72 1107.02,-72 1113.02,-78 1113.02,-84 1113.02,-84 1113.02,-96 1113.02,-96 1113.02,-102 1107.02,-108 1101.02,-108"/>
<text text-anchor="middle" x="1078.02" y="-87.5" font-family="sans" font-size="10.00">snpeff_ann</text>
</g>
<!-- 1&#45;&gt;0 -->
<g id="edge1" class="edge">
<title>1&#45;&gt;0</title>
<path fill="none" stroke="grey" stroke-width="2" d="M1078.02,-71.7C1078.02,-63.98 1078.02,-54.71 1078.02,-46.11"/>
<polygon fill="grey" stroke="grey" stroke-width="2" points="1081.52,-46.1 1078.02,-36.1 1074.52,-46.1 1081.52,-46.1"/>
</g>
<!-- 2 -->
<g id="node3" class="node">
<title>2</title>
<path fill="none" stroke="#567bd8" stroke-width="2" stroke-dasharray="5,2" d="M1058.52,-180C1058.52,-180 945.52,-180 945.52,-180 939.52,-180 933.52,-174 933.52,-168 933.52,-168 933.52,-156 933.52,-156 933.52,-150 939.52,-144 945.52,-144 945.52,-144 1058.52,-144 1058.52,-144 1064.52,-144 1070.52,-150 1070.52,-156 1070.52,-156 1070.52,-168 1070.52,-168 1070.52,-174 1064.52,-180 1058.52,-180"/>
<text text-anchor="middle" x="1002.02" y="-159.5" font-family="sans" font-size="10.00">gatk4_variant_annotator</text>
</g>
<!-- 2&#45;&gt;1 -->
<g id="edge2" class="edge">
<title>2&#45;&gt;1</title>
<path fill="none" stroke="grey" stroke-width="2" d="M1020.8,-143.7C1030.19,-135.05 1041.7,-124.45 1051.93,-115.03"/>
<polygon fill="grey" stroke="grey" stroke-width="2" points="1054.46,-117.45 1059.45,-108.1 1049.72,-112.3 1054.46,-117.45"/>
</g>
<!-- 3 -->
<g id="node4" class="node">
<title>3</title>
<path fill="none" stroke="#568ad8" stroke-width="2" stroke-dasharray="5,2" d="M1884.52,-612C1884.52,-612 1805.52,-612 1805.52,-612 1799.52,-612 1793.52,-606 1793.52,-600 1793.52,-600 1793.52,-588 1793.52,-588 1793.52,-582 1799.52,-576 1805.52,-576 1805.52,-576 1884.52,-576 1884.52,-576 1890.52,-576 1896.52,-582 1896.52,-588 1896.52,-588 1896.52,-600 1896.52,-600 1896.52,-606 1890.52,-612 1884.52,-612"/>
<text text-anchor="middle" x="1845.02" y="-591.5" font-family="sans" font-size="10.00">gatk4_apply_bqsr</text>
</g>
<!-- 3&#45;&gt;2 -->
<g id="edge4" class="edge">
<title>3&#45;&gt;2</title>
<path fill="none" stroke="grey" stroke-width="2" d="M1793.52,-591.61C1649.49,-586.32 1253.02,-561.71 1253.02,-451 1253.02,-451 1253.02,-451 1253.02,-305 1253.02,-263.53 1255.37,-244.26 1225.02,-216 1222.24,-213.42 1143.79,-195.14 1080.72,-180.76"/>
<polygon fill="grey" stroke="grey" stroke-width="2" points="1081.27,-177.3 1070.74,-178.49 1079.72,-184.12 1081.27,-177.3"/>
</g>
<!-- 43 -->
<g id="node44" class="node">
<title>43</title>
<path fill="none" stroke="#d8c356" stroke-width="2" stroke-dasharray="5,2" d="M1460.02,-468C1460.02,-468 1298.02,-468 1298.02,-468 1292.02,-468 1286.02,-462 1286.02,-456 1286.02,-456 1286.02,-444 1286.02,-444 1286.02,-438 1292.02,-432 1298.02,-432 1298.02,-432 1460.02,-432 1460.02,-432 1466.02,-432 1472.02,-438 1472.02,-444 1472.02,-444 1472.02,-456 1472.02,-456 1472.02,-462 1466.02,-468 1460.02,-468"/>
<text text-anchor="middle" x="1379.02" y="-453" font-family="sans" font-size="10.00">bai</text>
<text text-anchor="middle" x="1379.02" y="-442" font-family="sans" font-size="10.00">prefix: results/gatk/sample1.1.bqsr</text>
</g>
<!-- 3&#45;&gt;43 -->
<g id="edge100" class="edge">
<title>3&#45;&gt;43</title>
<path fill="none" stroke="grey" stroke-width="2" d="M1793.24,-579.16C1754.95,-568.77 1701.59,-554 1655.02,-540 1580.42,-517.58 1495.19,-489.75 1439.41,-471.24"/>
<polygon fill="grey" stroke="grey" stroke-width="2" points="1440.29,-467.85 1429.7,-468.01 1438.08,-474.49 1440.29,-467.85"/>
</g>
<!-- 52 -->
<g id="node53" class="node">
<title>52</title>
<path fill="none" stroke="#d86656" stroke-width="2" stroke-dasharray="5,2" d="M2451.52,-540C2451.52,-540 2344.52,-540 2344.52,-540 2338.52,-540 2332.52,-534 2332.52,-528 2332.52,-528 2332.52,-516 2332.52,-516 2332.52,-510 2338.52,-504 2344.52,-504 2344.52,-504 2451.52,-504 2451.52,-504 2457.52,-504 2463.52,-510 2463.52,-516 2463.52,-516 2463.52,-528 2463.52,-528 2463.52,-534 2457.52,-540 2451.52,-540"/>
<text text-anchor="middle" x="2398.02" y="-519.5" font-family="sans" font-size="10.00">gatk4_haplotype_caller</text>
</g>
<!-- 3&#45;&gt;52 -->
<g id="edge118" class="edge">
<title>3&#45;&gt;52</title>
<path fill="none" stroke="grey" stroke-width="2" d="M1896.68,-589.25C1982.98,-582.57 2162.02,-566.86 2322.29,-540.19"/>
<polygon fill="grey" stroke="grey" stroke-width="2" points="2323.05,-543.62 2332.33,-538.51 2321.89,-536.71 2323.05,-543.62"/>
</g>
<!-- 4 -->
<g id="node5" class="node">
<title>4</title>
<path fill="none" stroke="#56d86b" stroke-width="2" stroke-dasharray="5,2" d="M1935.02,-828C1935.02,-828 1831.02,-828 1831.02,-828 1825.02,-828 1819.02,-822 1819.02,-816 1819.02,-816 1819.02,-804 1819.02,-804 1819.02,-798 1825.02,-792 1831.02,-792 1831.02,-792 1935.02,-792 1935.02,-792 1941.02,-792 1947.02,-798 1947.02,-804 1947.02,-804 1947.02,-816 1947.02,-816 1947.02,-822 1941.02,-828 1935.02,-828"/>
<text text-anchor="middle" x="1883.02" y="-807.5" font-family="sans" font-size="10.00">picard_markduplicates</text>
</g>
<!-- 4&#45;&gt;3 -->
<g id="edge17" class="edge">
<title>4&#45;&gt;3</title>
<path fill="none" stroke="grey" stroke-width="2" d="M1884.23,-791.82C1884.91,-781.46 1885.68,-767.98 1886.02,-756 1886.47,-740.01 1888.54,-735.8 1886.02,-720 1880.44,-685.11 1866.63,-646.75 1856.58,-621.85"/>
<polygon fill="grey" stroke="grey" stroke-width="2" points="1859.72,-620.27 1852.67,-612.36 1853.24,-622.94 1859.72,-620.27"/>
</g>
<!-- 10 -->
<g id="node11" class="node">
<title>10</title>
<path fill="none" stroke="#88d856" stroke-width="2" stroke-dasharray="5,2" d="M1825.02,-684C1825.02,-684 1715.02,-684 1715.02,-684 1709.02,-684 1703.02,-678 1703.02,-672 1703.02,-672 1703.02,-660 1703.02,-660 1703.02,-654 1709.02,-648 1715.02,-648 1715.02,-648 1825.02,-648 1825.02,-648 1831.02,-648 1837.02,-654 1837.02,-660 1837.02,-660 1837.02,-672 1837.02,-672 1837.02,-678 1831.02,-684 1825.02,-684"/>
<text text-anchor="middle" x="1770.02" y="-663.5" font-family="sans" font-size="10.00">gatk4_base_recalibrator</text>
</g>
<!-- 4&#45;&gt;10 -->
<g id="edge27" class="edge">
<title>4&#45;&gt;10</title>
<path fill="none" stroke="grey" stroke-width="2" d="M1883.39,-791.92C1882.97,-772.66 1879.64,-741.26 1864.02,-720 1854.46,-707 1840.69,-696.75 1826.63,-688.86"/>
<polygon fill="grey" stroke="grey" stroke-width="2" points="1827.87,-685.56 1817.39,-684.02 1824.62,-691.76 1827.87,-685.56"/>
</g>
<!-- 11 -->
<g id="node12" class="node">
<title>11</title>
<path fill="none" stroke="#d8c356" stroke-width="2" stroke-dasharray="5,2" d="M1843.02,-756C1843.02,-756 1697.02,-756 1697.02,-756 1691.02,-756 1685.02,-750 1685.02,-744 1685.02,-744 1685.02,-732 1685.02,-732 1685.02,-726 1691.02,-720 1697.02,-720 1697.02,-720 1843.02,-720 1843.02,-720 1849.02,-720 1855.02,-726 1855.02,-732 1855.02,-732 1855.02,-744 1855.02,-744 1855.02,-750 1849.02,-756 1843.02,-756"/>
<text text-anchor="middle" x="1770.02" y="-741" font-family="sans" font-size="10.00">bai</text>
<text text-anchor="middle" x="1770.02" y="-730" font-family="sans" font-size="10.00">prefix: results/picard/sample1.1</text>
</g>
<!-- 4&#45;&gt;11 -->
<g id="edge33" class="edge">
<title>4&#45;&gt;11</title>
<path fill="none" stroke="grey" stroke-width="2" d="M1855.37,-791.88C1840.6,-782.72 1822.22,-771.34 1806.31,-761.48"/>
<polygon fill="grey" stroke="grey" stroke-width="2" points="1808.11,-758.48 1797.77,-756.19 1804.42,-764.43 1808.11,-758.48"/>
</g>
<!-- 5 -->
<g id="node6" class="node">
<title>5</title>
<path fill="none" stroke="#d6d856" stroke-width="2" stroke-dasharray="5,2" d="M1877.52,-900C1877.52,-900 1818.52,-900 1818.52,-900 1812.52,-900 1806.52,-894 1806.52,-888 1806.52,-888 1806.52,-876 1806.52,-876 1806.52,-870 1812.52,-864 1818.52,-864 1818.52,-864 1877.52,-864 1877.52,-864 1883.52,-864 1889.52,-870 1889.52,-876 1889.52,-876 1889.52,-888 1889.52,-888 1889.52,-894 1883.52,-900 1877.52,-900"/>
<text text-anchor="middle" x="1848.02" y="-879.5" font-family="sans" font-size="10.00">bowtie2_map</text>
</g>
<!-- 5&#45;&gt;4 -->
<g id="edge20" class="edge">
<title>5&#45;&gt;4</title>
<path fill="none" stroke="grey" stroke-width="2" d="M1856.67,-863.7C1860.65,-855.73 1865.47,-846.1 1869.88,-837.26"/>
<polygon fill="grey" stroke="grey" stroke-width="2" points="1873.12,-838.61 1874.46,-828.1 1866.86,-835.48 1873.12,-838.61"/>
</g>
<!-- 6 -->
<g id="node7" class="node">
<title>6</title>
<path fill="none" stroke="#56d892" stroke-width="2" stroke-dasharray="5,2" d="M2143.02,-972C2143.02,-972 2113.02,-972 2113.02,-972 2107.02,-972 2101.02,-966 2101.02,-960 2101.02,-960 2101.02,-948 2101.02,-948 2101.02,-942 2107.02,-936 2113.02,-936 2113.02,-936 2143.02,-936 2143.02,-936 2149.02,-936 2155.02,-942 2155.02,-948 2155.02,-948 2155.02,-960 2155.02,-960 2155.02,-966 2149.02,-972 2143.02,-972"/>
<text text-anchor="middle" x="2128.02" y="-951.5" font-family="sans" font-size="10.00">fastp</text>
</g>
<!-- 6&#45;&gt;5 -->
<g id="edge22" class="edge">
<title>6&#45;&gt;5</title>
<path fill="none" stroke="grey" stroke-width="2" d="M2100.91,-946.22C2054.47,-934.61 1958.93,-910.73 1899.49,-895.87"/>
<polygon fill="grey" stroke="grey" stroke-width="2" points="1900.11,-892.41 1889.56,-893.38 1898.41,-899.21 1900.11,-892.41"/>
</g>
<!-- 7 -->
<g id="node8" class="node">
<title>7</title>
<path fill="none" stroke="#d88d56" stroke-width="2" stroke-dasharray="5,2" d="M2166.52,-1049C2166.52,-1049 2089.52,-1049 2089.52,-1049 2083.52,-1049 2077.52,-1043 2077.52,-1037 2077.52,-1037 2077.52,-1020 2077.52,-1020 2077.52,-1014 2083.52,-1008 2089.52,-1008 2089.52,-1008 2166.52,-1008 2166.52,-1008 2172.52,-1008 2178.52,-1014 2178.52,-1020 2178.52,-1020 2178.52,-1037 2178.52,-1037 2178.52,-1043 2172.52,-1049 2166.52,-1049"/>
<text text-anchor="middle" x="2128.02" y="-1037" font-family="sans" font-size="10.00">reads_link_pe</text>
<text text-anchor="middle" x="2128.02" y="-1026" font-family="sans" font-size="10.00">library: 1</text>
<text text-anchor="middle" x="2128.02" y="-1015" font-family="sans" font-size="10.00">sample: sample1</text>
</g>
<!-- 7&#45;&gt;6 -->
<g id="edge25" class="edge">
<title>7&#45;&gt;6</title>
<path fill="none" stroke="grey" stroke-width="2" d="M2128.02,-1007.69C2128.02,-999.91 2128.02,-990.84 2128.02,-982.45"/>
<polygon fill="grey" stroke="grey" stroke-width="2" points="2131.52,-982.32 2128.02,-972.32 2124.52,-982.32 2131.52,-982.32"/>
</g>
<!-- 8 -->
<g id="node9" class="node">
<title>8</title>
<path fill="none" stroke="#569ad8" stroke-width="2" stroke-dasharray="5,2" d="M1384.52,-972C1384.52,-972 1323.52,-972 1323.52,-972 1317.52,-972 1311.52,-966 1311.52,-960 1311.52,-960 1311.52,-948 1311.52,-948 1311.52,-942 1317.52,-936 1323.52,-936 1323.52,-936 1384.52,-936 1384.52,-936 1390.52,-936 1396.52,-942 1396.52,-948 1396.52,-948 1396.52,-960 1396.52,-960 1396.52,-966 1390.52,-972 1384.52,-972"/>
<text text-anchor="middle" x="1354.02" y="-951.5" font-family="sans" font-size="10.00">bowtie2_build</text>
</g>
<!-- 8&#45;&gt;5 -->
<g id="edge23" class="edge">
<title>8&#45;&gt;5</title>
<path fill="none" stroke="grey" stroke-width="2" d="M1396.56,-946.97C1487.09,-934.14 1698.51,-904.19 1796.48,-890.3"/>
<polygon fill="grey" stroke="grey" stroke-width="2" points="1797.04,-893.76 1806.45,-888.89 1796.05,-886.83 1797.04,-893.76"/>
</g>
<!-- 17 -->
<g id="node18" class="node">
<title>17</title>
<path fill="none" stroke="#d6d856" stroke-width="2" stroke-dasharray="5,2" d="M320.52,-900C320.52,-900 261.52,-900 261.52,-900 255.52,-900 249.52,-894 249.52,-888 249.52,-888 249.52,-876 249.52,-876 249.52,-870 255.52,-864 261.52,-864 261.52,-864 320.52,-864 320.52,-864 326.52,-864 332.52,-870 332.52,-876 332.52,-876 332.52,-888 332.52,-888 332.52,-894 326.52,-900 320.52,-900"/>
<text text-anchor="middle" x="291.02" y="-879.5" font-family="sans" font-size="10.00">bowtie2_map</text>
</g>
<!-- 8&#45;&gt;17 -->
<g id="edge42" class="edge">
<title>8&#45;&gt;17</title>
<path fill="none" stroke="grey" stroke-width="2" d="M1311.45,-950.38C1189.45,-942.85 828.01,-920.38 528.02,-900 464.17,-895.66 390.68,-890.34 342.68,-886.82"/>
<polygon fill="grey" stroke="grey" stroke-width="2" points="342.77,-883.32 332.54,-886.07 342.25,-890.3 342.77,-883.32"/>
</g>
<!-- 24 -->
<g id="node25" class="node">
<title>24</title>
<path fill="none" stroke="#d6d856" stroke-width="2" stroke-dasharray="5,2" d="M608.52,-900C608.52,-900 549.52,-900 549.52,-900 543.52,-900 537.52,-894 537.52,-888 537.52,-888 537.52,-876 537.52,-876 537.52,-870 543.52,-864 549.52,-864 549.52,-864 608.52,-864 608.52,-864 614.52,-864 620.52,-870 620.52,-876 620.52,-876 620.52,-888 620.52,-888 620.52,-894 614.52,-900 608.52,-900"/>
<text text-anchor="middle" x="579.02" y="-879.5" font-family="sans" font-size="10.00">bowtie2_map</text>
</g>
<!-- 8&#45;&gt;24 -->
<g id="edge58" class="edge">
<title>8&#45;&gt;24</title>
<path fill="none" stroke="grey" stroke-width="2" d="M1311.24,-949.14C1178.75,-937.17 775.36,-900.73 631.05,-887.7"/>
<polygon fill="grey" stroke="grey" stroke-width="2" points="630.98,-884.18 620.71,-886.77 630.35,-891.15 630.98,-884.18"/>
</g>
<!-- 31 -->
<g id="node32" class="node">
<title>31</title>
<path fill="none" stroke="#d6d856" stroke-width="2" stroke-dasharray="5,2" d="M1312.52,-900C1312.52,-900 1253.52,-900 1253.52,-900 1247.52,-900 1241.52,-894 1241.52,-888 1241.52,-888 1241.52,-876 1241.52,-876 1241.52,-870 1247.52,-864 1253.52,-864 1253.52,-864 1312.52,-864 1312.52,-864 1318.52,-864 1324.52,-870 1324.52,-876 1324.52,-876 1324.52,-888 1324.52,-888 1324.52,-894 1318.52,-900 1312.52,-900"/>
<text text-anchor="middle" x="1283.02" y="-879.5" font-family="sans" font-size="10.00">bowtie2_map</text>
</g>
<!-- 8&#45;&gt;31 -->
<g id="edge74" class="edge">
<title>8&#45;&gt;31</title>
<path fill="none" stroke="grey" stroke-width="2" d="M1336.47,-935.7C1327.78,-927.14 1317.15,-916.66 1307.67,-907.3"/>
<polygon fill="grey" stroke="grey" stroke-width="2" points="1309.94,-904.63 1300.36,-900.1 1305.03,-909.62 1309.94,-904.63"/>
</g>
<!-- 38 -->
<g id="node39" class="node">
<title>38</title>
<path fill="none" stroke="#d6d856" stroke-width="2" stroke-dasharray="5,2" d="M2198.52,-900C2198.52,-900 2139.52,-900 2139.52,-900 2133.52,-900 2127.52,-894 2127.52,-888 2127.52,-888 2127.52,-876 2127.52,-876 2127.52,-870 2133.52,-864 2139.52,-864 2139.52,-864 2198.52,-864 2198.52,-864 2204.52,-864 2210.52,-870 2210.52,-876 2210.52,-876 2210.52,-888 2210.52,-888 2210.52,-894 2204.52,-900 2198.52,-900"/>
<text text-anchor="middle" x="2169.02" y="-879.5" font-family="sans" font-size="10.00">bowtie2_map</text>
</g>
<!-- 8&#45;&gt;38 -->
<g id="edge90" class="edge">
<title>8&#45;&gt;38</title>
<path fill="none" stroke="grey" stroke-width="2" d="M1396.69,-949.34C1534.38,-937.51 1966.68,-900.38 2116.93,-887.47"/>
<polygon fill="grey" stroke="grey" stroke-width="2" points="2117.59,-890.93 2127.26,-886.59 2116.99,-883.96 2117.59,-890.93"/>
</g>
<!-- 9 -->
<g id="node10" class="node">
<title>9</title>
<path fill="none" stroke="#d8b456" stroke-width="2" stroke-dasharray="5,2" d="M1964.02,-1046.5C1964.02,-1046.5 1818.02,-1046.5 1818.02,-1046.5 1812.02,-1046.5 1806.02,-1040.5 1806.02,-1034.5 1806.02,-1034.5 1806.02,-1022.5 1806.02,-1022.5 1806.02,-1016.5 1812.02,-1010.5 1818.02,-1010.5 1818.02,-1010.5 1964.02,-1010.5 1964.02,-1010.5 1970.02,-1010.5 1976.02,-1016.5 1976.02,-1022.5 1976.02,-1022.5 1976.02,-1034.5 1976.02,-1034.5 1976.02,-1040.5 1970.02,-1046.5 1964.02,-1046.5"/>
<text text-anchor="middle" x="1891.02" y="-1026" font-family="sans" font-size="10.00">reference_recompress_genome</text>
</g>
<!-- 9&#45;&gt;2 -->
<g id="edge15" class="edge">
<title>9&#45;&gt;2</title>
<path fill="none" stroke="grey" stroke-width="2" d="M1805.77,-1026.39C1444.5,-1021.51 56.71,-1000.93 22.02,-972 -9.05,-946.1 3.02,-923.45 3.02,-883 3.02,-883 3.02,-883 3.02,-305 3.02,-212.22 687.16,-175.75 923.13,-165.93"/>
<polygon fill="grey" stroke="grey" stroke-width="2" points="923.5,-169.42 933.35,-165.51 923.22,-162.43 923.5,-169.42"/>
</g>
<!-- 9&#45;&gt;3 -->
<g id="edge18" class="edge">
<title>9&#45;&gt;3</title>
<path fill="none" stroke="grey" stroke-width="2" d="M1928.1,-1010.32C1970.77,-987.69 2035.02,-943.56 2035.02,-883 2035.02,-883 2035.02,-883 2035.02,-809 2035.02,-720.05 1942.09,-650.85 1886.21,-617.28"/>
<polygon fill="grey" stroke="grey" stroke-width="2" points="1887.64,-614.06 1877.25,-612.01 1884.09,-620.09 1887.64,-614.06"/>
</g>
<!-- 9&#45;&gt;4 -->
<g id="edge21" class="edge">
<title>9&#45;&gt;4</title>
<path fill="none" stroke="grey" stroke-width="2" d="M1893.79,-1010.22C1898.14,-980.28 1905.36,-916.91 1898.02,-864 1896.83,-855.48 1894.63,-846.39 1892.27,-838.2"/>
<polygon fill="grey" stroke="grey" stroke-width="2" points="1895.54,-836.94 1889.25,-828.41 1888.85,-838.99 1895.54,-836.94"/>
</g>
<!-- 9&#45;&gt;5 -->
<g id="edge24" class="edge">
<title>9&#45;&gt;5</title>
<path fill="none" stroke="grey" stroke-width="2" d="M1885.91,-1010.36C1878.51,-985.48 1864.72,-939.14 1855.98,-909.75"/>
<polygon fill="grey" stroke="grey" stroke-width="2" points="1859.32,-908.71 1853.11,-900.12 1852.61,-910.7 1859.32,-908.71"/>
</g>
<!-- 9&#45;&gt;8 -->
<g id="edge26" class="edge">
<title>9&#45;&gt;8</title>
<path fill="none" stroke="grey" stroke-width="2" d="M1805.77,-1022.16C1709.24,-1015.07 1547.63,-1000.05 1411.02,-972 1409.56,-971.7 1408.09,-971.38 1406.61,-971.05"/>
<polygon fill="grey" stroke="grey" stroke-width="2" points="1407.31,-967.61 1396.76,-968.62 1405.64,-974.41 1407.31,-967.61"/>
</g>
<!-- 9&#45;&gt;10 -->
<g id="edge29" class="edge">
<title>9&#45;&gt;10</title>
<path fill="none" stroke="grey" stroke-width="2" d="M1915.07,-1010.44C1946.34,-986.07 1997.02,-938.07 1997.02,-883 1997.02,-883 1997.02,-883 1997.02,-809 1997.02,-736.6 1912.99,-699.73 1847.18,-681.96"/>
<polygon fill="grey" stroke="grey" stroke-width="2" points="1847.76,-678.5 1837.2,-679.38 1846,-685.27 1847.76,-678.5"/>
</g>
<!-- 12 -->
<g id="node13" class="node">
<title>12</title>
<path fill="none" stroke="#56d85b" stroke-width="2" stroke-dasharray="5,2" d="M1617.02,-756C1617.02,-756 1465.02,-756 1465.02,-756 1459.02,-756 1453.02,-750 1453.02,-744 1453.02,-744 1453.02,-732 1453.02,-732 1453.02,-726 1459.02,-720 1465.02,-720 1465.02,-720 1617.02,-720 1617.02,-720 1623.02,-720 1629.02,-726 1629.02,-732 1629.02,-732 1629.02,-744 1629.02,-744 1629.02,-750 1623.02,-756 1617.02,-756"/>
<text text-anchor="middle" x="1541.02" y="-741" font-family="sans" font-size="10.00">dict_fagz</text>
<text text-anchor="middle" x="1541.02" y="-730" font-family="sans" font-size="10.00">prefix: results/reference/genome</text>
</g>
<!-- 9&#45;&gt;12 -->
<g id="edge34" class="edge">
<title>9&#45;&gt;12</title>
<path fill="none" stroke="grey" stroke-width="2" d="M1870.17,-1010.32C1810.35,-961.01 1638.05,-818.99 1569.57,-762.54"/>
<polygon fill="grey" stroke="grey" stroke-width="2" points="1571.7,-759.75 1561.75,-756.09 1567.24,-765.15 1571.7,-759.75"/>
</g>
<!-- 15 -->
<g id="node16" class="node">
<title>15</title>
<path fill="none" stroke="#568ad8" stroke-width="2" stroke-dasharray="5,2" d="M398.52,-612C398.52,-612 319.52,-612 319.52,-612 313.52,-612 307.52,-606 307.52,-600 307.52,-600 307.52,-588 307.52,-588 307.52,-582 313.52,-576 319.52,-576 319.52,-576 398.52,-576 398.52,-576 404.52,-576 410.52,-582 410.52,-588 410.52,-588 410.52,-600 410.52,-600 410.52,-606 404.52,-612 398.52,-612"/>
<text text-anchor="middle" x="359.02" y="-591.5" font-family="sans" font-size="10.00">gatk4_apply_bqsr</text>
</g>
<!-- 9&#45;&gt;15 -->
<g id="edge37" class="edge">
<title>9&#45;&gt;15</title>
<path fill="none" stroke="grey" stroke-width="2" d="M1805.95,-1026.62C1480.24,-1023 327.25,-1007.71 258.02,-972 147.25,-914.87 107.06,-841.45 135.02,-720 143,-685.33 142.71,-670.81 170.02,-648 205.7,-618.19 257.03,-605.1 297.2,-599.38"/>
<polygon fill="grey" stroke="grey" stroke-width="2" points="297.69,-602.84 307.15,-598.08 296.78,-595.9 297.69,-602.84"/>
</g>
<!-- 16 -->
<g id="node17" class="node">
<title>16</title>
<path fill="none" stroke="#56d86b" stroke-width="2" stroke-dasharray="5,2" d="M273.02,-828C273.02,-828 169.02,-828 169.02,-828 163.02,-828 157.02,-822 157.02,-816 157.02,-816 157.02,-804 157.02,-804 157.02,-798 163.02,-792 169.02,-792 169.02,-792 273.02,-792 273.02,-792 279.02,-792 285.02,-798 285.02,-804 285.02,-804 285.02,-816 285.02,-816 285.02,-822 279.02,-828 273.02,-828"/>
<text text-anchor="middle" x="221.02" y="-807.5" font-family="sans" font-size="10.00">picard_markduplicates</text>
</g>
<!-- 9&#45;&gt;16 -->
<g id="edge40" class="edge">
<title>9&#45;&gt;16</title>
<path fill="none" stroke="grey" stroke-width="2" d="M1805.79,-1026.27C1486.9,-1021.42 378.75,-1002.47 310.02,-972 269.21,-953.91 261.05,-939.36 240.02,-900 229.74,-880.78 225.03,-856.44 222.86,-838.07"/>
<polygon fill="grey" stroke="grey" stroke-width="2" points="226.33,-837.63 221.85,-828.03 219.37,-838.33 226.33,-837.63"/>
</g>
<!-- 9&#45;&gt;17 -->
<g id="edge43" class="edge">
<title>9&#45;&gt;17</title>
<path fill="none" stroke="grey" stroke-width="2" d="M1805.96,-1026.64C1491.64,-1023.16 410.54,-1008.58 347.02,-972 323.39,-958.39 308.27,-930.37 299.77,-909.39"/>
<polygon fill="grey" stroke="grey" stroke-width="2" points="303.05,-908.14 296.23,-900.03 296.5,-910.62 303.05,-908.14"/>
</g>
<!-- 20 -->
<g id="node21" class="node">
<title>20</title>
<path fill="none" stroke="#88d856" stroke-width="2" stroke-dasharray="5,2" d="M400.02,-684C400.02,-684 290.02,-684 290.02,-684 284.02,-684 278.02,-678 278.02,-672 278.02,-672 278.02,-660 278.02,-660 278.02,-654 284.02,-648 290.02,-648 290.02,-648 400.02,-648 400.02,-648 406.02,-648 412.02,-654 412.02,-660 412.02,-660 412.02,-672 412.02,-672 412.02,-678 406.02,-684 400.02,-684"/>
<text text-anchor="middle" x="345.02" y="-663.5" font-family="sans" font-size="10.00">gatk4_base_recalibrator</text>
</g>
<!-- 9&#45;&gt;20 -->
<g id="edge47" class="edge">
<title>9&#45;&gt;20</title>
<path fill="none" stroke="grey" stroke-width="2" d="M1805.83,-1025.78C1490.66,-1019.23 407.49,-995.08 380.02,-972 349.04,-945.99 361.02,-923.45 361.02,-883 361.02,-883 361.02,-883 361.02,-809 361.02,-768.96 354.66,-722.97 349.96,-694.45"/>
<polygon fill="grey" stroke="grey" stroke-width="2" points="353.38,-693.69 348.25,-684.42 346.48,-694.86 353.38,-693.69"/>
</g>
<!-- 22 -->
<g id="node23" class="node">
<title>22</title>
<path fill="none" stroke="#568ad8" stroke-width="2" stroke-dasharray="5,2" d="M676.52,-612C676.52,-612 597.52,-612 597.52,-612 591.52,-612 585.52,-606 585.52,-600 585.52,-600 585.52,-588 585.52,-588 585.52,-582 591.52,-576 597.52,-576 597.52,-576 676.52,-576 676.52,-576 682.52,-576 688.52,-582 688.52,-588 688.52,-588 688.52,-600 688.52,-600 688.52,-606 682.52,-612 676.52,-612"/>
<text text-anchor="middle" x="637.02" y="-591.5" font-family="sans" font-size="10.00">gatk4_apply_bqsr</text>
</g>
<!-- 9&#45;&gt;22 -->
<g id="edge53" class="edge">
<title>9&#45;&gt;22</title>
<path fill="none" stroke="grey" stroke-width="2" d="M1805.84,-1025.89C1538.85,-1020.53 733.17,-1001.94 686.02,-972 640.19,-942.91 654.69,-911.82 629.02,-864 603.14,-815.81 583.55,-809 570.02,-756 557.98,-708.85 564.87,-690.81 588.02,-648 593.58,-637.7 601.61,-627.86 609.56,-619.52"/>
<polygon fill="grey" stroke="grey" stroke-width="2" points="612.18,-621.85 616.77,-612.31 607.23,-616.91 612.18,-621.85"/>
</g>
<!-- 23 -->
<g id="node24" class="node">
<title>23</title>
<path fill="none" stroke="#56d86b" stroke-width="2" stroke-dasharray="5,2" d="M561.02,-828C561.02,-828 457.02,-828 457.02,-828 451.02,-828 445.02,-822 445.02,-816 445.02,-816 445.02,-804 445.02,-804 445.02,-798 451.02,-792 457.02,-792 457.02,-792 561.02,-792 561.02,-792 567.02,-792 573.02,-798 573.02,-804 573.02,-804 573.02,-816 573.02,-816 573.02,-822 567.02,-828 561.02,-828"/>
<text text-anchor="middle" x="509.02" y="-807.5" font-family="sans" font-size="10.00">picard_markduplicates</text>
</g>
<!-- 9&#45;&gt;23 -->
<g id="edge56" class="edge">
<title>9&#45;&gt;23</title>
<path fill="none" stroke="grey" stroke-width="2" d="M1805.54,-1027.44C1534.98,-1026.75 708.61,-1020.64 599.02,-972 557.94,-953.77 549.34,-939.56 528.02,-900 517.68,-880.82 512.96,-856.47 510.81,-838.09"/>
<polygon fill="grey" stroke="grey" stroke-width="2" points="514.29,-837.65 509.82,-828.04 507.32,-838.34 514.29,-837.65"/>
</g>
<!-- 9&#45;&gt;24 -->
<g id="edge59" class="edge">
<title>9&#45;&gt;24</title>
<path fill="none" stroke="grey" stroke-width="2" d="M1805.73,-1025.9C1531.23,-1020.46 685.55,-1001.38 635.02,-972 611.69,-958.44 596.63,-930.86 588.07,-909.98"/>
<polygon fill="grey" stroke="grey" stroke-width="2" points="591.23,-908.45 584.38,-900.36 584.69,-910.95 591.23,-908.45"/>
</g>
<!-- 27 -->
<g id="node28" class="node">
<title>27</title>
<path fill="none" stroke="#88d856" stroke-width="2" stroke-dasharray="5,2" d="M719.02,-684C719.02,-684 609.02,-684 609.02,-684 603.02,-684 597.02,-678 597.02,-672 597.02,-672 597.02,-660 597.02,-660 597.02,-654 603.02,-648 609.02,-648 609.02,-648 719.02,-648 719.02,-648 725.02,-648 731.02,-654 731.02,-660 731.02,-660 731.02,-672 731.02,-672 731.02,-678 725.02,-684 719.02,-684"/>
<text text-anchor="middle" x="664.02" y="-663.5" font-family="sans" font-size="10.00">gatk4_base_recalibrator</text>
</g>
<!-- 9&#45;&gt;27 -->
<g id="edge63" class="edge">
<title>9&#45;&gt;27</title>
<path fill="none" stroke="grey" stroke-width="2" d="M1805.87,-1025.97C1518.91,-1020.57 601.93,-1001.1 546.02,-972 462.85,-928.72 393.27,-875.45 436.02,-792 465.48,-734.48 533.29,-702.21 587.34,-684.92"/>
<polygon fill="grey" stroke="grey" stroke-width="2" points="588.39,-688.26 596.92,-681.97 586.33,-681.57 588.39,-688.26"/>
</g>
<!-- 29 -->
<g id="node30" class="node">
<title>29</title>
<path fill="none" stroke="#568ad8" stroke-width="2" stroke-dasharray="5,2" d="M1162.52,-612C1162.52,-612 1083.52,-612 1083.52,-612 1077.52,-612 1071.52,-606 1071.52,-600 1071.52,-600 1071.52,-588 1071.52,-588 1071.52,-582 1077.52,-576 1083.52,-576 1083.52,-576 1162.52,-576 1162.52,-576 1168.52,-576 1174.52,-582 1174.52,-588 1174.52,-588 1174.52,-600 1174.52,-600 1174.52,-606 1168.52,-612 1162.52,-612"/>
<text text-anchor="middle" x="1123.02" y="-591.5" font-family="sans" font-size="10.00">gatk4_apply_bqsr</text>
</g>
<!-- 9&#45;&gt;29 -->
<g id="edge69" class="edge">
<title>9&#45;&gt;29</title>
<path fill="none" stroke="grey" stroke-width="2" d="M1805.91,-1025.39C1545.5,-1017.81 777.02,-986.67 777.02,-883 777.02,-883 777.02,-883 777.02,-809 777.02,-676.87 961.78,-623.57 1061.28,-604.45"/>
<polygon fill="grey" stroke="grey" stroke-width="2" points="1062.03,-607.87 1071.22,-602.6 1060.74,-600.99 1062.03,-607.87"/>
</g>
<!-- 30 -->
<g id="node31" class="node">
<title>30</title>
<path fill="none" stroke="#56d86b" stroke-width="2" stroke-dasharray="5,2" d="M1265.02,-828C1265.02,-828 1161.02,-828 1161.02,-828 1155.02,-828 1149.02,-822 1149.02,-816 1149.02,-816 1149.02,-804 1149.02,-804 1149.02,-798 1155.02,-792 1161.02,-792 1161.02,-792 1265.02,-792 1265.02,-792 1271.02,-792 1277.02,-798 1277.02,-804 1277.02,-804 1277.02,-816 1277.02,-816 1277.02,-822 1271.02,-828 1265.02,-828"/>
<text text-anchor="middle" x="1213.02" y="-807.5" font-family="sans" font-size="10.00">picard_markduplicates</text>
</g>
<!-- 9&#45;&gt;30 -->
<g id="edge72" class="edge">
<title>9&#45;&gt;30</title>
<path fill="none" stroke="grey" stroke-width="2" d="M1805.94,-1023.83C1648.61,-1016.45 1324.15,-998.26 1280.02,-972 1233.48,-944.32 1219.27,-876.73 1214.92,-838.51"/>
<polygon fill="grey" stroke="grey" stroke-width="2" points="1218.36,-837.73 1213.91,-828.12 1211.4,-838.41 1218.36,-837.73"/>
</g>
<!-- 9&#45;&gt;31 -->
<g id="edge75" class="edge">
<title>9&#45;&gt;31</title>
<path fill="none" stroke="grey" stroke-width="2" d="M1805.89,-1024.97C1651.74,-1019.61 1338.85,-1004.77 1302.02,-972 1285.01,-956.86 1281.13,-930.57 1280.98,-910.47"/>
<polygon fill="grey" stroke="grey" stroke-width="2" points="1284.49,-910.42 1281.21,-900.34 1277.49,-910.26 1284.49,-910.42"/>
</g>
<!-- 34 -->
<g id="node35" class="node">
<title>34</title>
<path fill="none" stroke="#88d856" stroke-width="2" stroke-dasharray="5,2" d="M1273.02,-684C1273.02,-684 1163.02,-684 1163.02,-684 1157.02,-684 1151.02,-678 1151.02,-672 1151.02,-672 1151.02,-660 1151.02,-660 1151.02,-654 1157.02,-648 1163.02,-648 1163.02,-648 1273.02,-648 1273.02,-648 1279.02,-648 1285.02,-654 1285.02,-660 1285.02,-660 1285.02,-672 1285.02,-672 1285.02,-678 1279.02,-684 1273.02,-684"/>
<text text-anchor="middle" x="1218.02" y="-663.5" font-family="sans" font-size="10.00">gatk4_base_recalibrator</text>
</g>
<!-- 9&#45;&gt;34 -->
<g id="edge79" class="edge">
<title>9&#45;&gt;34</title>
<path fill="none" stroke="grey" stroke-width="2" d="M1805.82,-1018.7C1671.34,-1002.41 1425.02,-961.83 1425.02,-883 1425.02,-883 1425.02,-883 1425.02,-809 1425.02,-768.55 1433.68,-749.51 1406.02,-720 1377.7,-689.8 1333.63,-676.35 1295.28,-670.54"/>
<polygon fill="grey" stroke="grey" stroke-width="2" points="1295.53,-667.04 1285.15,-669.16 1294.58,-673.98 1295.53,-667.04"/>
</g>
<!-- 36 -->
<g id="node37" class="node">
<title>36</title>
<path fill="none" stroke="#568ad8" stroke-width="2" stroke-dasharray="5,2" d="M2214.52,-612C2214.52,-612 2135.52,-612 2135.52,-612 2129.52,-612 2123.52,-606 2123.52,-600 2123.52,-600 2123.52,-588 2123.52,-588 2123.52,-582 2129.52,-576 2135.52,-576 2135.52,-576 2214.52,-576 2214.52,-576 2220.52,-576 2226.52,-582 2226.52,-588 2226.52,-588 2226.52,-600 2226.52,-600 2226.52,-606 2220.52,-612 2214.52,-612"/>
<text text-anchor="middle" x="2175.02" y="-591.5" font-family="sans" font-size="10.00">gatk4_apply_bqsr</text>
</g>
<!-- 9&#45;&gt;36 -->
<g id="edge85" class="edge">
<title>9&#45;&gt;36</title>
<path fill="none" stroke="grey" stroke-width="2" d="M1976.15,-1019.69C2115.03,-1004.56 2375.02,-965.27 2375.02,-883 2375.02,-883 2375.02,-883 2375.02,-737 2375.02,-668.02 2294.94,-629.48 2236.13,-610.48"/>
<polygon fill="grey" stroke="grey" stroke-width="2" points="2237.11,-607.12 2226.52,-607.48 2235.03,-613.8 2237.11,-607.12"/>
</g>
<!-- 37 -->
<g id="node38" class="node">
<title>37</title>
<path fill="none" stroke="#56d86b" stroke-width="2" stroke-dasharray="5,2" d="M2276.02,-828C2276.02,-828 2172.02,-828 2172.02,-828 2166.02,-828 2160.02,-822 2160.02,-816 2160.02,-816 2160.02,-804 2160.02,-804 2160.02,-798 2166.02,-792 2172.02,-792 2172.02,-792 2276.02,-792 2276.02,-792 2282.02,-792 2288.02,-798 2288.02,-804 2288.02,-804 2288.02,-816 2288.02,-816 2288.02,-822 2282.02,-828 2276.02,-828"/>
<text text-anchor="middle" x="2224.02" y="-807.5" font-family="sans" font-size="10.00">picard_markduplicates</text>
</g>
<!-- 9&#45;&gt;37 -->
<g id="edge88" class="edge">
<title>9&#45;&gt;37</title>
<path fill="none" stroke="grey" stroke-width="2" d="M1976.18,-1019.78C2050.7,-1011.53 2151.9,-996.27 2184.02,-972 2224.9,-941.1 2228.27,-875.37 2226.53,-838.16"/>
<polygon fill="grey" stroke="grey" stroke-width="2" points="2230.02,-837.8 2225.9,-828.04 2223.03,-838.24 2230.02,-837.8"/>
</g>
<!-- 9&#45;&gt;38 -->
<g id="edge91" class="edge">
<title>9&#45;&gt;38</title>
<path fill="none" stroke="grey" stroke-width="2" d="M1976.35,-1015.46C2051.73,-1003.98 2151.6,-986.36 2164.02,-972 2178.37,-955.41 2178.36,-929.9 2175.49,-910.44"/>
<polygon fill="grey" stroke="grey" stroke-width="2" points="2178.89,-909.57 2173.68,-900.35 2172,-910.81 2178.89,-909.57"/>
</g>
<!-- 41 -->
<g id="node42" class="node">
<title>41</title>
<path fill="none" stroke="#88d856" stroke-width="2" stroke-dasharray="5,2" d="M2175.02,-684C2175.02,-684 2065.02,-684 2065.02,-684 2059.02,-684 2053.02,-678 2053.02,-672 2053.02,-672 2053.02,-660 2053.02,-660 2053.02,-654 2059.02,-648 2065.02,-648 2065.02,-648 2175.02,-648 2175.02,-648 2181.02,-648 2187.02,-654 2187.02,-660 2187.02,-660 2187.02,-672 2187.02,-672 2187.02,-678 2181.02,-684 2175.02,-684"/>
<text text-anchor="middle" x="2120.02" y="-663.5" font-family="sans" font-size="10.00">gatk4_base_recalibrator</text>
</g>
<!-- 9&#45;&gt;41 -->
<g id="edge95" class="edge">
<title>9&#45;&gt;41</title>
<path fill="none" stroke="grey" stroke-width="2" d="M1976.36,-1013.66C2002.78,-1005.51 2029.93,-992.56 2049.02,-972 2076.89,-941.97 2073.02,-923.97 2073.02,-883 2073.02,-883 2073.02,-883 2073.02,-809 2073.02,-766.96 2091.82,-721.29 2105.64,-693.41"/>
<polygon fill="grey" stroke="grey" stroke-width="2" points="2108.85,-694.82 2110.28,-684.32 2102.61,-691.63 2108.85,-694.82"/>
</g>
<!-- 48 -->
<g id="node49" class="node">
<title>48</title>
<path fill="none" stroke="#78d856" stroke-width="2" stroke-dasharray="5,2" d="M1910.52,-252C1910.52,-252 1803.52,-252 1803.52,-252 1797.52,-252 1791.52,-246 1791.52,-240 1791.52,-240 1791.52,-228 1791.52,-228 1791.52,-222 1797.52,-216 1803.52,-216 1803.52,-216 1910.52,-216 1910.52,-216 1916.52,-216 1922.52,-222 1922.52,-228 1922.52,-228 1922.52,-240 1922.52,-240 1922.52,-246 1916.52,-252 1910.52,-252"/>
<text text-anchor="middle" x="1857.02" y="-231.5" font-family="sans" font-size="10.00">gatk4_variant_filtration</text>
</g>
<!-- 9&#45;&gt;48 -->
<g id="edge105" class="edge">
<title>9&#45;&gt;48</title>
<path fill="none" stroke="grey" stroke-width="2" d="M1976.39,-1017.19C2092.67,-1002.98 2288.19,-978.39 2303.02,-972 2360.76,-947.1 2413.02,-945.89 2413.02,-883 2413.02,-883 2413.02,-883 2413.02,-737 2413.02,-630.66 2336.64,-610.41 2236.02,-576 2159.94,-549.98 1935.92,-593.62 1876.02,-540 1845.88,-513.03 1857.02,-491.45 1857.02,-451 1857.02,-451 1857.02,-451 1857.02,-377 1857.02,-337 1857.02,-290.65 1857.02,-262.08"/>
<polygon fill="grey" stroke="grey" stroke-width="2" points="1860.52,-262.05 1857.02,-252.05 1853.52,-262.05 1860.52,-262.05"/>
</g>
<!-- 49 -->
<g id="node50" class="node">
<title>49</title>
<path fill="none" stroke="#56d8c9" stroke-width="2" stroke-dasharray="5,2" d="M2626.52,-324C2626.52,-324 2451.52,-324 2451.52,-324 2445.52,-324 2439.52,-318 2439.52,-312 2439.52,-312 2439.52,-300 2439.52,-300 2439.52,-294 2445.52,-288 2451.52,-288 2451.52,-288 2626.52,-288 2626.52,-288 2632.52,-288 2638.52,-294 2638.52,-300 2638.52,-300 2638.52,-312 2638.52,-312 2638.52,-318 2632.52,-324 2626.52,-324"/>
<text text-anchor="middle" x="2539.02" y="-303.5" font-family="sans" font-size="10.00">gatk4_calculate_genotype_posteriors</text>
</g>
<!-- 9&#45;&gt;49 -->
<g id="edge108" class="edge">
<title>9&#45;&gt;49</title>
<path fill="none" stroke="grey" stroke-width="2" d="M1976.03,-1017.17C2005.45,-1013.87 2038.65,-1010.44 2069.02,-1008 2146.76,-1001.75 2710.66,-1022.59 2770.02,-972 2800.8,-945.76 2789.02,-923.45 2789.02,-883 2789.02,-883 2789.02,-883 2789.02,-449 2789.02,-379.78 2715.65,-343.88 2648.41,-325.52"/>
<polygon fill="grey" stroke="grey" stroke-width="2" points="2649.1,-322.08 2638.54,-322.94 2647.33,-328.86 2649.1,-322.08"/>
</g>
<!-- 50 -->
<g id="node51" class="node">
<title>50</title>
<path fill="none" stroke="#9fd856" stroke-width="2" stroke-dasharray="5,2" d="M2590.52,-396C2590.52,-396 2487.52,-396 2487.52,-396 2481.52,-396 2475.52,-390 2475.52,-384 2475.52,-384 2475.52,-372 2475.52,-372 2475.52,-366 2481.52,-360 2487.52,-360 2487.52,-360 2590.52,-360 2590.52,-360 2596.52,-360 2602.52,-366 2602.52,-372 2602.52,-372 2602.52,-384 2602.52,-384 2602.52,-390 2596.52,-396 2590.52,-396"/>
<text text-anchor="middle" x="2539.02" y="-375.5" font-family="sans" font-size="10.00">gatk4_genotype_gvcfs</text>
</g>
<!-- 9&#45;&gt;50 -->
<g id="edge110" class="edge">
<title>9&#45;&gt;50</title>
<path fill="none" stroke="grey" stroke-width="2" d="M1976.05,-1017.42C2005.47,-1014.14 2038.67,-1010.66 2069.02,-1008 2129.8,-1002.68 2563.88,-1002 2617.02,-972 2658.99,-948.3 2679.02,-931.21 2679.02,-883 2679.02,-883 2679.02,-883 2679.02,-521 2679.02,-466.01 2625.12,-424.59 2584.2,-401.07"/>
<polygon fill="grey" stroke="grey" stroke-width="2" points="2585.87,-398 2575.43,-396.19 2582.47,-404.11 2585.87,-398"/>
</g>
<!-- 51 -->
<g id="node52" class="node">
<title>51</title>
<path fill="none" stroke="#56a9d8" stroke-width="2" stroke-dasharray="5,2" d="M2447.52,-468C2447.52,-468 2348.52,-468 2348.52,-468 2342.52,-468 2336.52,-462 2336.52,-456 2336.52,-456 2336.52,-444 2336.52,-444 2336.52,-438 2342.52,-432 2348.52,-432 2348.52,-432 2447.52,-432 2447.52,-432 2453.52,-432 2459.52,-438 2459.52,-444 2459.52,-444 2459.52,-456 2459.52,-456 2459.52,-462 2453.52,-468 2447.52,-468"/>
<text text-anchor="middle" x="2398.02" y="-447.5" font-family="sans" font-size="10.00">gatk4_combine_gvcfs</text>
</g>
<!-- 9&#45;&gt;51 -->
<g id="edge116" class="edge">
<title>9&#45;&gt;51</title>
<path fill="none" stroke="grey" stroke-width="2" d="M1976.06,-1017.5C2005.48,-1014.22 2038.67,-1010.73 2069.02,-1008 2182.62,-997.79 2482.26,-1029.06 2581.02,-972 2622.32,-948.13 2641.02,-930.7 2641.02,-883 2641.02,-883 2641.02,-883 2641.02,-593 2641.02,-552.55 2650.3,-532.91 2622.02,-504 2600.96,-482.47 2527.07,-467.93 2469.84,-459.6"/>
<polygon fill="grey" stroke="grey" stroke-width="2" points="2470.12,-456.1 2459.73,-458.17 2469.14,-463.03 2470.12,-456.1"/>
</g>
<!-- 9&#45;&gt;52 -->
<g id="edge117" class="edge">
<title>9&#45;&gt;52</title>
<path fill="none" stroke="grey" stroke-width="2" d="M1976.07,-1017.69C2005.49,-1014.43 2038.69,-1010.89 2069.02,-1008 2167.56,-998.61 2429.22,-1024.71 2513.02,-972 2551.79,-947.61 2565.02,-928.81 2565.02,-883 2565.02,-883 2565.02,-883 2565.02,-665 2565.02,-605.83 2503.42,-566.15 2455.04,-544.12"/>
<polygon fill="grey" stroke="grey" stroke-width="2" points="2456.43,-540.91 2445.87,-540.08 2453.61,-547.31 2456.43,-540.91"/>
</g>
<!-- 53 -->
<g id="node54" class="node">
<title>53</title>
<path fill="none" stroke="#d86656" stroke-width="2" stroke-dasharray="5,2" d="M2004.52,-540C2004.52,-540 1897.52,-540 1897.52,-540 1891.52,-540 1885.52,-534 1885.52,-528 1885.52,-528 1885.52,-516 1885.52,-516 1885.52,-510 1891.52,-504 1897.52,-504 1897.52,-504 2004.52,-504 2004.52,-504 2010.52,-504 2016.52,-510 2016.52,-516 2016.52,-516 2016.52,-528 2016.52,-528 2016.52,-534 2010.52,-540 2004.52,-540"/>
<text text-anchor="middle" x="1951.02" y="-519.5" font-family="sans" font-size="10.00">gatk4_haplotype_caller</text>
</g>
<!-- 9&#45;&gt;53 -->
<g id="edge119" class="edge">
<title>9&#45;&gt;53</title>
<path fill="none" stroke="grey" stroke-width="2" d="M1976.11,-1018.02C2005.53,-1014.79 2038.72,-1011.18 2069.02,-1008 2148.54,-999.65 2366.06,-1023.74 2427.02,-972 2458.25,-945.49 2451.02,-923.97 2451.02,-883 2451.02,-883 2451.02,-883 2451.02,-665 2451.02,-522.66 2121.69,-549.68 2026.91,-539.67"/>
<polygon fill="grey" stroke="grey" stroke-width="2" points="2027.17,-536.18 2016.79,-538.3 2026.23,-543.11 2027.17,-536.18"/>
</g>
<!-- 54 -->
<g id="node55" class="node">
<title>54</title>
<path fill="none" stroke="#d86656" stroke-width="2" stroke-dasharray="5,2" d="M2153.52,-540C2153.52,-540 2046.52,-540 2046.52,-540 2040.52,-540 2034.52,-534 2034.52,-528 2034.52,-528 2034.52,-516 2034.52,-516 2034.52,-510 2040.52,-504 2046.52,-504 2046.52,-504 2153.52,-504 2153.52,-504 2159.52,-504 2165.52,-510 2165.52,-516 2165.52,-516 2165.52,-528 2165.52,-528 2165.52,-534 2159.52,-540 2153.52,-540"/>
<text text-anchor="middle" x="2100.02" y="-519.5" font-family="sans" font-size="10.00">gatk4_haplotype_caller</text>
</g>
<!-- 9&#45;&gt;54 -->
<g id="edge121" class="edge">
<title>9&#45;&gt;54</title>
<path fill="none" stroke="grey" stroke-width="2" d="M1976.1,-1017.91C2005.52,-1014.67 2038.71,-1011.08 2069.02,-1008 2154.06,-999.35 2383.21,-1022.73 2452.02,-972 2486.5,-946.58 2489.02,-925.84 2489.02,-883 2489.02,-883 2489.02,-883 2489.02,-665 2489.02,-614.12 2461.19,-601.24 2417.02,-576 2325.37,-523.63 2284.33,-557.89 2175.82,-539.98"/>
<polygon fill="grey" stroke="grey" stroke-width="2" points="2176.26,-536.5 2165.81,-538.21 2175.05,-543.39 2176.26,-536.5"/>
</g>
<!-- 55 -->
<g id="node56" class="node">
<title>55</title>
<path fill="none" stroke="#d86656" stroke-width="2" stroke-dasharray="5,2" d="M2302.52,-540C2302.52,-540 2195.52,-540 2195.52,-540 2189.52,-540 2183.52,-534 2183.52,-528 2183.52,-528 2183.52,-516 2183.52,-516 2183.52,-510 2189.52,-504 2195.52,-504 2195.52,-504 2302.52,-504 2302.52,-504 2308.52,-504 2314.52,-510 2314.52,-516 2314.52,-516 2314.52,-528 2314.52,-528 2314.52,-534 2308.52,-540 2302.52,-540"/>
<text text-anchor="middle" x="2249.02" y="-519.5" font-family="sans" font-size="10.00">gatk4_haplotype_caller</text>
</g>
<!-- 9&#45;&gt;55 -->
<g id="edge123" class="edge">
<title>9&#45;&gt;55</title>
<path fill="none" stroke="grey" stroke-width="2" d="M1976.08,-1017.8C2005.51,-1014.54 2038.7,-1010.99 2069.02,-1008 2160.48,-999 2404.67,-1023.17 2481.02,-972 2518,-947.21 2527.02,-927.53 2527.02,-883 2527.02,-883 2527.02,-883 2527.02,-665 2527.02,-614.68 2499.2,-603.45 2457.02,-576 2451.19,-572.21 2381.58,-554.85 2324.46,-541.02"/>
<polygon fill="grey" stroke="grey" stroke-width="2" points="2325.23,-537.6 2314.69,-538.66 2323.59,-544.41 2325.23,-537.6"/>
</g>
<!-- 56 -->
<g id="node57" class="node">
<title>56</title>
<path fill="none" stroke="#d86656" stroke-width="2" stroke-dasharray="5,2" d="M2600.52,-540C2600.52,-540 2493.52,-540 2493.52,-540 2487.52,-540 2481.52,-534 2481.52,-528 2481.52,-528 2481.52,-516 2481.52,-516 2481.52,-510 2487.52,-504 2493.52,-504 2493.52,-504 2600.52,-504 2600.52,-504 2606.52,-504 2612.52,-510 2612.52,-516 2612.52,-516 2612.52,-528 2612.52,-528 2612.52,-534 2606.52,-540 2600.52,-540"/>
<text text-anchor="middle" x="2547.02" y="-519.5" font-family="sans" font-size="10.00">gatk4_haplotype_caller</text>
</g>
<!-- 9&#45;&gt;56 -->
<g id="edge125" class="edge">
<title>9&#45;&gt;56</title>
<path fill="none" stroke="grey" stroke-width="2" d="M1976.06,-1017.59C2005.48,-1014.32 2038.68,-1010.81 2069.02,-1008 2174.87,-998.21 2454.74,-1026.49 2546.02,-972 2586.35,-947.92 2603.02,-929.97 2603.02,-883 2603.02,-883 2603.02,-883 2603.02,-665 2603.02,-621.91 2580.42,-576.26 2563.93,-548.7"/>
<polygon fill="grey" stroke="grey" stroke-width="2" points="2566.84,-546.75 2558.62,-540.07 2560.89,-550.42 2566.84,-546.75"/>
</g>
<!-- 10&#45;&gt;3 -->
<g id="edge19" class="edge">
<title>10&#45;&gt;3</title>
<path fill="none" stroke="grey" stroke-width="2" d="M1788.56,-647.7C1797.82,-639.05 1809.18,-628.45 1819.27,-619.03"/>
<polygon fill="grey" stroke="grey" stroke-width="2" points="1821.77,-621.49 1826.69,-612.1 1816.99,-616.37 1821.77,-621.49"/>
</g>
<!-- 11&#45;&gt;10 -->
<g id="edge28" class="edge">
<title>11&#45;&gt;10</title>
<path fill="none" stroke="grey" stroke-width="2" d="M1770.02,-719.7C1770.02,-711.98 1770.02,-702.71 1770.02,-694.11"/>
<polygon fill="grey" stroke="grey" stroke-width="2" points="1773.52,-694.1 1770.02,-684.1 1766.52,-694.1 1773.52,-694.1"/>
</g>
<!-- 12&#45;&gt;10 -->
<g id="edge30" class="edge">
<title>12&#45;&gt;10</title>
<path fill="none" stroke="grey" stroke-width="2" d="M1596.74,-719.97C1629.16,-710.06 1670.19,-697.51 1704.19,-687.12"/>
<polygon fill="grey" stroke="grey" stroke-width="2" points="1705.5,-690.38 1714.04,-684.11 1703.45,-683.69 1705.5,-690.38"/>
</g>
<!-- 12&#45;&gt;20 -->
<g id="edge48" class="edge">
<title>12&#45;&gt;20</title>
<path fill="none" stroke="grey" stroke-width="2" d="M1452.89,-724.86C1437.3,-723.01 1421.2,-721.29 1406.02,-720 1043.41,-689.24 951.33,-704.7 588.02,-684 532.55,-680.84 470.03,-676.45 422.29,-672.92"/>
<polygon fill="grey" stroke="grey" stroke-width="2" points="422.26,-669.41 412.03,-672.16 421.74,-676.39 422.26,-669.41"/>
</g>
<!-- 12&#45;&gt;27 -->
<g id="edge64" class="edge">
<title>12&#45;&gt;27</title>
<path fill="none" stroke="grey" stroke-width="2" d="M1452.86,-725.2C1437.27,-723.32 1421.18,-721.5 1406.02,-720 1163.95,-696.13 876.44,-678.7 741.38,-671.15"/>
<polygon fill="grey" stroke="grey" stroke-width="2" points="741.31,-667.64 731.14,-670.58 740.93,-674.63 741.31,-667.64"/>
</g>
<!-- 12&#45;&gt;34 -->
<g id="edge80" class="edge">
<title>12&#45;&gt;34</title>
<path fill="none" stroke="grey" stroke-width="2" d="M1462.41,-719.97C1411.56,-708.94 1345.65,-694.66 1295.1,-683.71"/>
<polygon fill="grey" stroke="grey" stroke-width="2" points="1295.72,-680.26 1285.2,-681.56 1294.24,-687.1 1295.72,-680.26"/>
</g>
<!-- 12&#45;&gt;41 -->
<g id="edge96" class="edge">
<title>12&#45;&gt;41</title>
<path fill="none" stroke="grey" stroke-width="2" d="M1629.24,-725.81C1644.82,-723.85 1660.89,-721.85 1676.02,-720 1804.56,-704.23 1954.11,-686.51 2042.71,-676.07"/>
<polygon fill="grey" stroke="grey" stroke-width="2" points="2043.16,-679.55 2052.68,-674.9 2042.34,-672.59 2043.16,-679.55"/>
</g>
<!-- 13 -->
<g id="node14" class="node">
<title>13</title>
<path fill="none" stroke="#d8cb56" stroke-width="2" stroke-dasharray="5,2" d="M1049.02,-828C1049.02,-828 927.02,-828 927.02,-828 921.02,-828 915.02,-822 915.02,-816 915.02,-816 915.02,-804 915.02,-804 915.02,-798 921.02,-792 927.02,-792 927.02,-792 1049.02,-792 1049.02,-792 1055.02,-792 1061.02,-798 1061.02,-804 1061.02,-804 1061.02,-816 1061.02,-816 1061.02,-822 1055.02,-828 1049.02,-828"/>
<text text-anchor="middle" x="988.02" y="-807.5" font-family="sans" font-size="10.00">reference_recompress_vcf</text>
</g>
<!-- 13&#45;&gt;2 -->
<g id="edge16" class="edge">
<title>13&#45;&gt;2</title>
<path fill="none" stroke="grey" stroke-width="2" d="M923.7,-791.94C904.55,-783.93 885.18,-772.4 872.02,-756 846.7,-724.46 853.02,-707.45 853.02,-667 853.02,-667 853.02,-667 853.02,-305 853.02,-248.62 909.61,-207.8 953.04,-184.77"/>
<polygon fill="grey" stroke="grey" stroke-width="2" points="954.79,-187.81 962.09,-180.13 951.59,-181.58 954.79,-187.81"/>
</g>
<!-- 13&#45;&gt;10 -->
<g id="edge31" class="edge">
<title>13&#45;&gt;10</title>
<path fill="none" stroke="grey" stroke-width="2" d="M1061.02,-800.25C1086.04,-797.4 1114.24,-794.37 1140.02,-792 1250.5,-781.83 1536.49,-800.76 1638.02,-756 1659.3,-746.61 1657.3,-733.82 1676.02,-720 1691.39,-708.65 1709.43,-697.94 1725.58,-689.15"/>
<polygon fill="grey" stroke="grey" stroke-width="2" points="1727.66,-692 1734.83,-684.2 1724.36,-685.83 1727.66,-692"/>
</g>
<!-- 14 -->
<g id="node15" class="node">
<title>14</title>
<path fill="none" stroke="#56d87b" stroke-width="2" stroke-dasharray="5,2" d="M1082.52,-756C1082.52,-756 893.52,-756 893.52,-756 887.52,-756 881.52,-750 881.52,-744 881.52,-744 881.52,-732 881.52,-732 881.52,-726 887.52,-720 893.52,-720 893.52,-720 1082.52,-720 1082.52,-720 1088.52,-720 1094.52,-726 1094.52,-732 1094.52,-732 1094.52,-744 1094.52,-744 1094.52,-750 1088.52,-756 1082.52,-756"/>
<text text-anchor="middle" x="988.02" y="-741" font-family="sans" font-size="10.00">vcf_gz_tbi</text>
<text text-anchor="middle" x="988.02" y="-730" font-family="sans" font-size="10.00">prefix: results/reference/known_variants</text>
</g>
<!-- 13&#45;&gt;14 -->
<g id="edge35" class="edge">
<title>13&#45;&gt;14</title>
<path fill="none" stroke="grey" stroke-width="2" d="M988.02,-791.7C988.02,-783.98 988.02,-774.71 988.02,-766.11"/>
<polygon fill="grey" stroke="grey" stroke-width="2" points="991.52,-766.1 988.02,-756.1 984.52,-766.1 991.52,-766.1"/>
</g>
<!-- 13&#45;&gt;20 -->
<g id="edge49" class="edge">
<title>13&#45;&gt;20</title>
<path fill="none" stroke="grey" stroke-width="2" d="M914.86,-805.28C830.59,-799.72 688.51,-786.43 570.02,-756 505.06,-739.32 433.62,-708.83 389.04,-688.24"/>
<polygon fill="grey" stroke="grey" stroke-width="2" points="390.49,-685.06 379.95,-684.01 387.54,-691.4 390.49,-685.06"/>
</g>
<!-- 13&#45;&gt;27 -->
<g id="edge65" class="edge">
<title>13&#45;&gt;27</title>
<path fill="none" stroke="grey" stroke-width="2" d="M934.97,-791.99C906.23,-782.3 870.29,-769.45 839.02,-756 791.44,-735.54 738.7,-708.02 703.68,-689.03"/>
<polygon fill="grey" stroke="grey" stroke-width="2" points="705.19,-685.86 694.73,-684.15 701.84,-692.01 705.19,-685.86"/>
</g>
<!-- 13&#45;&gt;34 -->
<g id="edge81" class="edge">
<title>13&#45;&gt;34</title>
<path fill="none" stroke="grey" stroke-width="2" d="M1030.98,-791.95C1053.11,-782.49 1080.18,-769.85 1103.02,-756 1134.93,-736.64 1168.34,-709.96 1190.87,-690.87"/>
<polygon fill="grey" stroke="grey" stroke-width="2" points="1193.33,-693.37 1198.66,-684.21 1188.78,-688.05 1193.33,-693.37"/>
</g>
<!-- 13&#45;&gt;41 -->
<g id="edge97" class="edge">
<title>13&#45;&gt;41</title>
<path fill="none" stroke="grey" stroke-width="2" d="M1061.37,-799.87C1086.3,-797.01 1114.34,-794.07 1140.02,-792 1461.15,-766.08 1547.77,-817.52 1864.02,-756 1939.08,-741.4 2022.02,-709.46 2072.57,-688.09"/>
<polygon fill="grey" stroke="grey" stroke-width="2" points="2074.11,-691.24 2081.93,-684.1 2071.36,-684.8 2074.11,-691.24"/>
</g>
<!-- 14&#45;&gt;10 -->
<g id="edge32" class="edge">
<title>14&#45;&gt;10</title>
<path fill="none" stroke="grey" stroke-width="2" d="M1094.7,-727.45C1254.44,-713.15 1551.98,-686.52 1692.6,-673.93"/>
<polygon fill="grey" stroke="grey" stroke-width="2" points="1693.21,-677.39 1702.86,-673.01 1692.58,-670.42 1693.21,-677.39"/>
</g>
<!-- 14&#45;&gt;20 -->
<g id="edge50" class="edge">
<title>14&#45;&gt;20</title>
<path fill="none" stroke="grey" stroke-width="2" d="M881.48,-725.4C752.08,-711.31 536.94,-687.89 422.37,-675.42"/>
<polygon fill="grey" stroke="grey" stroke-width="2" points="422.6,-671.93 412.28,-674.32 421.84,-678.88 422.6,-671.93"/>
</g>
<!-- 14&#45;&gt;27 -->
<g id="edge66" class="edge">
<title>14&#45;&gt;27</title>
<path fill="none" stroke="grey" stroke-width="2" d="M909.17,-719.97C858.07,-708.93 791.82,-694.61 741.08,-683.65"/>
<polygon fill="grey" stroke="grey" stroke-width="2" points="741.66,-680.19 731.15,-681.5 740.18,-687.04 741.66,-680.19"/>
</g>
<!-- 14&#45;&gt;34 -->
<g id="edge82" class="edge">
<title>14&#45;&gt;34</title>
<path fill="none" stroke="grey" stroke-width="2" d="M1043.99,-719.97C1076.54,-710.06 1117.76,-697.51 1151.9,-687.12"/>
<polygon fill="grey" stroke="grey" stroke-width="2" points="1153.25,-690.37 1161.79,-684.11 1151.21,-683.67 1153.25,-690.37"/>
</g>
<!-- 14&#45;&gt;41 -->
<g id="edge98" class="edge">
<title>14&#45;&gt;41</title>
<path fill="none" stroke="grey" stroke-width="2" d="M1094.77,-728.74C1133.57,-725.84 1177.76,-722.64 1218.02,-720 1496.99,-701.7 1566.94,-700.66 1846.02,-684 1912.41,-680.04 1987.85,-675.34 2042.74,-671.89"/>
<polygon fill="grey" stroke="grey" stroke-width="2" points="2042.98,-675.38 2052.74,-671.26 2042.54,-668.4 2042.98,-675.38"/>
</g>
<!-- 15&#45;&gt;2 -->
<g id="edge5" class="edge">
<title>15&#45;&gt;2</title>
<path fill="none" stroke="grey" stroke-width="2" d="M410.61,-578.3C465.96,-559 546.02,-519.28 546.02,-451 546.02,-451 546.02,-451 546.02,-305 546.02,-242.11 598.5,-241.42 656.02,-216 742.11,-177.95 850.67,-166.54 923.01,-163.47"/>
<polygon fill="grey" stroke="grey" stroke-width="2" points="923.55,-166.95 933.41,-163.07 923.29,-159.95 923.55,-166.95"/>
</g>
<!-- 44 -->
<g id="node45" class="node">
<title>44</title>
<path fill="none" stroke="#d8c356" stroke-width="2" stroke-dasharray="5,2" d="M451.02,-396C451.02,-396 289.02,-396 289.02,-396 283.02,-396 277.02,-390 277.02,-384 277.02,-384 277.02,-372 277.02,-372 277.02,-366 283.02,-360 289.02,-360 289.02,-360 451.02,-360 451.02,-360 457.02,-360 463.02,-366 463.02,-372 463.02,-372 463.02,-384 463.02,-384 463.02,-390 457.02,-396 451.02,-396"/>
<text text-anchor="middle" x="370.02" y="-381" font-family="sans" font-size="10.00">bai</text>
<text text-anchor="middle" x="370.02" y="-370" font-family="sans" font-size="10.00">prefix: results/gatk/sample1.2.bqsr</text>
</g>
<!-- 15&#45;&gt;44 -->
<g id="edge101" class="edge">
<title>15&#45;&gt;44</title>
<path fill="none" stroke="grey" stroke-width="2" d="M359.9,-575.85C361.8,-538.83 366.31,-451.18 368.61,-406.39"/>
<polygon fill="grey" stroke="grey" stroke-width="2" points="372.11,-406.4 369.13,-396.23 365.12,-406.04 372.11,-406.4"/>
</g>
<!-- 15&#45;&gt;53 -->
<g id="edge120" class="edge">
<title>15&#45;&gt;53</title>
<path fill="none" stroke="grey" stroke-width="2" d="M410.71,-588.37C454.65,-584.57 519.43,-579.31 576.02,-576 1071.16,-547.07 1667.57,-530.21 1875.3,-524.86"/>
<polygon fill="grey" stroke="grey" stroke-width="2" points="1875.58,-528.36 1885.49,-524.6 1875.4,-521.36 1875.58,-528.36"/>
</g>
<!-- 16&#45;&gt;15 -->
<g id="edge36" class="edge">
<title>16&#45;&gt;15</title>
<path fill="none" stroke="grey" stroke-width="2" d="M181.74,-791.9C167.15,-783.37 152.17,-771.51 144.02,-756 136.57,-741.84 136.04,-733.87 144.02,-720 176.79,-663.04 246.58,-629.63 297.79,-611.9"/>
<polygon fill="grey" stroke="grey" stroke-width="2" points="299.08,-615.16 307.45,-608.66 296.86,-608.52 299.08,-615.16"/>
</g>
<!-- 16&#45;&gt;20 -->
<g id="edge45" class="edge">
<title>16&#45;&gt;20</title>
<path fill="none" stroke="grey" stroke-width="2" d="M188.49,-791.98C175.23,-783.18 161.32,-771.09 154.02,-756 147.05,-741.6 144.33,-732.74 154.02,-720 168.21,-701.33 221.44,-687.52 268.11,-678.68"/>
<polygon fill="grey" stroke="grey" stroke-width="2" points="268.75,-682.12 277.95,-676.87 267.48,-675.24 268.75,-682.12"/>
</g>
<!-- 21 -->
<g id="node22" class="node">
<title>21</title>
<path fill="none" stroke="#d8c356" stroke-width="2" stroke-dasharray="5,2" d="M321.02,-756C321.02,-756 175.02,-756 175.02,-756 169.02,-756 163.02,-750 163.02,-744 163.02,-744 163.02,-732 163.02,-732 163.02,-726 169.02,-720 175.02,-720 175.02,-720 321.02,-720 321.02,-720 327.02,-720 333.02,-726 333.02,-732 333.02,-732 333.02,-744 333.02,-744 333.02,-750 327.02,-756 321.02,-756"/>
<text text-anchor="middle" x="248.02" y="-741" font-family="sans" font-size="10.00">bai</text>
<text text-anchor="middle" x="248.02" y="-730" font-family="sans" font-size="10.00">prefix: results/picard/sample1.2</text>
</g>
<!-- 16&#45;&gt;21 -->
<g id="edge51" class="edge">
<title>16&#45;&gt;21</title>
<path fill="none" stroke="grey" stroke-width="2" d="M227.69,-791.7C230.73,-783.81 234.4,-774.3 237.78,-765.55"/>
<polygon fill="grey" stroke="grey" stroke-width="2" points="241.09,-766.69 241.42,-756.1 234.55,-764.17 241.09,-766.69"/>
</g>
<!-- 17&#45;&gt;16 -->
<g id="edge39" class="edge">
<title>17&#45;&gt;16</title>
<path fill="none" stroke="grey" stroke-width="2" d="M273.71,-863.7C265.15,-855.14 254.67,-844.66 245.32,-835.3"/>
<polygon fill="grey" stroke="grey" stroke-width="2" points="247.67,-832.7 238.12,-828.1 242.72,-837.65 247.67,-832.7"/>
</g>
<!-- 18 -->
<g id="node19" class="node">
<title>18</title>
<path fill="none" stroke="#56d892" stroke-width="2" stroke-dasharray="5,2" d="M73.02,-972C73.02,-972 43.02,-972 43.02,-972 37.02,-972 31.02,-966 31.02,-960 31.02,-960 31.02,-948 31.02,-948 31.02,-942 37.02,-936 43.02,-936 43.02,-936 73.02,-936 73.02,-936 79.02,-936 85.02,-942 85.02,-948 85.02,-948 85.02,-960 85.02,-960 85.02,-966 79.02,-972 73.02,-972"/>
<text text-anchor="middle" x="58.02" y="-951.5" font-family="sans" font-size="10.00">fastp</text>
</g>
<!-- 18&#45;&gt;17 -->
<g id="edge41" class="edge">
<title>18&#45;&gt;17</title>
<path fill="none" stroke="grey" stroke-width="2" d="M85.2,-944.83C122.97,-933.49 192.04,-912.74 239.68,-898.42"/>
<polygon fill="grey" stroke="grey" stroke-width="2" points="240.93,-901.7 249.5,-895.47 238.91,-895 240.93,-901.7"/>
</g>
<!-- 19 -->
<g id="node20" class="node">
<title>19</title>
<path fill="none" stroke="#d88d56" stroke-width="2" stroke-dasharray="5,2" d="M96.52,-1049C96.52,-1049 19.52,-1049 19.52,-1049 13.52,-1049 7.52,-1043 7.52,-1037 7.52,-1037 7.52,-1020 7.52,-1020 7.52,-1014 13.52,-1008 19.52,-1008 19.52,-1008 96.52,-1008 96.52,-1008 102.52,-1008 108.52,-1014 108.52,-1020 108.52,-1020 108.52,-1037 108.52,-1037 108.52,-1043 102.52,-1049 96.52,-1049"/>
<text text-anchor="middle" x="58.02" y="-1037" font-family="sans" font-size="10.00">reads_link_pe</text>
<text text-anchor="middle" x="58.02" y="-1026" font-family="sans" font-size="10.00">library: 2</text>
<text text-anchor="middle" x="58.02" y="-1015" font-family="sans" font-size="10.00">sample: sample1</text>
</g>
<!-- 19&#45;&gt;18 -->
<g id="edge44" class="edge">
<title>19&#45;&gt;18</title>
<path fill="none" stroke="grey" stroke-width="2" d="M58.02,-1007.69C58.02,-999.91 58.02,-990.84 58.02,-982.45"/>
<polygon fill="grey" stroke="grey" stroke-width="2" points="61.52,-982.32 58.02,-972.32 54.52,-982.32 61.52,-982.32"/>
</g>
<!-- 20&#45;&gt;15 -->
<g id="edge38" class="edge">
<title>20&#45;&gt;15</title>
<path fill="none" stroke="grey" stroke-width="2" d="M348.48,-647.7C350.02,-639.98 351.87,-630.71 353.59,-622.11"/>
<polygon fill="grey" stroke="grey" stroke-width="2" points="357.07,-622.6 355.59,-612.1 350.2,-621.22 357.07,-622.6"/>
</g>
<!-- 21&#45;&gt;20 -->
<g id="edge46" class="edge">
<title>21&#45;&gt;20</title>
<path fill="none" stroke="grey" stroke-width="2" d="M271.99,-719.7C284.33,-710.8 299.53,-699.82 312.87,-690.2"/>
<polygon fill="grey" stroke="grey" stroke-width="2" points="315.25,-692.79 321.31,-684.1 311.16,-687.12 315.25,-692.79"/>
</g>
<!-- 22&#45;&gt;2 -->
<g id="edge6" class="edge">
<title>22&#45;&gt;2</title>
<path fill="none" stroke="grey" stroke-width="2" d="M631.75,-575.7C624.16,-549.14 611.02,-496.61 611.02,-451 611.02,-451 611.02,-451 611.02,-305 611.02,-239.19 809.18,-195.11 923.36,-175.18"/>
<polygon fill="grey" stroke="grey" stroke-width="2" points="924.2,-178.59 933.46,-173.44 923.01,-171.69 924.2,-178.59"/>
</g>
<!-- 45 -->
<g id="node46" class="node">
<title>45</title>
<path fill="none" stroke="#d8c356" stroke-width="2" stroke-dasharray="5,2" d="M813.02,-324C813.02,-324 651.02,-324 651.02,-324 645.02,-324 639.02,-318 639.02,-312 639.02,-312 639.02,-300 639.02,-300 639.02,-294 645.02,-288 651.02,-288 651.02,-288 813.02,-288 813.02,-288 819.02,-288 825.02,-294 825.02,-300 825.02,-300 825.02,-312 825.02,-312 825.02,-318 819.02,-324 813.02,-324"/>
<text text-anchor="middle" x="732.02" y="-309" font-family="sans" font-size="10.00">bai</text>
<text text-anchor="middle" x="732.02" y="-298" font-family="sans" font-size="10.00">prefix: results/gatk/sample2.1.bqsr</text>
</g>
<!-- 22&#45;&gt;45 -->
<g id="edge102" class="edge">
<title>22&#45;&gt;45</title>
<path fill="none" stroke="grey" stroke-width="2" d="M642.67,-575.97C658.58,-528.09 703.76,-392.06 723.08,-333.9"/>
<polygon fill="grey" stroke="grey" stroke-width="2" points="726.44,-334.9 726.27,-324.31 719.79,-332.69 726.44,-334.9"/>
</g>
<!-- 22&#45;&gt;54 -->
<g id="edge122" class="edge">
<title>22&#45;&gt;54</title>
<path fill="none" stroke="grey" stroke-width="2" d="M688.7,-590.89C768.7,-587.63 927.35,-581.21 1062.02,-576 1487.09,-559.56 1599.23,-595.67 2024.27,-540.09"/>
<polygon fill="grey" stroke="grey" stroke-width="2" points="2024.91,-543.53 2034.37,-538.76 2023.99,-536.59 2024.91,-543.53"/>
</g>
<!-- 23&#45;&gt;22 -->
<g id="edge52" class="edge">
<title>23&#45;&gt;22</title>
<path fill="none" stroke="grey" stroke-width="2" d="M507.38,-791.86C505.27,-760.25 505.1,-691.97 537.02,-648 546.86,-634.44 561.25,-624.03 576.05,-616.18"/>
<polygon fill="grey" stroke="grey" stroke-width="2" points="577.88,-619.18 585.29,-611.61 574.78,-612.9 577.88,-619.18"/>
</g>
<!-- 23&#45;&gt;27 -->
<g id="edge61" class="edge">
<title>23&#45;&gt;27</title>
<path fill="none" stroke="grey" stroke-width="2" d="M517.64,-791.87C528.02,-772.57 546.95,-741.13 570.02,-720 583.41,-707.73 600.15,-697.15 615.77,-688.74"/>
<polygon fill="grey" stroke="grey" stroke-width="2" points="617.54,-691.76 624.8,-684.04 614.32,-685.55 617.54,-691.76"/>
</g>
<!-- 28 -->
<g id="node29" class="node">
<title>28</title>
<path fill="none" stroke="#d8c356" stroke-width="2" stroke-dasharray="5,2" d="M737.02,-756C737.02,-756 591.02,-756 591.02,-756 585.02,-756 579.02,-750 579.02,-744 579.02,-744 579.02,-732 579.02,-732 579.02,-726 585.02,-720 591.02,-720 591.02,-720 737.02,-720 737.02,-720 743.02,-720 749.02,-726 749.02,-732 749.02,-732 749.02,-744 749.02,-744 749.02,-750 743.02,-756 737.02,-756"/>
<text text-anchor="middle" x="664.02" y="-741" font-family="sans" font-size="10.00">bai</text>
<text text-anchor="middle" x="664.02" y="-730" font-family="sans" font-size="10.00">prefix: results/picard/sample2.1</text>
</g>
<!-- 23&#45;&gt;28 -->
<g id="edge67" class="edge">
<title>23&#45;&gt;28</title>
<path fill="none" stroke="grey" stroke-width="2" d="M546.93,-791.88C568.03,-782.35 594.47,-770.41 616.89,-760.28"/>
<polygon fill="grey" stroke="grey" stroke-width="2" points="618.55,-763.37 626.22,-756.07 615.67,-756.99 618.55,-763.37"/>
</g>
<!-- 24&#45;&gt;23 -->
<g id="edge55" class="edge">
<title>24&#45;&gt;23</title>
<path fill="none" stroke="grey" stroke-width="2" d="M561.71,-863.7C553.15,-855.14 542.67,-844.66 533.32,-835.3"/>
<polygon fill="grey" stroke="grey" stroke-width="2" points="535.67,-832.7 526.12,-828.1 530.72,-837.65 535.67,-832.7"/>
</g>
<!-- 25 -->
<g id="node26" class="node">
<title>25</title>
<path fill="none" stroke="#56d892" stroke-width="2" stroke-dasharray="5,2" d="M431.02,-972C431.02,-972 401.02,-972 401.02,-972 395.02,-972 389.02,-966 389.02,-960 389.02,-960 389.02,-948 389.02,-948 389.02,-942 395.02,-936 401.02,-936 401.02,-936 431.02,-936 431.02,-936 437.02,-936 443.02,-942 443.02,-948 443.02,-948 443.02,-960 443.02,-960 443.02,-966 437.02,-972 431.02,-972"/>
<text text-anchor="middle" x="416.02" y="-951.5" font-family="sans" font-size="10.00">fastp</text>
</g>
<!-- 25&#45;&gt;24 -->
<g id="edge57" class="edge">
<title>25&#45;&gt;24</title>
<path fill="none" stroke="grey" stroke-width="2" d="M443.3,-941.28C466.91,-931.14 501.64,-916.23 530.05,-904.03"/>
<polygon fill="grey" stroke="grey" stroke-width="2" points="531.61,-907.17 539.42,-900 528.85,-900.73 531.61,-907.17"/>
</g>
<!-- 26 -->
<g id="node27" class="node">
<title>26</title>
<path fill="none" stroke="#d88d56" stroke-width="2" stroke-dasharray="5,2" d="M454.52,-1049C454.52,-1049 377.52,-1049 377.52,-1049 371.52,-1049 365.52,-1043 365.52,-1037 365.52,-1037 365.52,-1020 365.52,-1020 365.52,-1014 371.52,-1008 377.52,-1008 377.52,-1008 454.52,-1008 454.52,-1008 460.52,-1008 466.52,-1014 466.52,-1020 466.52,-1020 466.52,-1037 466.52,-1037 466.52,-1043 460.52,-1049 454.52,-1049"/>
<text text-anchor="middle" x="416.02" y="-1037" font-family="sans" font-size="10.00">reads_link_pe</text>
<text text-anchor="middle" x="416.02" y="-1026" font-family="sans" font-size="10.00">library: 1</text>
<text text-anchor="middle" x="416.02" y="-1015" font-family="sans" font-size="10.00">sample: sample2</text>
</g>
<!-- 26&#45;&gt;25 -->
<g id="edge60" class="edge">
<title>26&#45;&gt;25</title>
<path fill="none" stroke="grey" stroke-width="2" d="M416.02,-1007.69C416.02,-999.91 416.02,-990.84 416.02,-982.45"/>
<polygon fill="grey" stroke="grey" stroke-width="2" points="419.52,-982.32 416.02,-972.32 412.52,-982.32 419.52,-982.32"/>
</g>
<!-- 27&#45;&gt;22 -->
<g id="edge54" class="edge">
<title>27&#45;&gt;22</title>
<path fill="none" stroke="grey" stroke-width="2" d="M657.34,-647.7C654.3,-639.81 650.63,-630.3 647.26,-621.55"/>
<polygon fill="grey" stroke="grey" stroke-width="2" points="650.48,-620.17 643.61,-612.1 643.95,-622.69 650.48,-620.17"/>
</g>
<!-- 28&#45;&gt;27 -->
<g id="edge62" class="edge">
<title>28&#45;&gt;27</title>
<path fill="none" stroke="grey" stroke-width="2" d="M664.02,-719.7C664.02,-711.98 664.02,-702.71 664.02,-694.11"/>
<polygon fill="grey" stroke="grey" stroke-width="2" points="667.52,-694.1 664.02,-684.1 660.52,-694.1 667.52,-694.1"/>
</g>
<!-- 29&#45;&gt;2 -->
<g id="edge7" class="edge">
<title>29&#45;&gt;2</title>
<path fill="none" stroke="grey" stroke-width="2" d="M1093.73,-575.97C1057.91,-552.7 1002.02,-507.36 1002.02,-451 1002.02,-451 1002.02,-451 1002.02,-305 1002.02,-265 1002.02,-218.65 1002.02,-190.08"/>
<polygon fill="grey" stroke="grey" stroke-width="2" points="1005.52,-190.05 1002.02,-180.05 998.52,-190.05 1005.52,-190.05"/>
</g>
<!-- 46 -->
<g id="node47" class="node">
<title>46</title>
<path fill="none" stroke="#d8c356" stroke-width="2" stroke-dasharray="5,2" d="M1204.02,-252C1204.02,-252 1042.02,-252 1042.02,-252 1036.02,-252 1030.02,-246 1030.02,-240 1030.02,-240 1030.02,-228 1030.02,-228 1030.02,-222 1036.02,-216 1042.02,-216 1042.02,-216 1204.02,-216 1204.02,-216 1210.02,-216 1216.02,-222 1216.02,-228 1216.02,-228 1216.02,-240 1216.02,-240 1216.02,-246 1210.02,-252 1204.02,-252"/>
<text text-anchor="middle" x="1123.02" y="-237" font-family="sans" font-size="10.00">bai</text>
<text text-anchor="middle" x="1123.02" y="-226" font-family="sans" font-size="10.00">prefix: results/gatk/sample3.1.bqsr</text>
</g>
<!-- 29&#45;&gt;46 -->
<g id="edge103" class="edge">
<title>29&#45;&gt;46</title>
<path fill="none" stroke="grey" stroke-width="2" d="M1123.02,-575.95C1123.02,-549.29 1123.02,-496.11 1123.02,-451 1123.02,-451 1123.02,-451 1123.02,-377 1123.02,-337 1123.02,-290.65 1123.02,-262.08"/>
<polygon fill="grey" stroke="grey" stroke-width="2" points="1126.52,-262.05 1123.02,-252.05 1119.52,-262.05 1126.52,-262.05"/>
</g>
<!-- 29&#45;&gt;55 -->
<g id="edge124" class="edge">
<title>29&#45;&gt;55</title>
<path fill="none" stroke="grey" stroke-width="2" d="M1174.82,-591.59C1355.58,-586.51 1958.51,-567.94 2173.13,-540.09"/>
<polygon fill="grey" stroke="grey" stroke-width="2" points="2173.92,-543.51 2183.36,-538.71 2172.98,-536.58 2173.92,-543.51"/>
</g>
<!-- 30&#45;&gt;29 -->
<g id="edge68" class="edge">
<title>30&#45;&gt;29</title>
<path fill="none" stroke="grey" stroke-width="2" d="M1200.85,-791.64C1185.02,-768.25 1157.54,-724.82 1142.02,-684 1134.4,-663.97 1129.52,-640.19 1126.62,-622.24"/>
<polygon fill="grey" stroke="grey" stroke-width="2" points="1130.05,-621.54 1125.09,-612.17 1123.13,-622.58 1130.05,-621.54"/>
</g>
<!-- 30&#45;&gt;34 -->
<g id="edge77" class="edge">
<title>30&#45;&gt;34</title>
<path fill="none" stroke="grey" stroke-width="2" d="M1213.62,-791.87C1214.47,-767.67 1216.04,-723.21 1217.05,-694.39"/>
<polygon fill="grey" stroke="grey" stroke-width="2" points="1220.56,-694.31 1217.41,-684.19 1213.56,-694.06 1220.56,-694.31"/>
</g>
<!-- 35 -->
<g id="node36" class="node">
<title>35</title>
<path fill="none" stroke="#d8c356" stroke-width="2" stroke-dasharray="5,2" d="M1385.02,-756C1385.02,-756 1239.02,-756 1239.02,-756 1233.02,-756 1227.02,-750 1227.02,-744 1227.02,-744 1227.02,-732 1227.02,-732 1227.02,-726 1233.02,-720 1239.02,-720 1239.02,-720 1385.02,-720 1385.02,-720 1391.02,-720 1397.02,-726 1397.02,-732 1397.02,-732 1397.02,-744 1397.02,-744 1397.02,-750 1391.02,-756 1385.02,-756"/>
<text text-anchor="middle" x="1312.02" y="-741" font-family="sans" font-size="10.00">bai</text>
<text text-anchor="middle" x="1312.02" y="-730" font-family="sans" font-size="10.00">prefix: results/picard/sample3.1</text>
</g>
<!-- 30&#45;&gt;35 -->
<g id="edge83" class="edge">
<title>30&#45;&gt;35</title>
<path fill="none" stroke="grey" stroke-width="2" d="M1237.23,-791.88C1249.94,-782.89 1265.68,-771.76 1279.44,-762.03"/>
<polygon fill="grey" stroke="grey" stroke-width="2" points="1281.56,-764.82 1287.7,-756.19 1277.52,-759.11 1281.56,-764.82"/>
</g>
<!-- 31&#45;&gt;30 -->
<g id="edge71" class="edge">
<title>31&#45;&gt;30</title>
<path fill="none" stroke="grey" stroke-width="2" d="M1265.71,-863.7C1257.15,-855.14 1246.67,-844.66 1237.32,-835.3"/>
<polygon fill="grey" stroke="grey" stroke-width="2" points="1239.67,-832.7 1230.12,-828.1 1234.72,-837.65 1239.67,-832.7"/>
</g>
<!-- 32 -->
<g id="node33" class="node">
<title>32</title>
<path fill="none" stroke="#56d892" stroke-width="2" stroke-dasharray="5,2" d="M737.02,-972C737.02,-972 707.02,-972 707.02,-972 701.02,-972 695.02,-966 695.02,-960 695.02,-960 695.02,-948 695.02,-948 695.02,-942 701.02,-936 707.02,-936 707.02,-936 737.02,-936 737.02,-936 743.02,-936 749.02,-942 749.02,-948 749.02,-948 749.02,-960 749.02,-960 749.02,-966 743.02,-972 737.02,-972"/>
<text text-anchor="middle" x="722.02" y="-951.5" font-family="sans" font-size="10.00">fastp</text>
</g>
<!-- 32&#45;&gt;31 -->
<g id="edge73" class="edge">
<title>32&#45;&gt;31</title>
<path fill="none" stroke="grey" stroke-width="2" d="M749.07,-949.62C836.93,-938.66 1115.19,-903.94 1231.32,-889.45"/>
<polygon fill="grey" stroke="grey" stroke-width="2" points="1231.89,-892.91 1241.38,-888.19 1231.03,-885.96 1231.89,-892.91"/>
</g>
<!-- 33 -->
<g id="node34" class="node">
<title>33</title>
<path fill="none" stroke="#d88d56" stroke-width="2" stroke-dasharray="5,2" d="M760.52,-1049C760.52,-1049 683.52,-1049 683.52,-1049 677.52,-1049 671.52,-1043 671.52,-1037 671.52,-1037 671.52,-1020 671.52,-1020 671.52,-1014 677.52,-1008 683.52,-1008 683.52,-1008 760.52,-1008 760.52,-1008 766.52,-1008 772.52,-1014 772.52,-1020 772.52,-1020 772.52,-1037 772.52,-1037 772.52,-1043 766.52,-1049 760.52,-1049"/>
<text text-anchor="middle" x="722.02" y="-1037" font-family="sans" font-size="10.00">reads_link_pe</text>
<text text-anchor="middle" x="722.02" y="-1026" font-family="sans" font-size="10.00">library: 1</text>
<text text-anchor="middle" x="722.02" y="-1015" font-family="sans" font-size="10.00">sample: sample3</text>
</g>
<!-- 33&#45;&gt;32 -->
<g id="edge76" class="edge">
<title>33&#45;&gt;32</title>
<path fill="none" stroke="grey" stroke-width="2" d="M722.02,-1007.69C722.02,-999.91 722.02,-990.84 722.02,-982.45"/>
<polygon fill="grey" stroke="grey" stroke-width="2" points="725.52,-982.32 722.02,-972.32 718.52,-982.32 725.52,-982.32"/>
</g>
<!-- 34&#45;&gt;29 -->
<g id="edge70" class="edge">
<title>34&#45;&gt;29</title>
<path fill="none" stroke="grey" stroke-width="2" d="M1194.53,-647.7C1182.45,-638.8 1167.56,-627.82 1154.5,-618.2"/>
<polygon fill="grey" stroke="grey" stroke-width="2" points="1156.36,-615.22 1146.23,-612.1 1152.2,-620.85 1156.36,-615.22"/>
</g>
<!-- 35&#45;&gt;34 -->
<g id="edge78" class="edge">
<title>35&#45;&gt;34</title>
<path fill="none" stroke="grey" stroke-width="2" d="M1288.78,-719.7C1276.83,-710.8 1262.09,-699.82 1249.17,-690.2"/>
<polygon fill="grey" stroke="grey" stroke-width="2" points="1251.1,-687.27 1240.98,-684.1 1246.91,-692.88 1251.1,-687.27"/>
</g>
<!-- 36&#45;&gt;2 -->
<g id="edge8" class="edge">
<title>36&#45;&gt;2</title>
<path fill="none" stroke="grey" stroke-width="2" d="M2123.27,-588.79C2042.5,-581.55 1890.76,-565.06 1843.02,-540 1794.58,-514.58 1758.02,-505.7 1758.02,-451 1758.02,-451 1758.02,-451 1758.02,-305 1758.02,-154.86 1251.8,-204.42 1080.91,-179.92"/>
<polygon fill="grey" stroke="grey" stroke-width="2" points="1081.28,-176.43 1070.86,-178.32 1080.19,-183.35 1081.28,-176.43"/>
</g>
<!-- 47 -->
<g id="node48" class="node">
<title>47</title>
<path fill="none" stroke="#d8c356" stroke-width="2" stroke-dasharray="5,2" d="M1700.02,-468C1700.02,-468 1538.02,-468 1538.02,-468 1532.02,-468 1526.02,-462 1526.02,-456 1526.02,-456 1526.02,-444 1526.02,-444 1526.02,-438 1532.02,-432 1538.02,-432 1538.02,-432 1700.02,-432 1700.02,-432 1706.02,-432 1712.02,-438 1712.02,-444 1712.02,-444 1712.02,-456 1712.02,-456 1712.02,-462 1706.02,-468 1700.02,-468"/>
<text text-anchor="middle" x="1619.02" y="-453" font-family="sans" font-size="10.00">bai</text>
<text text-anchor="middle" x="1619.02" y="-442" font-family="sans" font-size="10.00">prefix: results/gatk/sample4.1.bqsr</text>
</g>
<!-- 36&#45;&gt;47 -->
<g id="edge104" class="edge">
<title>36&#45;&gt;47</title>
<path fill="none" stroke="grey" stroke-width="2" d="M2123.41,-589.84C2024.55,-583.26 1812.18,-566.48 1744.02,-540 1705.64,-525.09 1668.05,-495.75 1644.28,-474.84"/>
<polygon fill="grey" stroke="grey" stroke-width="2" points="1646.54,-472.17 1636.76,-468.1 1641.87,-477.38 1646.54,-472.17"/>
</g>
<!-- 36&#45;&gt;56 -->
<g id="edge126" class="edge">
<title>36&#45;&gt;56</title>
<path fill="none" stroke="grey" stroke-width="2" d="M2226.58,-584.63C2284.02,-575.13 2379.86,-558.74 2471.31,-540.3"/>
<polygon fill="grey" stroke="grey" stroke-width="2" points="2472.18,-543.7 2481.29,-538.28 2470.79,-536.84 2472.18,-543.7"/>
</g>
<!-- 37&#45;&gt;36 -->
<g id="edge84" class="edge">
<title>37&#45;&gt;36</title>
<path fill="none" stroke="grey" stroke-width="2" d="M2275.66,-791.96C2292.16,-783.8 2308.57,-772.18 2318.02,-756 2326.09,-742.18 2324.63,-734.57 2318.02,-720 2297.24,-674.25 2250.53,-638.67 2216.12,-617.37"/>
<polygon fill="grey" stroke="grey" stroke-width="2" points="2217.59,-614.17 2207.22,-612.01 2213.98,-620.17 2217.59,-614.17"/>
</g>
<!-- 37&#45;&gt;41 -->
<g id="edge93" class="edge">
<title>37&#45;&gt;41</title>
<path fill="none" stroke="grey" stroke-width="2" d="M2174.34,-791.84C2157.63,-783.59 2140.56,-771.94 2130.02,-756 2118.05,-737.92 2116.15,-713.14 2116.91,-694.32"/>
<polygon fill="grey" stroke="grey" stroke-width="2" points="2120.4,-694.5 2117.57,-684.28 2113.42,-694.03 2120.4,-694.5"/>
</g>
<!-- 42 -->
<g id="node43" class="node">
<title>42</title>
<path fill="none" stroke="#d8c356" stroke-width="2" stroke-dasharray="5,2" d="M2297.02,-756C2297.02,-756 2151.02,-756 2151.02,-756 2145.02,-756 2139.02,-750 2139.02,-744 2139.02,-744 2139.02,-732 2139.02,-732 2139.02,-726 2145.02,-720 2151.02,-720 2151.02,-720 2297.02,-720 2297.02,-720 2303.02,-720 2309.02,-726 2309.02,-732 2309.02,-732 2309.02,-744 2309.02,-744 2309.02,-750 2303.02,-756 2297.02,-756"/>
<text text-anchor="middle" x="2224.02" y="-741" font-family="sans" font-size="10.00">bai</text>
<text text-anchor="middle" x="2224.02" y="-730" font-family="sans" font-size="10.00">prefix: results/picard/sample4.1</text>
</g>
<!-- 37&#45;&gt;42 -->
<g id="edge99" class="edge">
<title>37&#45;&gt;42</title>
<path fill="none" stroke="grey" stroke-width="2" d="M2224.02,-791.7C2224.02,-783.98 2224.02,-774.71 2224.02,-766.11"/>
<polygon fill="grey" stroke="grey" stroke-width="2" points="2227.52,-766.1 2224.02,-756.1 2220.52,-766.1 2227.52,-766.1"/>
</g>
<!-- 38&#45;&gt;37 -->
<g id="edge87" class="edge">
<title>38&#45;&gt;37</title>
<path fill="none" stroke="grey" stroke-width="2" d="M2182.61,-863.7C2189.14,-855.39 2197.08,-845.28 2204.26,-836.14"/>
<polygon fill="grey" stroke="grey" stroke-width="2" points="2207.15,-838.13 2210.58,-828.1 2201.65,-833.81 2207.15,-838.13"/>
</g>
<!-- 39 -->
<g id="node40" class="node">
<title>39</title>
<path fill="none" stroke="#56d892" stroke-width="2" stroke-dasharray="5,2" d="M2749.02,-972C2749.02,-972 2719.02,-972 2719.02,-972 2713.02,-972 2707.02,-966 2707.02,-960 2707.02,-960 2707.02,-948 2707.02,-948 2707.02,-942 2713.02,-936 2719.02,-936 2719.02,-936 2749.02,-936 2749.02,-936 2755.02,-936 2761.02,-942 2761.02,-948 2761.02,-948 2761.02,-960 2761.02,-960 2761.02,-966 2755.02,-972 2749.02,-972"/>
<text text-anchor="middle" x="2734.02" y="-951.5" font-family="sans" font-size="10.00">fastp</text>
</g>
<!-- 39&#45;&gt;38 -->
<g id="edge89" class="edge">
<title>39&#45;&gt;38</title>
<path fill="none" stroke="grey" stroke-width="2" d="M2706.76,-949.62C2618.18,-938.65 2337.36,-903.86 2220.66,-889.4"/>
<polygon fill="grey" stroke="grey" stroke-width="2" points="2220.9,-885.9 2210.55,-888.15 2220.04,-892.85 2220.9,-885.9"/>
</g>
<!-- 40 -->
<g id="node41" class="node">
<title>40</title>
<path fill="none" stroke="#d88d56" stroke-width="2" stroke-dasharray="5,2" d="M2772.52,-1049C2772.52,-1049 2695.52,-1049 2695.52,-1049 2689.52,-1049 2683.52,-1043 2683.52,-1037 2683.52,-1037 2683.52,-1020 2683.52,-1020 2683.52,-1014 2689.52,-1008 2695.52,-1008 2695.52,-1008 2772.52,-1008 2772.52,-1008 2778.52,-1008 2784.52,-1014 2784.52,-1020 2784.52,-1020 2784.52,-1037 2784.52,-1037 2784.52,-1043 2778.52,-1049 2772.52,-1049"/>
<text text-anchor="middle" x="2734.02" y="-1037" font-family="sans" font-size="10.00">reads_link_pe</text>
<text text-anchor="middle" x="2734.02" y="-1026" font-family="sans" font-size="10.00">library: 1</text>
<text text-anchor="middle" x="2734.02" y="-1015" font-family="sans" font-size="10.00">sample: sample4</text>
</g>
<!-- 40&#45;&gt;39 -->
<g id="edge92" class="edge">
<title>40&#45;&gt;39</title>
<path fill="none" stroke="grey" stroke-width="2" d="M2734.02,-1007.69C2734.02,-999.91 2734.02,-990.84 2734.02,-982.45"/>
<polygon fill="grey" stroke="grey" stroke-width="2" points="2737.52,-982.32 2734.02,-972.32 2730.52,-982.32 2737.52,-982.32"/>
</g>
<!-- 41&#45;&gt;36 -->
<g id="edge86" class="edge">
<title>41&#45;&gt;36</title>
<path fill="none" stroke="grey" stroke-width="2" d="M2133.61,-647.7C2140.14,-639.39 2148.08,-629.28 2155.26,-620.14"/>
<polygon fill="grey" stroke="grey" stroke-width="2" points="2158.15,-622.13 2161.58,-612.1 2152.65,-617.81 2158.15,-622.13"/>
</g>
<!-- 42&#45;&gt;41 -->
<g id="edge94" class="edge">
<title>42&#45;&gt;41</title>
<path fill="none" stroke="grey" stroke-width="2" d="M2198.57,-719.88C2185.23,-710.89 2168.69,-699.76 2154.24,-690.03"/>
<polygon fill="grey" stroke="grey" stroke-width="2" points="2155.81,-686.87 2145.55,-684.19 2151.9,-692.68 2155.81,-686.87"/>
</g>
<!-- 43&#45;&gt;2 -->
<g id="edge9" class="edge">
<title>43&#45;&gt;2</title>
<path fill="none" stroke="grey" stroke-width="2" d="M1376.19,-431.95C1368.01,-388.35 1340.08,-272.29 1267.02,-216 1202.46,-166.26 1165.72,-194.7 1080.92,-180.01"/>
<polygon fill="grey" stroke="grey" stroke-width="2" points="1081.38,-176.53 1070.9,-178.11 1080.07,-183.41 1081.38,-176.53"/>
</g>
<!-- 44&#45;&gt;2 -->
<g id="edge10" class="edge">
<title>44&#45;&gt;2</title>
<path fill="none" stroke="grey" stroke-width="2" d="M381.17,-359.89C404.5,-325.74 462.12,-249.53 532.02,-216 599.21,-183.76 807.42,-170.6 922.88,-165.66"/>
<polygon fill="grey" stroke="grey" stroke-width="2" points="923.23,-169.15 933.08,-165.24 922.94,-162.16 923.23,-169.15"/>
</g>
<!-- 45&#45;&gt;2 -->
<g id="edge11" class="edge">
<title>45&#45;&gt;2</title>
<path fill="none" stroke="grey" stroke-width="2" d="M748.3,-287.98C768.08,-268.19 803.26,-235.72 839.02,-216 865.24,-201.54 896.03,-190.25 923.75,-181.89"/>
<polygon fill="grey" stroke="grey" stroke-width="2" points="924.81,-185.22 933.42,-179.05 922.83,-178.51 924.81,-185.22"/>
</g>
<!-- 46&#45;&gt;2 -->
<g id="edge12" class="edge">
<title>46&#45;&gt;2</title>
<path fill="none" stroke="grey" stroke-width="2" d="M1093.42,-215.88C1077.45,-206.64 1057.56,-195.13 1040.41,-185.21"/>
<polygon fill="grey" stroke="grey" stroke-width="2" points="1042.14,-182.17 1031.73,-180.19 1038.63,-188.23 1042.14,-182.17"/>
</g>
<!-- 47&#45;&gt;2 -->
<g id="edge13" class="edge">
<title>47&#45;&gt;2</title>
<path fill="none" stroke="grey" stroke-width="2" d="M1601.78,-431.74C1556.62,-387.64 1429.3,-270.49 1299.02,-216 1210.95,-179.17 1178.97,-197.24 1080.9,-180.05"/>
<polygon fill="grey" stroke="grey" stroke-width="2" points="1081.35,-176.57 1070.88,-178.21 1080.08,-183.46 1081.35,-176.57"/>
</g>
<!-- 48&#45;&gt;2 -->
<g id="edge14" class="edge">
<title>48&#45;&gt;2</title>
<path fill="none" stroke="grey" stroke-width="2" d="M1791.28,-218.87C1784.79,-217.77 1778.29,-216.79 1772.02,-216 1469.72,-178.11 1387.03,-220.01 1080.87,-179.96"/>
<polygon fill="grey" stroke="grey" stroke-width="2" points="1081.19,-176.47 1070.81,-178.63 1080.26,-183.41 1081.19,-176.47"/>
</g>
<!-- 49&#45;&gt;48 -->
<g id="edge106" class="edge">
<title>49&#45;&gt;48</title>
<path fill="none" stroke="grey" stroke-width="2" d="M2439.48,-294.78C2301.93,-280.67 2056.74,-255.5 1932.96,-242.79"/>
<polygon fill="grey" stroke="grey" stroke-width="2" points="1933.12,-239.29 1922.81,-241.75 1932.4,-246.26 1933.12,-239.29"/>
</g>
<!-- 50&#45;&gt;49 -->
<g id="edge107" class="edge">
<title>50&#45;&gt;49</title>
<path fill="none" stroke="grey" stroke-width="2" d="M2539.02,-359.7C2539.02,-351.98 2539.02,-342.71 2539.02,-334.11"/>
<polygon fill="grey" stroke="grey" stroke-width="2" points="2542.52,-334.1 2539.02,-324.1 2535.52,-334.1 2542.52,-334.1"/>
</g>
<!-- 51&#45;&gt;50 -->
<g id="edge109" class="edge">
<title>51&#45;&gt;50</title>
<path fill="none" stroke="grey" stroke-width="2" d="M2432.51,-431.88C2451.46,-422.47 2475.15,-410.71 2495.37,-400.67"/>
<polygon fill="grey" stroke="grey" stroke-width="2" points="2496.99,-403.77 2504.39,-396.19 2493.88,-397.5 2496.99,-403.77"/>
</g>
<!-- 52&#45;&gt;51 -->
<g id="edge111" class="edge">
<title>52&#45;&gt;51</title>
<path fill="none" stroke="grey" stroke-width="2" d="M2398.02,-503.7C2398.02,-495.98 2398.02,-486.71 2398.02,-478.11"/>
<polygon fill="grey" stroke="grey" stroke-width="2" points="2401.52,-478.1 2398.02,-468.1 2394.52,-478.1 2401.52,-478.1"/>
</g>
<!-- 53&#45;&gt;51 -->
<g id="edge112" class="edge">
<title>53&#45;&gt;51</title>
<path fill="none" stroke="grey" stroke-width="2" d="M2016.8,-505.77C2019.91,-505.15 2023,-504.56 2026.02,-504 2129.72,-484.89 2250.78,-468.78 2325.93,-459.5"/>
<polygon fill="grey" stroke="grey" stroke-width="2" points="2326.72,-462.93 2336.22,-458.24 2325.87,-455.99 2326.72,-462.93"/>
</g>
<!-- 54&#45;&gt;51 -->
<g id="edge113" class="edge">
<title>54&#45;&gt;51</title>
<path fill="none" stroke="grey" stroke-width="2" d="M2165.78,-505.55C2213.41,-494.36 2277.74,-479.25 2326.61,-467.77"/>
<polygon fill="grey" stroke="grey" stroke-width="2" points="2327.55,-471.15 2336.49,-465.45 2325.95,-464.33 2327.55,-471.15"/>
</g>
<!-- 55&#45;&gt;51 -->
<g id="edge114" class="edge">
<title>55&#45;&gt;51</title>
<path fill="none" stroke="grey" stroke-width="2" d="M2285.47,-503.88C2305.65,-494.39 2330.94,-482.51 2352.42,-472.42"/>
<polygon fill="grey" stroke="grey" stroke-width="2" points="2354.12,-475.49 2361.68,-468.07 2351.15,-469.15 2354.12,-475.49"/>
</g>
<!-- 56&#45;&gt;51 -->
<g id="edge115" class="edge">
<title>56&#45;&gt;51</title>
<path fill="none" stroke="grey" stroke-width="2" d="M2510.57,-503.88C2490.38,-494.39 2465.09,-482.51 2443.61,-472.42"/>
<polygon fill="grey" stroke="grey" stroke-width="2" points="2444.89,-469.15 2434.35,-468.07 2441.91,-475.49 2444.89,-469.15"/>
</g>
<!-- 57 -->
<g id="node58" class="node">
<title>57</title>
<path fill="none" stroke="#61d856" stroke-width="2" stroke-dasharray="5,2" d="M1207.02,-180C1207.02,-180 1101.02,-180 1101.02,-180 1095.02,-180 1089.02,-174 1089.02,-168 1089.02,-168 1089.02,-156 1089.02,-156 1089.02,-150 1095.02,-144 1101.02,-144 1101.02,-144 1207.02,-144 1207.02,-144 1213.02,-144 1219.02,-150 1219.02,-156 1219.02,-156 1219.02,-168 1219.02,-168 1219.02,-174 1213.02,-180 1207.02,-180"/>
<text text-anchor="middle" x="1154.02" y="-165" font-family="sans" font-size="10.00">snpeff_download</text>
<text text-anchor="middle" x="1154.02" y="-154" font-family="sans" font-size="10.00">snpeff_db: GRCg6a.105</text>
</g>
<!-- 57&#45;&gt;1 -->
<g id="edge3" class="edge">
<title>57&#45;&gt;1</title>
<path fill="none" stroke="grey" stroke-width="2" d="M1135.23,-143.7C1125.84,-135.05 1114.33,-124.45 1104.1,-115.03"/>
<polygon fill="grey" stroke="grey" stroke-width="2" points="1106.31,-112.3 1096.59,-108.1 1101.57,-117.45 1106.31,-112.3"/>
</g>
</g>
</svg>
