<?xml version="1.0" encoding="UTF-8" standalone="no"?>
<!DOCTYPE svg PUBLIC "-//W3C//DTD SVG 1.1//EN"
 "http://www.w3.org/Graphics/SVG/1.1/DTD/svg11.dtd">
<!-- Generated by graphviz version 2.43.0 (0)
 -->
<!-- Title: snakemake_dag Pages: 1 -->
<svg width="1826pt" height="1268pt"
 viewBox="0.00 0.00 1825.89 1268.00" xmlns="http://www.w3.org/2000/svg" xmlns:xlink="http://www.w3.org/1999/xlink">
<g id="graph0" class="graph" transform="scale(1 1) rotate(0) translate(4 1264)">
<title>snakemake_dag</title>
<polygon fill="white" stroke="transparent" points="-4,4 -4,-1264 1821.89,-1264 1821.89,4 -4,4"/>
<!-- 0 -->
<g id="node1" class="node">
<title>0</title>
<path fill="none" stroke="#97d856" stroke-width="2" d="M661,-36C661,-36 631,-36 631,-36 625,-36 619,-30 619,-24 619,-24 619,-12 619,-12 619,-6 625,0 631,0 631,0 661,0 661,0 667,0 673,-6 673,-12 673,-12 673,-24 673,-24 673,-30 667,-36 661,-36"/>
<text text-anchor="middle" x="646" y="-15.5" font-family="sans" font-size="10.00">all</text>
</g>
<!-- 1 -->
<g id="node2" class="node">
<title>1</title>
<path fill="none" stroke="#78d856" stroke-width="2" d="M1518.5,-324C1518.5,-324 1471.5,-324 1471.5,-324 1465.5,-324 1459.5,-318 1459.5,-312 1459.5,-312 1459.5,-300 1459.5,-300 1459.5,-294 1465.5,-288 1471.5,-288 1471.5,-288 1518.5,-288 1518.5,-288 1524.5,-288 1530.5,-294 1530.5,-300 1530.5,-300 1530.5,-312 1530.5,-312 1530.5,-318 1524.5,-324 1518.5,-324"/>
<text text-anchor="middle" x="1495" y="-303.5" font-family="sans" font-size="10.00">swaps_plot</text>
</g>
<!-- 1&#45;&gt;0 -->
<g id="edge9" class="edge">
<title>1&#45;&gt;0</title>
<path fill="none" stroke="grey" stroke-width="2" d="M1466.68,-287.98C1392.9,-244.45 1187.48,-128.55 1001,-72 888.59,-37.91 749.24,-25.29 683.58,-21"/>
<polygon fill="grey" stroke="grey" stroke-width="2" points="683.51,-17.49 673.31,-20.36 683.07,-24.48 683.51,-17.49"/>
</g>
<!-- 2 -->
<g id="node3" class="node">
<title>2</title>
<path fill="none" stroke="#56d8d0" stroke-width="2" d="M1719,-540C1719,-540 1653,-540 1653,-540 1647,-540 1641,-534 1641,-528 1641,-528 1641,-516 1641,-516 1641,-510 1647,-504 1653,-504 1653,-504 1719,-504 1719,-504 1725,-504 1731,-510 1731,-516 1731,-516 1731,-528 1731,-528 1731,-534 1725,-540 1719,-540"/>
<text text-anchor="middle" x="1686" y="-519.5" font-family="sans" font-size="10.00">swaps_process</text>
</g>
<!-- 2&#45;&gt;1 -->
<g id="edge10" class="edge">
<title>2&#45;&gt;1</title>
<path fill="none" stroke="grey" stroke-width="2" d="M1675.72,-503.86C1664.31,-485.37 1644.86,-455.44 1625,-432 1592.76,-393.95 1550.32,-354.86 1522.84,-330.75"/>
<polygon fill="grey" stroke="grey" stroke-width="2" points="1525.01,-328 1515.17,-324.07 1520.41,-333.28 1525.01,-328"/>
</g>
<!-- 3 -->
<g id="node4" class="node">
<title>3</title>
<path fill="none" stroke="#d8d356" stroke-width="2" d="M1725,-612C1725,-612 1665,-612 1665,-612 1659,-612 1653,-606 1653,-600 1653,-600 1653,-588 1653,-588 1653,-582 1659,-576 1665,-576 1665,-576 1725,-576 1725,-576 1731,-576 1737,-582 1737,-588 1737,-588 1737,-600 1737,-600 1737,-606 1731,-612 1725,-612"/>
<text text-anchor="middle" x="1695" y="-591.5" font-family="sans" font-size="10.00">swaps_merge</text>
</g>
<!-- 3&#45;&gt;2 -->
<g id="edge11" class="edge">
<title>3&#45;&gt;2</title>
<path fill="none" stroke="grey" stroke-width="2" d="M1692.78,-575.7C1691.78,-567.98 1690.59,-558.71 1689.49,-550.11"/>
<polygon fill="grey" stroke="grey" stroke-width="2" points="1692.95,-549.58 1688.2,-540.1 1686,-550.47 1692.95,-549.58"/>
</g>
<!-- 4 -->
<g id="node5" class="node">
<title>4</title>
<path fill="none" stroke="#56d8c1" stroke-width="2" d="M1741,-684C1741,-684 1667,-684 1667,-684 1661,-684 1655,-678 1655,-672 1655,-672 1655,-660 1655,-660 1655,-654 1661,-648 1667,-648 1667,-648 1741,-648 1741,-648 1747,-648 1753,-654 1753,-660 1753,-660 1753,-672 1753,-672 1753,-678 1747,-684 1741,-684"/>
<text text-anchor="middle" x="1704" y="-663.5" font-family="sans" font-size="10.00">swaps_filter_one</text>
</g>
<!-- 4&#45;&gt;3 -->
<g id="edge12" class="edge">
<title>4&#45;&gt;3</title>
<path fill="none" stroke="grey" stroke-width="2" d="M1701.78,-647.7C1700.78,-639.98 1699.59,-630.71 1698.49,-622.11"/>
<polygon fill="grey" stroke="grey" stroke-width="2" points="1701.95,-621.58 1697.2,-612.1 1695,-622.47 1701.95,-621.58"/>
</g>
<!-- 5 -->
<g id="node6" class="node">
<title>5</title>
<path fill="none" stroke="#97d856" stroke-width="2" d="M1789,-756C1789,-756 1651,-756 1651,-756 1645,-756 1639,-750 1639,-744 1639,-744 1639,-732 1639,-732 1639,-726 1645,-720 1651,-720 1651,-720 1789,-720 1789,-720 1795,-720 1801,-726 1801,-732 1801,-732 1801,-744 1801,-744 1801,-750 1795,-756 1789,-756"/>
<text text-anchor="middle" x="1720" y="-735.5" font-family="sans" font-size="10.00">swaps_call_one_chromosome</text>
</g>
<!-- 5&#45;&gt;4 -->
<g id="edge13" class="edge">
<title>5&#45;&gt;4</title>
<path fill="none" stroke="grey" stroke-width="2" d="M1716.04,-719.7C1714.28,-711.98 1712.16,-702.71 1710.2,-694.11"/>
<polygon fill="grey" stroke="grey" stroke-width="2" points="1713.55,-693.07 1707.91,-684.1 1706.73,-694.63 1713.55,-693.07"/>
</g>
<!-- 6 -->
<g id="node7" class="node">
<title>6</title>
<path fill="none" stroke="#56b9d8" stroke-width="2" d="M1777,-828C1777,-828 1651,-828 1651,-828 1645,-828 1639,-822 1639,-816 1639,-816 1639,-804 1639,-804 1639,-798 1645,-792 1651,-792 1651,-792 1777,-792 1777,-792 1783,-792 1789,-798 1789,-804 1789,-804 1789,-816 1789,-816 1789,-822 1783,-828 1777,-828"/>
<text text-anchor="middle" x="1714" y="-807.5" font-family="sans" font-size="10.00">swaps_rename_library_one</text>
</g>
<!-- 6&#45;&gt;5 -->
<g id="edge15" class="edge">
<title>6&#45;&gt;5</title>
<path fill="none" stroke="grey" stroke-width="2" d="M1715.48,-791.7C1716.14,-783.98 1716.94,-774.71 1717.68,-766.11"/>
<polygon fill="grey" stroke="grey" stroke-width="2" points="1721.17,-766.37 1718.53,-756.1 1714.19,-765.77 1721.17,-766.37"/>
</g>
<!-- 7 -->
<g id="node8" class="node">
<title>7</title>
<path fill="none" stroke="#565bd8" stroke-width="2" d="M833.5,-900C833.5,-900 706.5,-900 706.5,-900 700.5,-900 694.5,-894 694.5,-888 694.5,-888 694.5,-876 694.5,-876 694.5,-870 700.5,-864 706.5,-864 706.5,-864 833.5,-864 833.5,-864 839.5,-864 845.5,-870 845.5,-876 845.5,-876 845.5,-888 845.5,-888 845.5,-894 839.5,-900 833.5,-900"/>
<text text-anchor="middle" x="770" y="-879.5" font-family="sans" font-size="10.00">picard_markduplicates_one</text>
</g>
<!-- 7&#45;&gt;6 -->
<g id="edge16" class="edge">
<title>7&#45;&gt;6</title>
<path fill="none" stroke="grey" stroke-width="2" d="M845.51,-875.26C889.19,-871.95 945.19,-867.72 995,-864 1224,-846.91 1494.06,-827.09 1628.71,-817.24"/>
<polygon fill="grey" stroke="grey" stroke-width="2" points="1629.23,-820.71 1638.95,-816.49 1628.72,-813.73 1629.23,-820.71"/>
</g>
<!-- 22 -->
<g id="node23" class="node">
<title>22</title>
<path fill="none" stroke="#88d856" stroke-width="2" d="M687.5,-540C687.5,-540 604.5,-540 604.5,-540 598.5,-540 592.5,-534 592.5,-528 592.5,-528 592.5,-516 592.5,-516 592.5,-510 598.5,-504 604.5,-504 604.5,-504 687.5,-504 687.5,-504 693.5,-504 699.5,-510 699.5,-516 699.5,-516 699.5,-528 699.5,-528 699.5,-534 693.5,-540 687.5,-540"/>
<text text-anchor="middle" x="646" y="-519.5" font-family="sans" font-size="10.00">report_step_picard</text>
</g>
<!-- 7&#45;&gt;22 -->
<g id="edge44" class="edge">
<title>7&#45;&gt;22</title>
<path fill="none" stroke="grey" stroke-width="2" d="M694.38,-866.83C627.68,-849.45 541,-812.68 541,-739 541,-739 541,-739 541,-665 541,-624.55 536.68,-609.05 560,-576 568.87,-563.42 581.77,-553.24 594.88,-545.29"/>
<polygon fill="grey" stroke="grey" stroke-width="2" points="596.98,-548.12 603.95,-540.14 593.53,-542.04 596.98,-548.12"/>
</g>
<!-- 23 -->
<g id="node24" class="node">
<title>23</title>
<path fill="none" stroke="#80d856" stroke-width="2" d="M827,-612C827,-612 733,-612 733,-612 727,-612 721,-606 721,-600 721,-600 721,-588 721,-588 721,-582 727,-576 733,-576 733,-576 827,-576 827,-576 833,-576 839,-582 839,-588 839,-588 839,-600 839,-600 839,-606 833,-612 827,-612"/>
<text text-anchor="middle" x="780" y="-591.5" font-family="sans" font-size="10.00">samtools_stats_bam</text>
</g>
<!-- 7&#45;&gt;23 -->
<g id="edge48" class="edge">
<title>7&#45;&gt;23</title>
<path fill="none" stroke="grey" stroke-width="2" d="M738.42,-863.78C725.55,-854.93 712.06,-842.86 705,-828 698.14,-813.55 704.45,-807.99 705,-792 707.24,-727.42 693.76,-704.56 725,-648 730.95,-637.23 739.82,-627.3 748.7,-619.02"/>
<polygon fill="grey" stroke="grey" stroke-width="2" points="751.26,-621.43 756.44,-612.19 746.63,-616.18 751.26,-621.43"/>
</g>
<!-- 24 -->
<g id="node25" class="node">
<title>24</title>
<path fill="none" stroke="#a7d856" stroke-width="2" d="M756,-828C756,-828 726,-828 726,-828 720,-828 714,-822 714,-816 714,-816 714,-804 714,-804 714,-798 720,-792 726,-792 726,-792 756,-792 756,-792 762,-792 768,-798 768,-804 768,-804 768,-816 768,-816 768,-822 762,-828 756,-828"/>
<text text-anchor="middle" x="741" y="-807.5" font-family="sans" font-size="10.00">bai</text>
</g>
<!-- 7&#45;&gt;24 -->
<g id="edge51" class="edge">
<title>7&#45;&gt;24</title>
<path fill="none" stroke="grey" stroke-width="2" d="M762.83,-863.7C759.57,-855.81 755.63,-846.3 752,-837.55"/>
<polygon fill="grey" stroke="grey" stroke-width="2" points="755.15,-836 748.09,-828.1 748.68,-838.68 755.15,-836"/>
</g>
<!-- 25 -->
<g id="node26" class="node">
<title>25</title>
<path fill="none" stroke="#56d882" stroke-width="2" d="M981,-612C981,-612 869,-612 869,-612 863,-612 857,-606 857,-600 857,-600 857,-588 857,-588 857,-582 863,-576 869,-576 869,-576 981,-576 981,-576 987,-576 993,-582 993,-588 993,-588 993,-600 993,-600 993,-606 987,-612 981,-612"/>
<text text-anchor="middle" x="925" y="-591.5" font-family="sans" font-size="10.00">samtools_flagstats_bam</text>
</g>
<!-- 7&#45;&gt;25 -->
<g id="edge53" class="edge">
<title>7&#45;&gt;25</title>
<path fill="none" stroke="grey" stroke-width="2" d="M773.15,-863.99C781.34,-823.33 806.32,-718.68 858,-648 866.3,-636.65 877.65,-626.43 888.64,-618.07"/>
<polygon fill="grey" stroke="grey" stroke-width="2" points="890.89,-620.76 896.92,-612.05 886.78,-615.1 890.89,-620.76"/>
</g>
<!-- 26 -->
<g id="node27" class="node">
<title>26</title>
<path fill="none" stroke="#56c9d8" stroke-width="2" d="M690.5,-612C690.5,-612 581.5,-612 581.5,-612 575.5,-612 569.5,-606 569.5,-600 569.5,-600 569.5,-588 569.5,-588 569.5,-582 575.5,-576 581.5,-576 581.5,-576 690.5,-576 690.5,-576 696.5,-576 702.5,-582 702.5,-588 702.5,-588 702.5,-600 702.5,-600 702.5,-606 696.5,-612 690.5,-612"/>
<text text-anchor="middle" x="636" y="-591.5" font-family="sans" font-size="10.00">samtools_idxstats_bam</text>
</g>
<!-- 7&#45;&gt;26 -->
<g id="edge56" class="edge">
<title>7&#45;&gt;26</title>
<path fill="none" stroke="grey" stroke-width="2" d="M737.35,-863.91C723.1,-854.96 707.32,-842.76 697,-828 652.09,-763.75 640.24,-668.65 637.12,-622.34"/>
<polygon fill="grey" stroke="grey" stroke-width="2" points="640.6,-621.96 636.52,-612.18 633.61,-622.37 640.6,-621.96"/>
</g>
<!-- 28 -->
<g id="node29" class="node">
<title>28</title>
<path fill="none" stroke="#d8b456" stroke-width="2" d="M1057,-756C1057,-756 923,-756 923,-756 917,-756 911,-750 911,-744 911,-744 911,-732 911,-732 911,-726 917,-720 923,-720 923,-720 1057,-720 1057,-720 1063,-720 1069,-726 1069,-732 1069,-732 1069,-744 1069,-744 1069,-750 1063,-756 1057,-756"/>
<text text-anchor="middle" x="990" y="-735.5" font-family="sans" font-size="10.00">gatk4_base_recalibrator_one</text>
</g>
<!-- 7&#45;&gt;28 -->
<g id="edge65" class="edge">
<title>7&#45;&gt;28</title>
<path fill="none" stroke="grey" stroke-width="2" d="M799.94,-863.77C817.33,-853.61 839.58,-840.36 859,-828 892.97,-806.38 930.94,-780.37 957.22,-762.07"/>
<polygon fill="grey" stroke="grey" stroke-width="2" points="959.47,-764.77 965.66,-756.17 955.46,-759.03 959.47,-764.77"/>
</g>
<!-- 32 -->
<g id="node33" class="node">
<title>32</title>
<path fill="none" stroke="#56d8b1" stroke-width="2" d="M981,-684C981,-684 879,-684 879,-684 873,-684 867,-678 867,-672 867,-672 867,-660 867,-660 867,-654 873,-648 879,-648 879,-648 981,-648 981,-648 987,-648 993,-654 993,-660 993,-660 993,-672 993,-672 993,-678 987,-684 981,-684"/>
<text text-anchor="middle" x="930" y="-663.5" font-family="sans" font-size="10.00">gatk4_apply_bqsr_one</text>
</g>
<!-- 7&#45;&gt;32 -->
<g id="edge71" class="edge">
<title>7&#45;&gt;32</title>
<path fill="none" stroke="grey" stroke-width="2" d="M778.31,-863.9C793.67,-833.2 828.68,-767.55 869,-720 877.88,-709.53 888.88,-699.32 899.09,-690.7"/>
<polygon fill="grey" stroke="grey" stroke-width="2" points="901.54,-693.21 907.05,-684.16 897.1,-687.81 901.54,-693.21"/>
</g>
<!-- 42 -->
<g id="node43" class="node">
<title>42</title>
<path fill="none" stroke="#bed856" stroke-width="2" d="M506,-540C506,-540 424,-540 424,-540 418,-540 412,-534 412,-528 412,-528 412,-516 412,-516 412,-510 418,-504 424,-504 424,-504 506,-504 506,-504 512,-504 518,-510 518,-516 518,-516 518,-528 518,-528 518,-534 512,-540 506,-540"/>
<text text-anchor="middle" x="465" y="-519.5" font-family="sans" font-size="10.00">report_library_one</text>
</g>
<!-- 7&#45;&gt;42 -->
<g id="edge98" class="edge">
<title>7&#45;&gt;42</title>
<path fill="none" stroke="grey" stroke-width="2" d="M694.21,-877.73C603.89,-869.29 465,-839.9 465,-739 465,-739 465,-739 465,-665 465,-625 465,-578.65 465,-550.08"/>
<polygon fill="grey" stroke="grey" stroke-width="2" points="468.5,-550.05 465,-540.05 461.5,-550.05 468.5,-550.05"/>
</g>
<!-- 43 -->
<g id="node44" class="node">
<title>43</title>
<path fill="none" stroke="#56d8c9" stroke-width="2" d="M980,-540C980,-540 866,-540 866,-540 860,-540 854,-534 854,-528 854,-528 854,-516 854,-516 854,-510 860,-504 866,-504 866,-504 980,-504 980,-504 986,-504 992,-510 992,-516 992,-516 992,-528 992,-528 992,-534 986,-540 980,-540"/>
<text text-anchor="middle" x="923" y="-519.5" font-family="sans" font-size="10.00">report_chromosome_one</text>
</g>
<!-- 7&#45;&gt;43 -->
<g id="edge106" class="edge">
<title>7&#45;&gt;43</title>
<path fill="none" stroke="grey" stroke-width="2" d="M834.52,-863.96C916.22,-840.92 1049.8,-797.88 1078,-756 1103.98,-717.42 1129.36,-668.29 1056,-576 1042.25,-558.7 1022.02,-547.03 1001.46,-539.16"/>
<polygon fill="grey" stroke="grey" stroke-width="2" points="1002.6,-535.85 992.01,-535.8 1000.26,-542.45 1002.6,-535.85"/>
</g>
<!-- 8 -->
<g id="node9" class="node">
<title>8</title>
<path fill="none" stroke="#5663d8" stroke-width="2" d="M805,-972C805,-972 719,-972 719,-972 713,-972 707,-966 707,-960 707,-960 707,-948 707,-948 707,-942 713,-936 719,-936 719,-936 805,-936 805,-936 811,-936 817,-942 817,-948 817,-948 817,-960 817,-960 817,-966 811,-972 805,-972"/>
<text text-anchor="middle" x="762" y="-951.5" font-family="sans" font-size="10.00">picard_extract_one</text>
</g>
<!-- 8&#45;&gt;7 -->
<g id="edge18" class="edge">
<title>8&#45;&gt;7</title>
<path fill="none" stroke="grey" stroke-width="2" d="M763.98,-935.7C764.86,-927.98 765.92,-918.71 766.9,-910.11"/>
<polygon fill="grey" stroke="grey" stroke-width="2" points="770.39,-910.44 768.05,-900.1 763.43,-909.64 770.39,-910.44"/>
</g>
<!-- 9 -->
<g id="node10" class="node">
<title>9</title>
<path fill="none" stroke="#568ad8" stroke-width="2" d="M633,-1116C633,-1116 551,-1116 551,-1116 545,-1116 539,-1110 539,-1104 539,-1104 539,-1092 539,-1092 539,-1086 545,-1080 551,-1080 551,-1080 633,-1080 633,-1080 639,-1080 645,-1086 645,-1092 645,-1092 645,-1104 645,-1104 645,-1110 639,-1116 633,-1116"/>
<text text-anchor="middle" x="592" y="-1095.5" font-family="sans" font-size="10.00">bowtie2_map_one</text>
</g>
<!-- 9&#45;&gt;8 -->
<g id="edge21" class="edge">
<title>9&#45;&gt;8</title>
<path fill="none" stroke="grey" stroke-width="2" d="M612.51,-1079.87C642.76,-1054.6 699.44,-1007.25 733.65,-978.68"/>
<polygon fill="grey" stroke="grey" stroke-width="2" points="735.99,-981.29 741.42,-972.19 731.5,-975.91 735.99,-981.29"/>
</g>
<!-- 14 -->
<g id="node15" class="node">
<title>14</title>
<path fill="none" stroke="#56c9d8" stroke-width="2" d="M579,-1044C579,-1044 549,-1044 549,-1044 543,-1044 537,-1038 537,-1032 537,-1032 537,-1020 537,-1020 537,-1014 543,-1008 549,-1008 549,-1008 579,-1008 579,-1008 585,-1008 591,-1014 591,-1020 591,-1020 591,-1032 591,-1032 591,-1038 585,-1044 579,-1044"/>
<text text-anchor="middle" x="564" y="-1023.5" font-family="sans" font-size="10.00">crai</text>
</g>
<!-- 9&#45;&gt;14 -->
<g id="edge28" class="edge">
<title>9&#45;&gt;14</title>
<path fill="none" stroke="grey" stroke-width="2" d="M585.08,-1079.7C581.93,-1071.81 578.12,-1062.3 574.62,-1053.55"/>
<polygon fill="grey" stroke="grey" stroke-width="2" points="577.81,-1052.09 570.84,-1044.1 571.31,-1054.69 577.81,-1052.09"/>
</g>
<!-- 19 -->
<g id="node20" class="node">
<title>19</title>
<path fill="none" stroke="#68d856" stroke-width="2" d="M519.5,-972C519.5,-972 422.5,-972 422.5,-972 416.5,-972 410.5,-966 410.5,-960 410.5,-960 410.5,-948 410.5,-948 410.5,-942 416.5,-936 422.5,-936 422.5,-936 519.5,-936 519.5,-936 525.5,-936 531.5,-942 531.5,-948 531.5,-948 531.5,-960 531.5,-960 531.5,-966 525.5,-972 519.5,-972"/>
<text text-anchor="middle" x="471" y="-951.5" font-family="sans" font-size="10.00">samtools_stats_cram</text>
</g>
<!-- 9&#45;&gt;19 -->
<g id="edge38" class="edge">
<title>9&#45;&gt;19</title>
<path fill="none" stroke="grey" stroke-width="2" d="M567.96,-1079.94C555.24,-1070.25 539.85,-1057.4 528,-1044 510.84,-1024.6 495.27,-999.54 484.76,-980.95"/>
<polygon fill="grey" stroke="grey" stroke-width="2" points="487.79,-979.2 479.88,-972.15 481.67,-982.59 487.79,-979.2"/>
</g>
<!-- 20 -->
<g id="node21" class="node">
<title>20</title>
<path fill="none" stroke="#d87d56" stroke-width="2" d="M676.5,-972C676.5,-972 561.5,-972 561.5,-972 555.5,-972 549.5,-966 549.5,-960 549.5,-960 549.5,-948 549.5,-948 549.5,-942 555.5,-936 561.5,-936 561.5,-936 676.5,-936 676.5,-936 682.5,-936 688.5,-942 688.5,-948 688.5,-948 688.5,-960 688.5,-960 688.5,-966 682.5,-972 676.5,-972"/>
<text text-anchor="middle" x="619" y="-951.5" font-family="sans" font-size="10.00">samtools_flagstats_cram</text>
</g>
<!-- 9&#45;&gt;20 -->
<g id="edge40" class="edge">
<title>9&#45;&gt;20</title>
<path fill="none" stroke="grey" stroke-width="2" d="M595.26,-1079.87C599.86,-1055.67 608.31,-1011.21 613.79,-982.39"/>
<polygon fill="grey" stroke="grey" stroke-width="2" points="617.3,-982.67 615.73,-972.19 610.43,-981.36 617.3,-982.67"/>
</g>
<!-- 21 -->
<g id="node22" class="node">
<title>21</title>
<path fill="none" stroke="#59d856" stroke-width="2" d="M380,-972C380,-972 268,-972 268,-972 262,-972 256,-966 256,-960 256,-960 256,-948 256,-948 256,-942 262,-936 268,-936 268,-936 380,-936 380,-936 386,-936 392,-942 392,-948 392,-948 392,-960 392,-960 392,-966 386,-972 380,-972"/>
<text text-anchor="middle" x="324" y="-951.5" font-family="sans" font-size="10.00">samtools_idxstats_cram</text>
</g>
<!-- 9&#45;&gt;21 -->
<g id="edge42" class="edge">
<title>9&#45;&gt;21</title>
<path fill="none" stroke="grey" stroke-width="2" d="M559.67,-1079.87C510.98,-1054.07 418.83,-1005.25 365.32,-976.9"/>
<polygon fill="grey" stroke="grey" stroke-width="2" points="366.92,-973.78 356.44,-972.19 363.64,-979.96 366.92,-973.78"/>
</g>
<!-- 10 -->
<g id="node11" class="node">
<title>10</title>
<path fill="none" stroke="#56d8a9" stroke-width="2" d="M232,-1188C232,-1188 166,-1188 166,-1188 160,-1188 154,-1182 154,-1176 154,-1176 154,-1164 154,-1164 154,-1158 160,-1152 166,-1152 166,-1152 232,-1152 232,-1152 238,-1152 244,-1158 244,-1164 244,-1164 244,-1176 244,-1176 244,-1182 238,-1188 232,-1188"/>
<text text-anchor="middle" x="199" y="-1167.5" font-family="sans" font-size="10.00">fastp_trim_one</text>
</g>
<!-- 10&#45;&gt;9 -->
<g id="edge24" class="edge">
<title>10&#45;&gt;9</title>
<path fill="none" stroke="grey" stroke-width="2" d="M244.08,-1160.97C314.07,-1148.5 449.1,-1124.45 528.79,-1110.26"/>
<polygon fill="grey" stroke="grey" stroke-width="2" points="529.47,-1113.69 538.7,-1108.49 528.25,-1106.8 529.47,-1113.69"/>
</g>
<!-- 16 -->
<g id="node17" class="node">
<title>16</title>
<path fill="none" stroke="#56a9d8" stroke-width="2" d="M141,-1116C141,-1116 111,-1116 111,-1116 105,-1116 99,-1110 99,-1104 99,-1104 99,-1092 99,-1092 99,-1086 105,-1080 111,-1080 111,-1080 141,-1080 141,-1080 147,-1080 153,-1086 153,-1092 153,-1092 153,-1104 153,-1104 153,-1110 147,-1116 141,-1116"/>
<text text-anchor="middle" x="126" y="-1095.5" font-family="sans" font-size="10.00">fastqc</text>
</g>
<!-- 10&#45;&gt;16 -->
<g id="edge30" class="edge">
<title>10&#45;&gt;16</title>
<path fill="none" stroke="grey" stroke-width="2" d="M180.96,-1151.7C171.94,-1143.05 160.88,-1132.45 151.06,-1123.03"/>
<polygon fill="grey" stroke="grey" stroke-width="2" points="153.48,-1120.5 143.84,-1116.1 148.63,-1125.55 153.48,-1120.5"/>
</g>
<!-- 17 -->
<g id="node18" class="node">
<title>17</title>
<path fill="none" stroke="#56d873" stroke-width="2" d="M208,-1044C208,-1044 130,-1044 130,-1044 124,-1044 118,-1038 118,-1032 118,-1032 118,-1020 118,-1020 118,-1014 124,-1008 130,-1008 130,-1008 208,-1008 208,-1008 214,-1008 220,-1014 220,-1020 220,-1020 220,-1032 220,-1032 220,-1038 214,-1044 208,-1044"/>
<text text-anchor="middle" x="169" y="-1023.5" font-family="sans" font-size="10.00">report_step_fastp</text>
</g>
<!-- 10&#45;&gt;17 -->
<g id="edge32" class="edge">
<title>10&#45;&gt;17</title>
<path fill="none" stroke="grey" stroke-width="2" d="M195.38,-1151.87C190.25,-1127.56 180.79,-1082.82 174.71,-1054.01"/>
<polygon fill="grey" stroke="grey" stroke-width="2" points="178.12,-1053.25 172.63,-1044.19 171.27,-1054.7 178.12,-1053.25"/>
</g>
<!-- 10&#45;&gt;42 -->
<g id="edge102" class="edge">
<title>10&#45;&gt;42</title>
<path fill="none" stroke="grey" stroke-width="2" d="M204.48,-1151.84C211.79,-1127.97 224.36,-1083.23 229,-1044 230.88,-1028.11 229.06,-1024 229,-1008 228.78,-952.44 228,-938.56 228,-883 228,-883 228,-883 228,-665 228,-583.85 331.51,-547.94 401.71,-532.92"/>
<polygon fill="grey" stroke="grey" stroke-width="2" points="402.72,-536.29 411.81,-530.85 401.31,-529.43 402.72,-536.29"/>
</g>
<!-- 11 -->
<g id="node12" class="node">
<title>11</title>
<path fill="none" stroke="#56d8b9" stroke-width="2" d="M196,-1260C196,-1260 130,-1260 130,-1260 124,-1260 118,-1254 118,-1248 118,-1248 118,-1236 118,-1236 118,-1230 124,-1224 130,-1224 130,-1224 196,-1224 196,-1224 202,-1224 208,-1230 208,-1236 208,-1236 208,-1248 208,-1248 208,-1254 202,-1260 196,-1260"/>
<text text-anchor="middle" x="163" y="-1239.5" font-family="sans" font-size="10.00">reads_link_one</text>
</g>
<!-- 11&#45;&gt;10 -->
<g id="edge26" class="edge">
<title>11&#45;&gt;10</title>
<path fill="none" stroke="grey" stroke-width="2" d="M171.9,-1223.7C176,-1215.73 180.95,-1206.1 185.49,-1197.26"/>
<polygon fill="grey" stroke="grey" stroke-width="2" points="188.74,-1198.6 190.2,-1188.1 182.52,-1195.4 188.74,-1198.6"/>
</g>
<!-- 11&#45;&gt;16 -->
<g id="edge31" class="edge">
<title>11&#45;&gt;16</title>
<path fill="none" stroke="grey" stroke-width="2" d="M156.65,-1223.97C152.95,-1213.66 148.36,-1200.18 145,-1188 139.37,-1167.57 134.42,-1144.11 130.99,-1126.4"/>
<polygon fill="grey" stroke="grey" stroke-width="2" points="134.36,-1125.38 129.05,-1116.21 127.48,-1126.68 134.36,-1125.38"/>
</g>
<!-- 12 -->
<g id="node13" class="node">
<title>12</title>
<path fill="none" stroke="#d86e56" stroke-width="2" d="M635.5,-1188C635.5,-1188 574.5,-1188 574.5,-1188 568.5,-1188 562.5,-1182 562.5,-1176 562.5,-1176 562.5,-1164 562.5,-1164 562.5,-1158 568.5,-1152 574.5,-1152 574.5,-1152 635.5,-1152 635.5,-1152 641.5,-1152 647.5,-1158 647.5,-1164 647.5,-1164 647.5,-1176 647.5,-1176 647.5,-1182 641.5,-1188 635.5,-1188"/>
<text text-anchor="middle" x="605" y="-1167.5" font-family="sans" font-size="10.00">bowtie2_build</text>
</g>
<!-- 12&#45;&gt;9 -->
<g id="edge23" class="edge">
<title>12&#45;&gt;9</title>
<path fill="none" stroke="grey" stroke-width="2" d="M601.79,-1151.7C600.35,-1143.98 598.63,-1134.71 597.04,-1126.11"/>
<polygon fill="grey" stroke="grey" stroke-width="2" points="600.44,-1125.3 595.18,-1116.1 593.56,-1126.58 600.44,-1125.3"/>
</g>
<!-- 13 -->
<g id="node14" class="node">
<title>13</title>
<path fill="none" stroke="#d89c56" stroke-width="2" d="M1277,-1260C1277,-1260 1131,-1260 1131,-1260 1125,-1260 1119,-1254 1119,-1248 1119,-1248 1119,-1236 1119,-1236 1119,-1230 1125,-1224 1131,-1224 1131,-1224 1277,-1224 1277,-1224 1283,-1224 1289,-1230 1289,-1236 1289,-1236 1289,-1248 1289,-1248 1289,-1254 1283,-1260 1277,-1260"/>
<text text-anchor="middle" x="1204" y="-1239.5" font-family="sans" font-size="10.00">reference_recompress_genome</text>
</g>
<!-- 13&#45;&gt;5 -->
<g id="edge14" class="edge">
<title>13&#45;&gt;5</title>
<path fill="none" stroke="grey" stroke-width="2" d="M1289.24,-1238.9C1457.67,-1232.42 1817,-1206.06 1817,-1099 1817,-1099 1817,-1099 1817,-881 1817,-840.55 1820.58,-825.56 1798,-792 1789.68,-779.64 1777.42,-769.37 1765.08,-761.26"/>
<polygon fill="grey" stroke="grey" stroke-width="2" points="1766.91,-758.28 1756.56,-756 1763.23,-764.24 1766.91,-758.28"/>
</g>
<!-- 13&#45;&gt;6 -->
<g id="edge17" class="edge">
<title>13&#45;&gt;6</title>
<path fill="none" stroke="grey" stroke-width="2" d="M1289.27,-1238.77C1395.88,-1234.54 1570.95,-1222.43 1625,-1188 1664.42,-1162.89 1681,-1145.73 1681,-1099 1681,-1099 1681,-1099 1681,-953 1681,-911.97 1694.23,-865.97 1703.94,-837.74"/>
<polygon fill="grey" stroke="grey" stroke-width="2" points="1707.28,-838.78 1707.32,-828.19 1700.68,-836.45 1707.28,-838.78"/>
</g>
<!-- 13&#45;&gt;7 -->
<g id="edge19" class="edge">
<title>13&#45;&gt;7</title>
<path fill="none" stroke="grey" stroke-width="2" d="M1118.82,-1237.87C1031.91,-1232.91 904.86,-1220.23 869,-1188 838.53,-1160.61 845,-1139.97 845,-1099 845,-1099 845,-1099 845,-1025 845,-984.55 845.8,-971.27 826,-936 819.86,-925.06 810.7,-915.02 801.57,-906.7"/>
<polygon fill="grey" stroke="grey" stroke-width="2" points="803.82,-904.02 793.96,-900.12 799.24,-909.31 803.82,-904.02"/>
</g>
<!-- 13&#45;&gt;8 -->
<g id="edge22" class="edge">
<title>13&#45;&gt;8</title>
<path fill="none" stroke="grey" stroke-width="2" d="M1118.97,-1239.32C1022.44,-1235.68 872.9,-1224.16 831,-1188 769.98,-1135.34 761.61,-1031.51 761.29,-982.21"/>
<polygon fill="grey" stroke="grey" stroke-width="2" points="764.79,-982.03 761.33,-972.01 757.79,-981.99 764.79,-982.03"/>
</g>
<!-- 13&#45;&gt;9 -->
<g id="edge25" class="edge">
<title>13&#45;&gt;9</title>
<path fill="none" stroke="grey" stroke-width="2" d="M1118.69,-1238.61C1031.1,-1234.28 891.62,-1222.11 776,-1188 722.19,-1172.13 664.66,-1141.91 628.54,-1121.13"/>
<polygon fill="grey" stroke="grey" stroke-width="2" points="630.23,-1118.06 619.83,-1116.06 626.71,-1124.11 630.23,-1118.06"/>
</g>
<!-- 13&#45;&gt;12 -->
<g id="edge27" class="edge">
<title>13&#45;&gt;12</title>
<path fill="none" stroke="grey" stroke-width="2" d="M1118.7,-1233.06C1020.64,-1223.64 854.94,-1206.82 713,-1188 694.91,-1185.6 675.18,-1182.61 657.59,-1179.8"/>
<polygon fill="grey" stroke="grey" stroke-width="2" points="657.93,-1176.31 647.51,-1178.18 656.82,-1183.22 657.93,-1176.31"/>
</g>
<!-- 13&#45;&gt;28 -->
<g id="edge63" class="edge">
<title>13&#45;&gt;28</title>
<path fill="none" stroke="grey" stroke-width="2" d="M1118.78,-1224.01C1054.02,-1205.56 976,-1168.83 976,-1099 976,-1099 976,-1099 976,-881 976,-841.02 981.56,-795.02 985.68,-766.47"/>
<polygon fill="grey" stroke="grey" stroke-width="2" points="989.16,-766.84 987.17,-756.43 982.24,-765.81 989.16,-766.84"/>
</g>
<!-- 29 -->
<g id="node30" class="node">
<title>29</title>
<path fill="none" stroke="#d88556" stroke-width="2" d="M1262.5,-828C1262.5,-828 1225.5,-828 1225.5,-828 1219.5,-828 1213.5,-822 1213.5,-816 1213.5,-816 1213.5,-804 1213.5,-804 1213.5,-798 1219.5,-792 1225.5,-792 1225.5,-792 1262.5,-792 1262.5,-792 1268.5,-792 1274.5,-798 1274.5,-804 1274.5,-804 1274.5,-816 1274.5,-816 1274.5,-822 1268.5,-828 1262.5,-828"/>
<text text-anchor="middle" x="1244" y="-807.5" font-family="sans" font-size="10.00">dict_fagz</text>
</g>
<!-- 13&#45;&gt;29 -->
<g id="edge68" class="edge">
<title>13&#45;&gt;29</title>
<path fill="none" stroke="grey" stroke-width="2" d="M1209.26,-1223.7C1216.86,-1197.14 1230,-1144.61 1230,-1099 1230,-1099 1230,-1099 1230,-953 1230,-913.02 1235.56,-867.02 1239.68,-838.47"/>
<polygon fill="grey" stroke="grey" stroke-width="2" points="1243.16,-838.84 1241.17,-828.43 1236.24,-837.81 1243.16,-838.84"/>
</g>
<!-- 13&#45;&gt;32 -->
<g id="edge72" class="edge">
<title>13&#45;&gt;32</title>
<path fill="none" stroke="grey" stroke-width="2" d="M1118.82,-1238.7C1023.72,-1231.05 883,-1202.29 883,-1099 883,-1099 883,-1099 883,-809 883,-768.55 888.2,-758.02 902,-720 905.3,-710.9 909.9,-701.42 914.42,-693.03"/>
<polygon fill="grey" stroke="grey" stroke-width="2" points="917.58,-694.55 919.41,-684.11 911.47,-691.13 917.58,-694.55"/>
</g>
<!-- 36 -->
<g id="node37" class="node">
<title>36</title>
<path fill="none" stroke="#d86656" stroke-width="2" d="M1257,-324C1257,-324 1127,-324 1127,-324 1121,-324 1115,-318 1115,-312 1115,-312 1115,-300 1115,-300 1115,-294 1121,-288 1127,-288 1127,-288 1257,-288 1257,-288 1263,-288 1269,-294 1269,-300 1269,-300 1269,-312 1269,-312 1269,-318 1263,-324 1257,-324"/>
<text text-anchor="middle" x="1192" y="-303.5" font-family="sans" font-size="10.00">gatk4_variant_filtration_one</text>
</g>
<!-- 13&#45;&gt;36 -->
<g id="edge79" class="edge">
<title>13&#45;&gt;36</title>
<path fill="none" stroke="grey" stroke-width="2" d="M1198.74,-1223.7C1191.14,-1197.14 1178,-1144.61 1178,-1099 1178,-1099 1178,-1099 1178,-953 1178,-825.87 1173,-794.13 1173,-667 1173,-667 1173,-667 1173,-449 1173,-408.86 1180.55,-362.9 1186.13,-334.4"/>
<polygon fill="grey" stroke="grey" stroke-width="2" points="1189.61,-334.88 1188.16,-324.39 1182.74,-333.5 1189.61,-334.88"/>
</g>
<!-- 37 -->
<g id="node38" class="node">
<title>37</title>
<path fill="none" stroke="#56d8c9" stroke-width="2" d="M1465,-396C1465,-396 1267,-396 1267,-396 1261,-396 1255,-390 1255,-384 1255,-384 1255,-372 1255,-372 1255,-366 1261,-360 1267,-360 1267,-360 1465,-360 1465,-360 1471,-360 1477,-366 1477,-372 1477,-372 1477,-384 1477,-384 1477,-390 1471,-396 1465,-396"/>
<text text-anchor="middle" x="1366" y="-375.5" font-family="sans" font-size="10.00">gatk4_calculate_genotype_posteriors_one</text>
</g>
<!-- 13&#45;&gt;37 -->
<g id="edge83" class="edge">
<title>13&#45;&gt;37</title>
<path fill="none" stroke="grey" stroke-width="2" d="M1289.07,-1235.81C1377.45,-1229.06 1508.65,-1214.82 1551,-1188 1591.3,-1162.47 1611,-1146.7 1611,-1099 1611,-1099 1611,-1099 1611,-521 1611,-453.55 1540.62,-417.61 1475.31,-398.78"/>
<polygon fill="grey" stroke="grey" stroke-width="2" points="1475.87,-395.3 1465.3,-396.01 1474,-402.05 1475.87,-395.3"/>
</g>
<!-- 38 -->
<g id="node39" class="node">
<title>38</title>
<path fill="none" stroke="#56d89a" stroke-width="2" d="M1445,-468C1445,-468 1319,-468 1319,-468 1313,-468 1307,-462 1307,-456 1307,-456 1307,-444 1307,-444 1307,-438 1313,-432 1319,-432 1319,-432 1445,-432 1445,-432 1451,-432 1457,-438 1457,-444 1457,-444 1457,-456 1457,-456 1457,-462 1451,-468 1445,-468"/>
<text text-anchor="middle" x="1382" y="-447.5" font-family="sans" font-size="10.00">gatk4_genotype_gvcfs_one</text>
</g>
<!-- 13&#45;&gt;38 -->
<g id="edge86" class="edge">
<title>13&#45;&gt;38</title>
<path fill="none" stroke="grey" stroke-width="2" d="M1289.12,-1234.29C1368.39,-1226.67 1479.63,-1212.07 1516,-1188 1555.17,-1162.07 1573,-1145.97 1573,-1099 1573,-1099 1573,-1099 1573,-593 1573,-547.85 1558.17,-533.51 1524,-504 1507.58,-489.82 1487.01,-479.28 1466.67,-471.5"/>
<polygon fill="grey" stroke="grey" stroke-width="2" points="1467.63,-468.12 1457.03,-468.01 1465.24,-474.7 1467.63,-468.12"/>
</g>
<!-- 39 -->
<g id="node40" class="node">
<title>39</title>
<path fill="none" stroke="#d89556" stroke-width="2" d="M1503,-540C1503,-540 1381,-540 1381,-540 1375,-540 1369,-534 1369,-528 1369,-528 1369,-516 1369,-516 1369,-510 1375,-504 1381,-504 1381,-504 1503,-504 1503,-504 1509,-504 1515,-510 1515,-516 1515,-516 1515,-528 1515,-528 1515,-534 1509,-540 1503,-540"/>
<text text-anchor="middle" x="1442" y="-519.5" font-family="sans" font-size="10.00">gatk4_combine_gvcfs_one</text>
</g>
<!-- 13&#45;&gt;39 -->
<g id="edge89" class="edge">
<title>13&#45;&gt;39</title>
<path fill="none" stroke="grey" stroke-width="2" d="M1289.24,-1239.8C1387.31,-1233.36 1535,-1205.93 1535,-1099 1535,-1099 1535,-1099 1535,-665 1535,-617.32 1497.85,-573.19 1470.52,-547.17"/>
<polygon fill="grey" stroke="grey" stroke-width="2" points="1472.82,-544.54 1463.1,-540.32 1468.07,-549.68 1472.82,-544.54"/>
</g>
<!-- 40 -->
<g id="node41" class="node">
<title>40</title>
<path fill="none" stroke="#70d856" stroke-width="2" d="M1457,-612C1457,-612 1327,-612 1327,-612 1321,-612 1315,-606 1315,-600 1315,-600 1315,-588 1315,-588 1315,-582 1321,-576 1327,-576 1327,-576 1457,-576 1457,-576 1463,-576 1469,-582 1469,-588 1469,-588 1469,-600 1469,-600 1469,-606 1463,-612 1457,-612"/>
<text text-anchor="middle" x="1392" y="-591.5" font-family="sans" font-size="10.00">gatk4_haplotype_caller_one</text>
</g>
<!-- 13&#45;&gt;40 -->
<g id="edge92" class="edge">
<title>13&#45;&gt;40</title>
<path fill="none" stroke="grey" stroke-width="2" d="M1289.27,-1229.33C1363.4,-1213.83 1459,-1178.43 1459,-1099 1459,-1099 1459,-1099 1459,-737 1459,-692.73 1432.03,-647.47 1412.31,-620.3"/>
<polygon fill="grey" stroke="grey" stroke-width="2" points="1415,-618.05 1406.21,-612.14 1409.4,-622.25 1415,-618.05"/>
</g>
<!-- 14&#45;&gt;8 -->
<g id="edge20" class="edge">
<title>14&#45;&gt;8</title>
<path fill="none" stroke="grey" stroke-width="2" d="M591.12,-1015.41C619.99,-1005.21 666.57,-988.74 703.81,-975.57"/>
<polygon fill="grey" stroke="grey" stroke-width="2" points="705.29,-978.76 713.55,-972.13 702.95,-972.16 705.29,-978.76"/>
</g>
<!-- 14&#45;&gt;19 -->
<g id="edge37" class="edge">
<title>14&#45;&gt;19</title>
<path fill="none" stroke="grey" stroke-width="2" d="M541.01,-1007.7C529.19,-998.8 514.61,-987.82 501.82,-978.2"/>
<polygon fill="grey" stroke="grey" stroke-width="2" points="503.82,-975.32 493.72,-972.1 499.61,-980.91 503.82,-975.32"/>
</g>
<!-- 14&#45;&gt;20 -->
<g id="edge39" class="edge">
<title>14&#45;&gt;20</title>
<path fill="none" stroke="grey" stroke-width="2" d="M577.6,-1007.7C584.12,-999.39 592.07,-989.28 599.25,-980.14"/>
<polygon fill="grey" stroke="grey" stroke-width="2" points="602.13,-982.13 605.56,-972.1 596.63,-977.81 602.13,-982.13"/>
</g>
<!-- 14&#45;&gt;21 -->
<g id="edge41" class="edge">
<title>14&#45;&gt;21</title>
<path fill="none" stroke="grey" stroke-width="2" d="M536.94,-1017.11C502.07,-1006.94 440.24,-988.9 392.15,-974.88"/>
<polygon fill="grey" stroke="grey" stroke-width="2" points="393,-971.48 382.42,-972.04 391.04,-978.2 393,-971.48"/>
</g>
<!-- 15 -->
<g id="node16" class="node">
<title>15</title>
<path fill="none" stroke="#56b1d8" stroke-width="2" d="M92,-396C92,-396 12,-396 12,-396 6,-396 0,-390 0,-384 0,-384 0,-372 0,-372 0,-366 6,-360 12,-360 12,-360 92,-360 92,-360 98,-360 104,-366 104,-372 104,-372 104,-384 104,-384 104,-390 98,-396 92,-396"/>
<text text-anchor="middle" x="52" y="-375.5" font-family="sans" font-size="10.00">report_step_reads</text>
</g>
<!-- 15&#45;&gt;0 -->
<g id="edge6" class="edge">
<title>15&#45;&gt;0</title>
<path fill="none" stroke="grey" stroke-width="2" d="M56.25,-359.63C62.39,-332.99 73,-280.36 73,-235 73,-235 73,-235 73,-161 73,-116.68 81.45,-97.08 118,-72 158.29,-44.36 494.43,-26.13 608.39,-20.7"/>
<polygon fill="grey" stroke="grey" stroke-width="2" points="608.88,-24.18 618.71,-20.21 608.55,-17.19 608.88,-24.18"/>
</g>
<!-- 16&#45;&gt;15 -->
<g id="edge29" class="edge">
<title>16&#45;&gt;15</title>
<path fill="none" stroke="grey" stroke-width="2" d="M109.94,-1079.69C88.18,-1054.36 52,-1004.76 52,-955 52,-955 52,-955 52,-521 52,-481 52,-434.65 52,-406.08"/>
<polygon fill="grey" stroke="grey" stroke-width="2" points="55.5,-406.05 52,-396.05 48.5,-406.05 55.5,-406.05"/>
</g>
<!-- 16&#45;&gt;17 -->
<g id="edge33" class="edge">
<title>16&#45;&gt;17</title>
<path fill="none" stroke="grey" stroke-width="2" d="M136.63,-1079.7C141.63,-1071.56 147.69,-1061.69 153.21,-1052.7"/>
<polygon fill="grey" stroke="grey" stroke-width="2" points="156.24,-1054.46 158.49,-1044.1 150.28,-1050.79 156.24,-1054.46"/>
</g>
<!-- 16&#45;&gt;42 -->
<g id="edge99" class="edge">
<title>16&#45;&gt;42</title>
<path fill="none" stroke="grey" stroke-width="2" d="M118.49,-1079.86C111.6,-1061.87 103.26,-1032.83 109,-1008 122.91,-947.77 170,-944.82 170,-883 170,-883 170,-883 170,-665 170,-620.87 179.14,-603.05 214,-576 242.81,-553.65 337.45,-538.21 401.92,-529.98"/>
<polygon fill="grey" stroke="grey" stroke-width="2" points="402.51,-533.43 412,-528.72 401.64,-526.49 402.51,-533.43"/>
</g>
<!-- 17&#45;&gt;0 -->
<g id="edge8" class="edge">
<title>17&#45;&gt;0</title>
<path fill="none" stroke="grey" stroke-width="2" d="M161.51,-1007.89C150.7,-981.58 132,-929.37 132,-883 132,-883 132,-883 132,-161 132,-62.03 490.5,-29.33 608.7,-21.24"/>
<polygon fill="grey" stroke="grey" stroke-width="2" points="608.98,-24.73 618.73,-20.57 608.52,-17.74 608.98,-24.73"/>
</g>
<!-- 18 -->
<g id="node19" class="node">
<title>18</title>
<path fill="none" stroke="#566bd8" stroke-width="2" d="M398,-900C398,-900 306,-900 306,-900 300,-900 294,-894 294,-888 294,-888 294,-876 294,-876 294,-870 300,-864 306,-864 306,-864 398,-864 398,-864 404,-864 410,-870 410,-876 410,-876 410,-888 410,-888 410,-894 404,-900 398,-900"/>
<text text-anchor="middle" x="352" y="-879.5" font-family="sans" font-size="10.00">report_step_bowtie2</text>
</g>
<!-- 18&#45;&gt;0 -->
<g id="edge4" class="edge">
<title>18&#45;&gt;0</title>
<path fill="none" stroke="grey" stroke-width="2" d="M342.05,-863.71C327.99,-837.58 304,-786.1 304,-739 304,-739 304,-739 304,-161 304,-95.53 520.5,-44.35 608.99,-26.16"/>
<polygon fill="grey" stroke="grey" stroke-width="2" points="609.77,-29.58 618.88,-24.16 608.38,-22.72 609.77,-29.58"/>
</g>
<!-- 19&#45;&gt;18 -->
<g id="edge34" class="edge">
<title>19&#45;&gt;18</title>
<path fill="none" stroke="grey" stroke-width="2" d="M441.89,-935.88C426.33,-926.72 406.98,-915.34 390.22,-905.48"/>
<polygon fill="grey" stroke="grey" stroke-width="2" points="391.62,-902.24 381.22,-900.19 388.07,-908.28 391.62,-902.24"/>
</g>
<!-- 19&#45;&gt;42 -->
<g id="edge97" class="edge">
<title>19&#45;&gt;42</title>
<path fill="none" stroke="grey" stroke-width="2" d="M459.43,-935.83C436.82,-900.57 389,-816.78 389,-739 389,-739 389,-739 389,-665 389,-624.03 392.66,-611.56 413,-576 419.04,-565.44 427.69,-555.47 436.21,-547.08"/>
<polygon fill="grey" stroke="grey" stroke-width="2" points="438.7,-549.54 443.59,-540.14 433.91,-544.44 438.7,-549.54"/>
</g>
<!-- 20&#45;&gt;18 -->
<g id="edge36" class="edge">
<title>20&#45;&gt;18</title>
<path fill="none" stroke="grey" stroke-width="2" d="M554.03,-935.97C513.44,-925.33 461.26,-911.65 420.1,-900.85"/>
<polygon fill="grey" stroke="grey" stroke-width="2" points="420.99,-897.47 410.43,-898.32 419.21,-904.24 420.99,-897.47"/>
</g>
<!-- 20&#45;&gt;42 -->
<g id="edge95" class="edge">
<title>20&#45;&gt;42</title>
<path fill="none" stroke="grey" stroke-width="2" d="M585.99,-935.84C531.1,-904.64 427,-833.09 427,-739 427,-739 427,-739 427,-665 427,-623.63 442.23,-577.72 453.41,-549.61"/>
<polygon fill="grey" stroke="grey" stroke-width="2" points="456.76,-550.67 457.31,-540.09 450.28,-548.02 456.76,-550.67"/>
</g>
<!-- 21&#45;&gt;18 -->
<g id="edge35" class="edge">
<title>21&#45;&gt;18</title>
<path fill="none" stroke="grey" stroke-width="2" d="M330.92,-935.7C334.07,-927.81 337.88,-918.3 341.38,-909.55"/>
<polygon fill="grey" stroke="grey" stroke-width="2" points="344.69,-910.69 345.16,-900.1 338.19,-908.09 344.69,-910.69"/>
</g>
<!-- 21&#45;&gt;42 -->
<g id="edge101" class="edge">
<title>21&#45;&gt;42</title>
<path fill="none" stroke="grey" stroke-width="2" d="M308.22,-935.56C300.14,-925.76 290.81,-912.92 285,-900 268.42,-863.11 266,-851.45 266,-811 266,-811 266,-811 266,-737 266,-646.46 362.7,-578.16 421.28,-545.09"/>
<polygon fill="grey" stroke="grey" stroke-width="2" points="423.28,-547.99 430.34,-540.09 419.89,-541.86 423.28,-547.99"/>
</g>
<!-- 22&#45;&gt;0 -->
<g id="edge5" class="edge">
<title>22&#45;&gt;0</title>
<path fill="none" stroke="grey" stroke-width="2" d="M646,-503.95C646,-477.29 646,-424.11 646,-379 646,-379 646,-379 646,-161 646,-121 646,-74.65 646,-46.08"/>
<polygon fill="grey" stroke="grey" stroke-width="2" points="649.5,-46.05 646,-36.05 642.5,-46.05 649.5,-46.05"/>
</g>
<!-- 23&#45;&gt;22 -->
<g id="edge46" class="edge">
<title>23&#45;&gt;22</title>
<path fill="none" stroke="grey" stroke-width="2" d="M747.22,-575.88C729.37,-566.55 707.1,-554.92 688,-544.94"/>
<polygon fill="grey" stroke="grey" stroke-width="2" points="689.39,-541.72 678.91,-540.19 686.15,-547.92 689.39,-541.72"/>
</g>
<!-- 27 -->
<g id="node28" class="node">
<title>27</title>
<path fill="none" stroke="#78d856" stroke-width="2" d="M820.5,-540C820.5,-540 739.5,-540 739.5,-540 733.5,-540 727.5,-534 727.5,-528 727.5,-528 727.5,-516 727.5,-516 727.5,-510 733.5,-504 739.5,-504 739.5,-504 820.5,-504 820.5,-504 826.5,-504 832.5,-510 832.5,-516 832.5,-516 832.5,-528 832.5,-528 832.5,-534 826.5,-540 820.5,-540"/>
<text text-anchor="middle" x="780" y="-519.5" font-family="sans" font-size="10.00">report_step_gatk4</text>
</g>
<!-- 23&#45;&gt;27 -->
<g id="edge61" class="edge">
<title>23&#45;&gt;27</title>
<path fill="none" stroke="grey" stroke-width="2" d="M780,-575.7C780,-567.98 780,-558.71 780,-550.11"/>
<polygon fill="grey" stroke="grey" stroke-width="2" points="783.5,-550.1 780,-540.1 776.5,-550.1 783.5,-550.1"/>
</g>
<!-- 23&#45;&gt;42 -->
<g id="edge100" class="edge">
<title>23&#45;&gt;42</title>
<path fill="none" stroke="grey" stroke-width="2" d="M720.69,-578.05C717.75,-577.35 714.84,-576.66 712,-576 649.65,-561.52 578.11,-546.33 528.13,-535.94"/>
<polygon fill="grey" stroke="grey" stroke-width="2" points="528.62,-532.46 518.12,-533.86 527.2,-539.32 528.62,-532.46"/>
</g>
<!-- 23&#45;&gt;43 -->
<g id="edge107" class="edge">
<title>23&#45;&gt;43</title>
<path fill="none" stroke="grey" stroke-width="2" d="M814.98,-575.88C834.2,-566.47 858.23,-554.71 878.74,-544.67"/>
<polygon fill="grey" stroke="grey" stroke-width="2" points="880.44,-547.73 887.88,-540.19 877.36,-541.44 880.44,-547.73"/>
</g>
<!-- 24&#45;&gt;23 -->
<g id="edge49" class="edge">
<title>24&#45;&gt;23</title>
<path fill="none" stroke="grey" stroke-width="2" d="M731.05,-791.98C725.73,-781.89 719.73,-768.64 717,-756 713.62,-740.36 713.3,-735.57 717,-720 725.72,-683.31 747.02,-645.17 762.44,-620.82"/>
<polygon fill="grey" stroke="grey" stroke-width="2" points="765.53,-622.49 768.02,-612.2 759.65,-618.69 765.53,-622.49"/>
</g>
<!-- 24&#45;&gt;25 -->
<g id="edge54" class="edge">
<title>24&#45;&gt;25</title>
<path fill="none" stroke="grey" stroke-width="2" d="M742.03,-791.72C743.73,-773.11 748.21,-743.07 760,-720 779.61,-681.61 790.99,-674.5 825,-648 840.43,-635.98 858.99,-625.29 875.9,-616.72"/>
<polygon fill="grey" stroke="grey" stroke-width="2" points="877.68,-619.74 885.1,-612.18 874.58,-613.46 877.68,-619.74"/>
</g>
<!-- 24&#45;&gt;26 -->
<g id="edge57" class="edge">
<title>24&#45;&gt;26</title>
<path fill="none" stroke="grey" stroke-width="2" d="M730.23,-791.58C724.05,-781.35 716.3,-768.1 710,-756 685.8,-709.51 661.03,-653.59 647.17,-621.38"/>
<polygon fill="grey" stroke="grey" stroke-width="2" points="650.39,-620 643.24,-612.19 643.95,-622.76 650.39,-620"/>
</g>
<!-- 24&#45;&gt;28 -->
<g id="edge66" class="edge">
<title>24&#45;&gt;28</title>
<path fill="none" stroke="grey" stroke-width="2" d="M768.12,-801.38C804.16,-791.24 869.15,-772.97 919.51,-758.82"/>
<polygon fill="grey" stroke="grey" stroke-width="2" points="920.7,-762.12 929.38,-756.04 918.8,-755.38 920.7,-762.12"/>
</g>
<!-- 25&#45;&gt;22 -->
<g id="edge43" class="edge">
<title>25&#45;&gt;22</title>
<path fill="none" stroke="grey" stroke-width="2" d="M857.11,-575.97C812.12,-564.68 753.5,-549.97 709.45,-538.92"/>
<polygon fill="grey" stroke="grey" stroke-width="2" points="710.27,-535.52 699.72,-536.48 708.57,-542.31 710.27,-535.52"/>
</g>
<!-- 25&#45;&gt;27 -->
<g id="edge58" class="edge">
<title>25&#45;&gt;27</title>
<path fill="none" stroke="grey" stroke-width="2" d="M889.53,-575.88C869.88,-566.39 845.28,-554.51 824.37,-544.42"/>
<polygon fill="grey" stroke="grey" stroke-width="2" points="825.88,-541.26 815.36,-540.07 822.84,-547.57 825.88,-541.26"/>
</g>
<!-- 25&#45;&gt;42 -->
<g id="edge96" class="edge">
<title>25&#45;&gt;42</title>
<path fill="none" stroke="grey" stroke-width="2" d="M856.62,-577.6C853.71,-577.04 850.83,-576.5 848,-576 730.98,-555.17 700.71,-556.47 583,-540 565.27,-537.52 546.04,-534.77 528.36,-532.22"/>
<polygon fill="grey" stroke="grey" stroke-width="2" points="528.54,-528.71 518.15,-530.75 527.54,-535.64 528.54,-528.71"/>
</g>
<!-- 25&#45;&gt;43 -->
<g id="edge105" class="edge">
<title>25&#45;&gt;43</title>
<path fill="none" stroke="grey" stroke-width="2" d="M924.51,-575.7C924.29,-567.98 924.02,-558.71 923.77,-550.11"/>
<polygon fill="grey" stroke="grey" stroke-width="2" points="927.27,-550 923.49,-540.1 920.28,-550.2 927.27,-550"/>
</g>
<!-- 26&#45;&gt;22 -->
<g id="edge45" class="edge">
<title>26&#45;&gt;22</title>
<path fill="none" stroke="grey" stroke-width="2" d="M638.47,-575.7C639.57,-567.98 640.9,-558.71 642.13,-550.11"/>
<polygon fill="grey" stroke="grey" stroke-width="2" points="645.61,-550.5 643.56,-540.1 638.68,-549.51 645.61,-550.5"/>
</g>
<!-- 26&#45;&gt;27 -->
<g id="edge60" class="edge">
<title>26&#45;&gt;27</title>
<path fill="none" stroke="grey" stroke-width="2" d="M671.23,-575.88C690.58,-566.47 714.77,-554.71 735.43,-544.67"/>
<polygon fill="grey" stroke="grey" stroke-width="2" points="737.17,-547.71 744.64,-540.19 734.11,-541.41 737.17,-547.71"/>
</g>
<!-- 26&#45;&gt;42 -->
<g id="edge94" class="edge">
<title>26&#45;&gt;42</title>
<path fill="none" stroke="grey" stroke-width="2" d="M594.17,-575.88C570.58,-566.22 540.94,-554.09 516,-543.88"/>
<polygon fill="grey" stroke="grey" stroke-width="2" points="517.28,-540.62 506.7,-540.07 514.62,-547.1 517.28,-540.62"/>
</g>
<!-- 26&#45;&gt;43 -->
<g id="edge104" class="edge">
<title>26&#45;&gt;43</title>
<path fill="none" stroke="grey" stroke-width="2" d="M702.56,-576.76C744.75,-566.48 799.52,-553.12 843.92,-542.29"/>
<polygon fill="grey" stroke="grey" stroke-width="2" points="844.91,-545.65 853.8,-539.88 843.26,-538.85 844.91,-545.65"/>
</g>
<!-- 27&#45;&gt;0 -->
<g id="edge2" class="edge">
<title>27&#45;&gt;0</title>
<path fill="none" stroke="grey" stroke-width="2" d="M771.09,-503.58C758.5,-477.3 737,-425.62 737,-379 737,-379 737,-379 737,-161 737,-113.83 700.96,-69.79 674.25,-43.63"/>
<polygon fill="grey" stroke="grey" stroke-width="2" points="676.31,-40.76 666.65,-36.42 671.49,-45.84 676.31,-40.76"/>
</g>
<!-- 28&#45;&gt;27 -->
<g id="edge59" class="edge">
<title>28&#45;&gt;27</title>
<path fill="none" stroke="grey" stroke-width="2" d="M998.16,-719.74C1012.02,-687.61 1035.53,-618.09 1002,-576 957.39,-520.01 914.53,-557.06 845,-540 844.26,-539.82 843.51,-539.63 842.76,-539.45"/>
<polygon fill="grey" stroke="grey" stroke-width="2" points="843.37,-535.99 832.82,-536.96 841.67,-542.78 843.37,-535.99"/>
</g>
<!-- 28&#45;&gt;32 -->
<g id="edge73" class="edge">
<title>28&#45;&gt;32</title>
<path fill="none" stroke="grey" stroke-width="2" d="M975.17,-719.7C967.98,-711.3 959.2,-701.07 951.31,-691.86"/>
<polygon fill="grey" stroke="grey" stroke-width="2" points="953.83,-689.42 944.66,-684.1 948.51,-693.97 953.83,-689.42"/>
</g>
<!-- 28&#45;&gt;42 -->
<g id="edge93" class="edge">
<title>28&#45;&gt;42</title>
<path fill="none" stroke="grey" stroke-width="2" d="M910.72,-725.41C820.98,-709.78 672.64,-676.17 560,-612 530.83,-595.38 503.53,-568.09 485.75,-548.1"/>
<polygon fill="grey" stroke="grey" stroke-width="2" points="488.17,-545.54 478.96,-540.3 482.89,-550.14 488.17,-545.54"/>
</g>
<!-- 28&#45;&gt;43 -->
<g id="edge103" class="edge">
<title>28&#45;&gt;43</title>
<path fill="none" stroke="grey" stroke-width="2" d="M1010.38,-719.53C1019.81,-710.09 1030.01,-697.6 1035,-684 1051.55,-638.94 1060.68,-616.56 1035,-576 1026.33,-562.3 1013.06,-552.08 998.64,-544.47"/>
<polygon fill="grey" stroke="grey" stroke-width="2" points="1000.08,-541.27 989.56,-540.06 997.03,-547.57 1000.08,-541.27"/>
</g>
<!-- 29&#45;&gt;28 -->
<g id="edge64" class="edge">
<title>29&#45;&gt;28</title>
<path fill="none" stroke="grey" stroke-width="2" d="M1213.36,-800.56C1176,-790.26 1111.66,-772.53 1061.6,-758.73"/>
<polygon fill="grey" stroke="grey" stroke-width="2" points="1062.36,-755.31 1051.79,-756.03 1060.5,-762.06 1062.36,-755.31"/>
</g>
<!-- 29&#45;&gt;32 -->
<g id="edge70" class="edge">
<title>29&#45;&gt;32</title>
<path fill="none" stroke="grey" stroke-width="2" d="M1215.27,-791.9C1182.68,-772.92 1127.61,-742.04 1078,-720 1050.68,-707.86 1019.64,-696.41 993.06,-687.27"/>
<polygon fill="grey" stroke="grey" stroke-width="2" points="994.09,-683.93 983.49,-684.02 991.83,-690.55 994.09,-683.93"/>
</g>
<!-- 29&#45;&gt;36 -->
<g id="edge78" class="edge">
<title>29&#45;&gt;36</title>
<path fill="none" stroke="grey" stroke-width="2" d="M1237.32,-791.81C1227.68,-765.4 1211,-713.06 1211,-667 1211,-667 1211,-667 1211,-449 1211,-408.86 1203.45,-362.9 1197.87,-334.4"/>
<polygon fill="grey" stroke="grey" stroke-width="2" points="1201.26,-333.5 1195.84,-324.39 1194.39,-334.88 1201.26,-333.5"/>
</g>
<!-- 29&#45;&gt;37 -->
<g id="edge81" class="edge">
<title>29&#45;&gt;37</title>
<path fill="none" stroke="grey" stroke-width="2" d="M1244.99,-791.96C1246.44,-765.31 1249,-712.14 1249,-667 1249,-667 1249,-667 1249,-521 1249,-469.61 1295.2,-426.74 1329.54,-401.97"/>
<polygon fill="grey" stroke="grey" stroke-width="2" points="1331.79,-404.66 1337.98,-396.06 1327.77,-398.93 1331.79,-404.66"/>
</g>
<!-- 29&#45;&gt;38 -->
<g id="edge84" class="edge">
<title>29&#45;&gt;38</title>
<path fill="none" stroke="grey" stroke-width="2" d="M1252.91,-791.58C1265.5,-765.3 1287,-713.62 1287,-667 1287,-667 1287,-667 1287,-593 1287,-545.01 1324.94,-500.96 1352.87,-475.04"/>
<polygon fill="grey" stroke="grey" stroke-width="2" points="1355.35,-477.52 1360.44,-468.22 1350.67,-472.31 1355.35,-477.52"/>
</g>
<!-- 29&#45;&gt;39 -->
<g id="edge87" class="edge">
<title>29&#45;&gt;39</title>
<path fill="none" stroke="grey" stroke-width="2" d="M1274.72,-794.96C1328.62,-768.34 1438.28,-704.75 1478,-612 1484.3,-597.29 1482.7,-591.29 1478,-576 1474.99,-566.22 1469.49,-556.62 1463.68,-548.33"/>
<polygon fill="grey" stroke="grey" stroke-width="2" points="1466.41,-546.13 1457.61,-540.23 1460.81,-550.33 1466.41,-546.13"/>
</g>
<!-- 29&#45;&gt;40 -->
<g id="edge91" class="edge">
<title>29&#45;&gt;40</title>
<path fill="none" stroke="grey" stroke-width="2" d="M1265.28,-791.98C1276.7,-782.21 1290.54,-769.26 1301,-756 1335.25,-712.6 1364.59,-654.75 1380.14,-621.52"/>
<polygon fill="grey" stroke="grey" stroke-width="2" points="1383.5,-622.58 1384.51,-612.04 1377.14,-619.65 1383.5,-622.58"/>
</g>
<!-- 30 -->
<g id="node31" class="node">
<title>30</title>
<path fill="none" stroke="#c6d856" stroke-width="2" d="M1138,-900C1138,-900 1016,-900 1016,-900 1010,-900 1004,-894 1004,-888 1004,-888 1004,-876 1004,-876 1004,-870 1010,-864 1016,-864 1016,-864 1138,-864 1138,-864 1144,-864 1150,-870 1150,-876 1150,-876 1150,-888 1150,-888 1150,-894 1144,-900 1138,-900"/>
<text text-anchor="middle" x="1077" y="-879.5" font-family="sans" font-size="10.00">reference_recompress_vcf</text>
</g>
<!-- 30&#45;&gt;28 -->
<g id="edge62" class="edge">
<title>30&#45;&gt;28</title>
<path fill="none" stroke="grey" stroke-width="2" d="M1095.42,-863.8C1112.98,-845.25 1134.6,-815.28 1119,-792 1109.2,-777.37 1094.55,-766.78 1078.61,-759.11"/>
<polygon fill="grey" stroke="grey" stroke-width="2" points="1079.66,-755.75 1069.1,-754.92 1076.84,-762.15 1079.66,-755.75"/>
</g>
<!-- 31 -->
<g id="node32" class="node">
<title>31</title>
<path fill="none" stroke="#ced856" stroke-width="2" d="M1098,-828C1098,-828 1056,-828 1056,-828 1050,-828 1044,-822 1044,-816 1044,-816 1044,-804 1044,-804 1044,-798 1050,-792 1056,-792 1056,-792 1098,-792 1098,-792 1104,-792 1110,-798 1110,-804 1110,-804 1110,-816 1110,-816 1110,-822 1104,-828 1098,-828"/>
<text text-anchor="middle" x="1077" y="-807.5" font-family="sans" font-size="10.00">vcf_gz_tbi</text>
</g>
<!-- 30&#45;&gt;31 -->
<g id="edge69" class="edge">
<title>30&#45;&gt;31</title>
<path fill="none" stroke="grey" stroke-width="2" d="M1077,-863.7C1077,-855.98 1077,-846.71 1077,-838.11"/>
<polygon fill="grey" stroke="grey" stroke-width="2" points="1080.5,-838.1 1077,-828.1 1073.5,-838.1 1080.5,-838.1"/>
</g>
<!-- 31&#45;&gt;28 -->
<g id="edge67" class="edge">
<title>31&#45;&gt;28</title>
<path fill="none" stroke="grey" stroke-width="2" d="M1055.49,-791.7C1044.54,-782.88 1031.05,-772.03 1019.18,-762.47"/>
<polygon fill="grey" stroke="grey" stroke-width="2" points="1021.24,-759.65 1011.26,-756.1 1016.86,-765.1 1021.24,-759.65"/>
</g>
<!-- 32&#45;&gt;23 -->
<g id="edge47" class="edge">
<title>32&#45;&gt;23</title>
<path fill="none" stroke="grey" stroke-width="2" d="M893.31,-647.88C872.98,-638.39 847.53,-626.51 825.9,-616.42"/>
<polygon fill="grey" stroke="grey" stroke-width="2" points="827.12,-613.13 816.57,-612.07 824.16,-619.47 827.12,-613.13"/>
</g>
<!-- 32&#45;&gt;24 -->
<g id="edge50" class="edge">
<title>32&#45;&gt;24</title>
<path fill="none" stroke="grey" stroke-width="2" d="M866.95,-681.64C841.88,-689.8 814.06,-702.06 793,-720 773.31,-736.78 759.27,-762.99 750.78,-782.63"/>
<polygon fill="grey" stroke="grey" stroke-width="2" points="747.52,-781.36 746.96,-791.94 754,-784.02 747.52,-781.36"/>
</g>
<!-- 32&#45;&gt;25 -->
<g id="edge52" class="edge">
<title>32&#45;&gt;25</title>
<path fill="none" stroke="grey" stroke-width="2" d="M928.76,-647.7C928.21,-639.98 927.55,-630.71 926.94,-622.11"/>
<polygon fill="grey" stroke="grey" stroke-width="2" points="930.43,-621.83 926.22,-612.1 923.44,-622.33 930.43,-621.83"/>
</g>
<!-- 32&#45;&gt;26 -->
<g id="edge55" class="edge">
<title>32&#45;&gt;26</title>
<path fill="none" stroke="grey" stroke-width="2" d="M866.93,-649.98C821.63,-639.2 760.33,-624.6 712.27,-613.16"/>
<polygon fill="grey" stroke="grey" stroke-width="2" points="713.08,-609.75 702.54,-610.84 711.46,-616.56 713.08,-609.75"/>
</g>
<!-- 32&#45;&gt;40 -->
<g id="edge90" class="edge">
<title>32&#45;&gt;40</title>
<path fill="none" stroke="grey" stroke-width="2" d="M993.27,-655.41C1074.02,-643.18 1214.1,-621.95 1304.89,-608.2"/>
<polygon fill="grey" stroke="grey" stroke-width="2" points="1305.53,-611.64 1314.89,-606.68 1304.48,-604.72 1305.53,-611.64"/>
</g>
<!-- 33 -->
<g id="node34" class="node">
<title>33</title>
<path fill="none" stroke="#5673d8" stroke-width="2" d="M979.5,-108C979.5,-108 896.5,-108 896.5,-108 890.5,-108 884.5,-102 884.5,-96 884.5,-96 884.5,-84 884.5,-84 884.5,-78 890.5,-72 896.5,-72 896.5,-72 979.5,-72 979.5,-72 985.5,-72 991.5,-78 991.5,-84 991.5,-84 991.5,-96 991.5,-96 991.5,-102 985.5,-108 979.5,-108"/>
<text text-anchor="middle" x="938" y="-87.5" font-family="sans" font-size="10.00">report_step_snpeff</text>
</g>
<!-- 33&#45;&gt;0 -->
<g id="edge1" class="edge">
<title>33&#45;&gt;0</title>
<path fill="none" stroke="grey" stroke-width="2" d="M884.44,-76.16C826.06,-62.17 734.19,-40.14 683.21,-27.92"/>
<polygon fill="grey" stroke="grey" stroke-width="2" points="683.82,-24.47 673.28,-25.54 682.19,-31.27 683.82,-24.47"/>
</g>
<!-- 34 -->
<g id="node35" class="node">
<title>34</title>
<path fill="none" stroke="#56d88a" stroke-width="2" d="M1010,-180C1010,-180 964,-180 964,-180 958,-180 952,-174 952,-168 952,-168 952,-156 952,-156 952,-150 958,-144 964,-144 964,-144 1010,-144 1010,-144 1016,-144 1022,-150 1022,-156 1022,-156 1022,-168 1022,-168 1022,-174 1016,-180 1010,-180"/>
<text text-anchor="middle" x="987" y="-159.5" font-family="sans" font-size="10.00">snpeff_ann</text>
</g>
<!-- 34&#45;&gt;33 -->
<g id="edge74" class="edge">
<title>34&#45;&gt;33</title>
<path fill="none" stroke="grey" stroke-width="2" d="M974.89,-143.7C969.13,-135.47 962.14,-125.48 955.79,-116.42"/>
<polygon fill="grey" stroke="grey" stroke-width="2" points="958.58,-114.29 949.97,-108.1 952.84,-118.3 958.58,-114.29"/>
</g>
<!-- 35 -->
<g id="node36" class="node">
<title>35</title>
<path fill="none" stroke="#8fd856" stroke-width="2" d="M1213.5,-252C1213.5,-252 1070.5,-252 1070.5,-252 1064.5,-252 1058.5,-246 1058.5,-240 1058.5,-240 1058.5,-228 1058.5,-228 1058.5,-222 1064.5,-216 1070.5,-216 1070.5,-216 1213.5,-216 1213.5,-216 1219.5,-216 1225.5,-222 1225.5,-228 1225.5,-228 1225.5,-240 1225.5,-240 1225.5,-246 1219.5,-252 1213.5,-252"/>
<text text-anchor="middle" x="1142" y="-231.5" font-family="sans" font-size="10.00">gatk4_variant_filtration_merge</text>
</g>
<!-- 35&#45;&gt;34 -->
<g id="edge75" class="edge">
<title>35&#45;&gt;34</title>
<path fill="none" stroke="grey" stroke-width="2" d="M1104.08,-215.88C1082.11,-205.95 1054.32,-193.4 1031.34,-183.02"/>
<polygon fill="grey" stroke="grey" stroke-width="2" points="1032.69,-179.79 1022.14,-178.87 1029.81,-186.17 1032.69,-179.79"/>
</g>
<!-- 36&#45;&gt;35 -->
<g id="edge77" class="edge">
<title>36&#45;&gt;35</title>
<path fill="none" stroke="grey" stroke-width="2" d="M1179.64,-287.7C1173.77,-279.47 1166.63,-269.48 1160.16,-260.42"/>
<polygon fill="grey" stroke="grey" stroke-width="2" points="1162.88,-258.21 1154.22,-252.1 1157.18,-262.28 1162.88,-258.21"/>
</g>
<!-- 37&#45;&gt;36 -->
<g id="edge80" class="edge">
<title>37&#45;&gt;36</title>
<path fill="none" stroke="grey" stroke-width="2" d="M1323.43,-359.88C1299.44,-350.22 1269.27,-338.09 1243.9,-327.88"/>
<polygon fill="grey" stroke="grey" stroke-width="2" points="1245.01,-324.55 1234.43,-324.07 1242.4,-331.05 1245.01,-324.55"/>
</g>
<!-- 38&#45;&gt;37 -->
<g id="edge82" class="edge">
<title>38&#45;&gt;37</title>
<path fill="none" stroke="grey" stroke-width="2" d="M1378.04,-431.7C1376.28,-423.98 1374.16,-414.71 1372.2,-406.11"/>
<polygon fill="grey" stroke="grey" stroke-width="2" points="1375.55,-405.07 1369.91,-396.1 1368.73,-406.63 1375.55,-405.07"/>
</g>
<!-- 39&#45;&gt;38 -->
<g id="edge85" class="edge">
<title>39&#45;&gt;38</title>
<path fill="none" stroke="grey" stroke-width="2" d="M1427.17,-503.7C1419.98,-495.3 1411.2,-485.07 1403.31,-475.86"/>
<polygon fill="grey" stroke="grey" stroke-width="2" points="1405.83,-473.42 1396.66,-468.1 1400.51,-477.97 1405.83,-473.42"/>
</g>
<!-- 40&#45;&gt;39 -->
<g id="edge88" class="edge">
<title>40&#45;&gt;39</title>
<path fill="none" stroke="grey" stroke-width="2" d="M1404.36,-575.7C1410.23,-567.47 1417.37,-557.48 1423.84,-548.42"/>
<polygon fill="grey" stroke="grey" stroke-width="2" points="1426.82,-550.28 1429.78,-540.1 1421.12,-546.21 1426.82,-550.28"/>
</g>
<!-- 41 -->
<g id="node42" class="node">
<title>41</title>
<path fill="none" stroke="#56d85b" stroke-width="2" d="M1024.5,-252C1024.5,-252 949.5,-252 949.5,-252 943.5,-252 937.5,-246 937.5,-240 937.5,-240 937.5,-228 937.5,-228 937.5,-222 943.5,-216 949.5,-216 949.5,-216 1024.5,-216 1024.5,-216 1030.5,-216 1036.5,-222 1036.5,-228 1036.5,-228 1036.5,-240 1036.5,-240 1036.5,-246 1030.5,-252 1024.5,-252"/>
<text text-anchor="middle" x="987" y="-231.5" font-family="sans" font-size="10.00">snpeff_download</text>
</g>
<!-- 41&#45;&gt;34 -->
<g id="edge76" class="edge">
<title>41&#45;&gt;34</title>
<path fill="none" stroke="grey" stroke-width="2" d="M987,-215.7C987,-207.98 987,-198.71 987,-190.11"/>
<polygon fill="grey" stroke="grey" stroke-width="2" points="990.5,-190.1 987,-180.1 983.5,-190.1 990.5,-190.1"/>
</g>
<!-- 42&#45;&gt;0 -->
<g id="edge3" class="edge">
<title>42&#45;&gt;0</title>
<path fill="none" stroke="grey" stroke-width="2" d="M480.41,-503.58C501.29,-478.1 536,-428.34 536,-379 536,-379 536,-379 536,-161 536,-110.76 579.56,-67.52 611.86,-42.36"/>
<polygon fill="grey" stroke="grey" stroke-width="2" points="614.34,-44.88 620.21,-36.06 610.12,-39.29 614.34,-44.88"/>
</g>
<!-- 43&#45;&gt;0 -->
<g id="edge7" class="edge">
<title>43&#45;&gt;0</title>
<path fill="none" stroke="grey" stroke-width="2" d="M906.94,-503.69C885.18,-478.36 849,-428.76 849,-379 849,-379 849,-379 849,-161 849,-81.07 742.02,-42.36 683.38,-27.14"/>
<polygon fill="grey" stroke="grey" stroke-width="2" points="683.93,-23.67 673.38,-24.65 682.24,-30.46 683.93,-23.67"/>
</g>
</g>
</svg>
