<?xml version="1.0" encoding="UTF-8" standalone="no"?>
<!DOCTYPE svg PUBLIC "-//W3C//DTD SVG 1.1//EN"
 "http://www.w3.org/Graphics/SVG/1.1/DTD/svg11.dtd">
<!-- Generated by graphviz version 2.43.0 (0)
 -->
<!-- Title: snakemake_dag Pages: 1 -->
<svg width="1458pt" height="1196pt"
 viewBox="0.00 0.00 1458.00 1196.00" xmlns="http://www.w3.org/2000/svg" xmlns:xlink="http://www.w3.org/1999/xlink">
<g id="graph0" class="graph" transform="scale(1 1) rotate(0) translate(4 1192)">
<title>snakemake_dag</title>
<polygon fill="white" stroke="transparent" points="-4,4 -4,-1192 1454,-1192 1454,4 -4,4"/>
<!-- 0 -->
<g id="node1" class="node">
<title>0</title>
<path fill="none" stroke="#56c1d8" stroke-width="2" d="M515,-36C515,-36 485,-36 485,-36 479,-36 473,-30 473,-24 473,-24 473,-12 473,-12 473,-6 479,0 485,0 485,0 515,0 515,0 521,0 527,-6 527,-12 527,-12 527,-24 527,-24 527,-30 521,-36 515,-36"/>
<text text-anchor="middle" x="500" y="-15.5" font-family="sans" font-size="10.00">all</text>
</g>
<!-- 1 -->
<g id="node2" class="node">
<title>1</title>
<path fill="none" stroke="#d85656" stroke-width="2" d="M429.5,-396C429.5,-396 338.5,-396 338.5,-396 332.5,-396 326.5,-390 326.5,-384 326.5,-384 326.5,-372 326.5,-372 326.5,-366 332.5,-360 338.5,-360 338.5,-360 429.5,-360 429.5,-360 435.5,-360 441.5,-366 441.5,-372 441.5,-372 441.5,-384 441.5,-384 441.5,-390 435.5,-396 429.5,-396"/>
<text text-anchor="middle" x="384" y="-375.5" font-family="sans" font-size="10.00">report__step__reads</text>
</g>
<!-- 1&#45;&gt;0 -->
<g id="edge2" class="edge">
<title>1&#45;&gt;0</title>
<path fill="none" stroke="grey" stroke-width="2" d="M391.08,-359.85C401.31,-333.49 419,-281.21 419,-235 419,-235 419,-235 419,-161 419,-114.96 451.52,-70.25 475.35,-43.67"/>
<polygon fill="grey" stroke="grey" stroke-width="2" points="478.21,-45.74 482.42,-36.02 473.07,-40.99 478.21,-45.74"/>
</g>
<!-- 2 -->
<g id="node3" class="node">
<title>2</title>
<path fill="none" stroke="#d8cb56" stroke-width="2" d="M92,-540C92,-540 12,-540 12,-540 6,-540 0,-534 0,-528 0,-528 0,-516 0,-516 0,-510 6,-504 12,-504 12,-504 92,-504 92,-504 98,-504 104,-510 104,-516 104,-516 104,-528 104,-528 104,-534 98,-540 92,-540"/>
<text text-anchor="middle" x="52" y="-519.5" font-family="sans" font-size="10.00">helpers__fastqc__</text>
</g>
<!-- 2&#45;&gt;1 -->
<g id="edge5" class="edge">
<title>2&#45;&gt;1</title>
<path fill="none" stroke="grey" stroke-width="2" d="M92.05,-503.87C152.95,-477.82 268.72,-428.3 334.71,-400.08"/>
<polygon fill="grey" stroke="grey" stroke-width="2" points="336.25,-403.23 344.07,-396.08 333.5,-396.79 336.25,-403.23"/>
</g>
<!-- 28 -->
<g id="node29" class="node">
<title>28</title>
<path fill="none" stroke="#56d8a9" stroke-width="2" d="M618.5,-468C618.5,-468 539.5,-468 539.5,-468 533.5,-468 527.5,-462 527.5,-456 527.5,-456 527.5,-444 527.5,-444 527.5,-438 533.5,-432 539.5,-432 539.5,-432 618.5,-432 618.5,-432 624.5,-432 630.5,-438 630.5,-444 630.5,-444 630.5,-456 630.5,-456 630.5,-462 624.5,-468 618.5,-468"/>
<text text-anchor="middle" x="579" y="-447.5" font-family="sans" font-size="10.00">report__sample__</text>
</g>
<!-- 2&#45;&gt;28 -->
<g id="edge66" class="edge">
<title>2&#45;&gt;28</title>
<path fill="none" stroke="grey" stroke-width="2" d="M104.28,-505.96C107.56,-505.24 110.81,-504.57 114,-504 288.21,-472.62 338.83,-499.33 517.26,-467.91"/>
<polygon fill="grey" stroke="grey" stroke-width="2" points="518.01,-471.33 527.24,-466.12 516.77,-464.44 518.01,-471.33"/>
</g>
<!-- 3 -->
<g id="node4" class="node">
<title>3</title>
<path fill="none" stroke="#a7d856" stroke-width="2" d="M271.5,-1116C271.5,-1116 212.5,-1116 212.5,-1116 206.5,-1116 200.5,-1110 200.5,-1104 200.5,-1104 200.5,-1092 200.5,-1092 200.5,-1086 206.5,-1080 212.5,-1080 212.5,-1080 271.5,-1080 271.5,-1080 277.5,-1080 283.5,-1086 283.5,-1092 283.5,-1092 283.5,-1104 283.5,-1104 283.5,-1110 277.5,-1116 271.5,-1116"/>
<text text-anchor="middle" x="242" y="-1095.5" font-family="sans" font-size="10.00">reads__link__</text>
</g>
<!-- 3&#45;&gt;2 -->
<g id="edge6" class="edge">
<title>3&#45;&gt;2</title>
<path fill="none" stroke="grey" stroke-width="2" d="M235.52,-1079.79C226.17,-1053.36 210,-1000.99 210,-955 210,-955 210,-955 210,-665 210,-607.21 150.8,-566.96 104.87,-544.43"/>
<polygon fill="grey" stroke="grey" stroke-width="2" points="106.13,-541.15 95.59,-540.03 103.13,-547.48 106.13,-541.15"/>
</g>
<!-- 6 -->
<g id="node7" class="node">
<title>6</title>
<path fill="none" stroke="#56d8a2" stroke-width="2" d="M553.5,-1044C553.5,-1044 494.5,-1044 494.5,-1044 488.5,-1044 482.5,-1038 482.5,-1032 482.5,-1032 482.5,-1020 482.5,-1020 482.5,-1014 488.5,-1008 494.5,-1008 494.5,-1008 553.5,-1008 553.5,-1008 559.5,-1008 565.5,-1014 565.5,-1020 565.5,-1020 565.5,-1032 565.5,-1032 565.5,-1038 559.5,-1044 553.5,-1044"/>
<text text-anchor="middle" x="524" y="-1023.5" font-family="sans" font-size="10.00">align__map__</text>
</g>
<!-- 3&#45;&gt;6 -->
<g id="edge15" class="edge">
<title>3&#45;&gt;6</title>
<path fill="none" stroke="grey" stroke-width="2" d="M283.61,-1086.67C333.8,-1074.21 418.18,-1053.27 472.45,-1039.8"/>
<polygon fill="grey" stroke="grey" stroke-width="2" points="473.36,-1043.18 482.22,-1037.37 471.67,-1036.38 473.36,-1043.18"/>
</g>
<!-- 4 -->
<g id="node5" class="node">
<title>4</title>
<path fill="none" stroke="#56d89a" stroke-width="2" d="M497,-468C497,-468 409,-468 409,-468 403,-468 397,-462 397,-456 397,-456 397,-444 397,-444 397,-438 403,-432 409,-432 409,-432 497,-432 497,-432 503,-432 509,-438 509,-444 509,-444 509,-456 509,-456 509,-462 503,-468 497,-468"/>
<text text-anchor="middle" x="453" y="-447.5" font-family="sans" font-size="10.00">report__step__align</text>
</g>
<!-- 4&#45;&gt;0 -->
<g id="edge4" class="edge">
<title>4&#45;&gt;0</title>
<path fill="none" stroke="grey" stroke-width="2" d="M458.67,-431.73C466.85,-405.21 481,-352.73 481,-307 481,-307 481,-307 481,-161 481,-120.86 488.55,-74.9 494.13,-46.4"/>
<polygon fill="grey" stroke="grey" stroke-width="2" points="497.61,-46.88 496.16,-36.39 490.74,-45.5 497.61,-46.88"/>
</g>
<!-- 5 -->
<g id="node6" class="node">
<title>5</title>
<path fill="none" stroke="#d8bc56" stroke-width="2" d="M879.5,-540C879.5,-540 670.5,-540 670.5,-540 664.5,-540 658.5,-534 658.5,-528 658.5,-528 658.5,-516 658.5,-516 658.5,-510 664.5,-504 670.5,-504 670.5,-504 879.5,-504 879.5,-504 885.5,-504 891.5,-510 891.5,-516 891.5,-516 891.5,-528 891.5,-528 891.5,-534 885.5,-540 879.5,-540"/>
<text text-anchor="middle" x="775" y="-519.5" font-family="sans" font-size="10.00">helpers__samtools__samtools_stats_cram__</text>
</g>
<!-- 5&#45;&gt;4 -->
<g id="edge8" class="edge">
<title>5&#45;&gt;4</title>
<path fill="none" stroke="grey" stroke-width="2" d="M687.39,-503.94C637.84,-494.03 574.82,-480.96 519,-468 518.9,-467.98 518.8,-467.95 518.7,-467.93"/>
<polygon fill="grey" stroke="grey" stroke-width="2" points="519.66,-464.56 509.12,-465.65 518.04,-471.37 519.66,-464.56"/>
</g>
<!-- 5&#45;&gt;28 -->
<g id="edge68" class="edge">
<title>5&#45;&gt;28</title>
<path fill="none" stroke="grey" stroke-width="2" d="M727.3,-503.97C699.92,-494.19 665.34,-481.84 636.47,-471.52"/>
<polygon fill="grey" stroke="grey" stroke-width="2" points="637.5,-468.18 626.91,-468.11 635.15,-474.77 637.5,-468.18"/>
</g>
<!-- 6&#45;&gt;5 -->
<g id="edge13" class="edge">
<title>6&#45;&gt;5</title>
<path fill="none" stroke="grey" stroke-width="2" d="M565.62,-1023.94C605.6,-1020.6 664.83,-1009.15 699,-972 726.38,-942.23 718,-923.45 718,-883 718,-883 718,-883 718,-737 718,-667.35 746.54,-589.12 763.23,-549.32"/>
<polygon fill="grey" stroke="grey" stroke-width="2" points="766.48,-550.63 767.19,-540.06 760.04,-547.88 766.48,-550.63"/>
</g>
<!-- 9 -->
<g id="node10" class="node">
<title>9</title>
<path fill="none" stroke="#56d863" stroke-width="2" d="M639.5,-828C639.5,-828 516.5,-828 516.5,-828 510.5,-828 504.5,-822 504.5,-816 504.5,-816 504.5,-804 504.5,-804 504.5,-798 510.5,-792 516.5,-792 516.5,-792 639.5,-792 639.5,-792 645.5,-792 651.5,-798 651.5,-804 651.5,-804 651.5,-816 651.5,-816 651.5,-822 645.5,-828 639.5,-828"/>
<text text-anchor="middle" x="578" y="-807.5" font-family="sans" font-size="10.00">helpers__samtools__crai__</text>
</g>
<!-- 6&#45;&gt;9 -->
<g id="edge20" class="edge">
<title>6&#45;&gt;9</title>
<path fill="none" stroke="grey" stroke-width="2" d="M522.14,-1007.72C520.99,-988.29 522.1,-956.73 538,-936 561.98,-904.74 597.53,-933.03 619,-900 632.18,-879.71 618.07,-854.5 602.91,-836.09"/>
<polygon fill="grey" stroke="grey" stroke-width="2" points="605.19,-833.38 595.97,-828.16 599.92,-837.99 605.19,-833.38"/>
</g>
<!-- 10 -->
<g id="node11" class="node">
<title>10</title>
<path fill="none" stroke="#56d8c1" stroke-width="2" d="M361.5,-540C361.5,-540 134.5,-540 134.5,-540 128.5,-540 122.5,-534 122.5,-528 122.5,-528 122.5,-516 122.5,-516 122.5,-510 128.5,-504 134.5,-504 134.5,-504 361.5,-504 361.5,-504 367.5,-504 373.5,-510 373.5,-516 373.5,-516 373.5,-528 373.5,-528 373.5,-534 367.5,-540 361.5,-540"/>
<text text-anchor="middle" x="248" y="-519.5" font-family="sans" font-size="10.00">helpers__samtools__samtools_flagstats_cram__</text>
</g>
<!-- 6&#45;&gt;10 -->
<g id="edge24" class="edge">
<title>6&#45;&gt;10</title>
<path fill="none" stroke="grey" stroke-width="2" d="M482.39,-1023.32C441.4,-1019.53 379.36,-1007.77 340,-972 257.6,-897.13 248,-850.34 248,-739 248,-739 248,-739 248,-665 248,-625 248,-578.65 248,-550.08"/>
<polygon fill="grey" stroke="grey" stroke-width="2" points="251.5,-550.05 248,-540.05 244.5,-550.05 251.5,-550.05"/>
</g>
<!-- 11 -->
<g id="node12" class="node">
<title>11</title>
<path fill="none" stroke="#9fd856" stroke-width="2" d="M628,-540C628,-540 404,-540 404,-540 398,-540 392,-534 392,-528 392,-528 392,-516 392,-516 392,-510 398,-504 404,-504 404,-504 628,-504 628,-504 634,-504 640,-510 640,-516 640,-516 640,-528 640,-528 640,-534 634,-540 628,-540"/>
<text text-anchor="middle" x="516" y="-519.5" font-family="sans" font-size="10.00">helpers__samtools__samtools_idxstats_cram__</text>
</g>
<!-- 6&#45;&gt;11 -->
<g id="edge28" class="edge">
<title>6&#45;&gt;11</title>
<path fill="none" stroke="grey" stroke-width="2" d="M482.07,-1015.29C423.43,-998.93 324,-959.86 324,-883 324,-883 324,-883 324,-809 324,-700.07 327.46,-657.26 400,-576 412.25,-562.27 428.78,-551.87 445.51,-544.09"/>
<polygon fill="grey" stroke="grey" stroke-width="2" points="447.04,-547.24 454.8,-540.02 444.23,-540.82 447.04,-547.24"/>
</g>
<!-- 13 -->
<g id="node14" class="node">
<title>13</title>
<path fill="none" stroke="#d8a456" stroke-width="2" d="M677.5,-972C677.5,-972 558.5,-972 558.5,-972 552.5,-972 546.5,-966 546.5,-960 546.5,-960 546.5,-948 546.5,-948 546.5,-942 552.5,-936 558.5,-936 558.5,-936 677.5,-936 677.5,-936 683.5,-936 689.5,-942 689.5,-948 689.5,-948 689.5,-960 689.5,-960 689.5,-966 683.5,-972 677.5,-972"/>
<text text-anchor="middle" x="618" y="-951.5" font-family="sans" font-size="10.00">align__mark_duplicates__</text>
</g>
<!-- 6&#45;&gt;13 -->
<g id="edge32" class="edge">
<title>6&#45;&gt;13</title>
<path fill="none" stroke="grey" stroke-width="2" d="M547.24,-1007.7C559.19,-998.8 573.92,-987.82 586.85,-978.2"/>
<polygon fill="grey" stroke="grey" stroke-width="2" points="589.1,-980.88 595.03,-972.1 584.92,-975.27 589.1,-980.88"/>
</g>
<!-- 7 -->
<g id="node8" class="node">
<title>7</title>
<path fill="none" stroke="#56a9d8" stroke-width="2" d="M567.5,-1116C567.5,-1116 502.5,-1116 502.5,-1116 496.5,-1116 490.5,-1110 490.5,-1104 490.5,-1104 490.5,-1092 490.5,-1092 490.5,-1086 496.5,-1080 502.5,-1080 502.5,-1080 567.5,-1080 567.5,-1080 573.5,-1080 579.5,-1086 579.5,-1092 579.5,-1092 579.5,-1104 579.5,-1104 579.5,-1110 573.5,-1116 567.5,-1116"/>
<text text-anchor="middle" x="535" y="-1095.5" font-family="sans" font-size="10.00">align__index__</text>
</g>
<!-- 7&#45;&gt;6 -->
<g id="edge16" class="edge">
<title>7&#45;&gt;6</title>
<path fill="none" stroke="grey" stroke-width="2" d="M532.28,-1079.7C531.07,-1071.98 529.61,-1062.71 528.26,-1054.11"/>
<polygon fill="grey" stroke="grey" stroke-width="2" points="531.7,-1053.44 526.69,-1044.1 524.78,-1054.53 531.7,-1053.44"/>
</g>
<!-- 8 -->
<g id="node9" class="node">
<title>8</title>
<path fill="none" stroke="#5663d8" stroke-width="2" d="M990.5,-1188C990.5,-1188 833.5,-1188 833.5,-1188 827.5,-1188 821.5,-1182 821.5,-1176 821.5,-1176 821.5,-1164 821.5,-1164 821.5,-1158 827.5,-1152 833.5,-1152 833.5,-1152 990.5,-1152 990.5,-1152 996.5,-1152 1002.5,-1158 1002.5,-1164 1002.5,-1164 1002.5,-1176 1002.5,-1176 1002.5,-1182 996.5,-1188 990.5,-1188"/>
<text text-anchor="middle" x="912" y="-1167.5" font-family="sans" font-size="10.00">reference__recompress__genome</text>
</g>
<!-- 8&#45;&gt;6 -->
<g id="edge14" class="edge">
<title>8&#45;&gt;6</title>
<path fill="none" stroke="grey" stroke-width="2" d="M821.47,-1154.36C778.37,-1145.83 726.61,-1133.29 682,-1116 636.71,-1098.45 588.63,-1069.73 557.57,-1049.68"/>
<polygon fill="grey" stroke="grey" stroke-width="2" points="559.17,-1046.55 548.88,-1044.01 555.35,-1052.41 559.17,-1046.55"/>
</g>
<!-- 8&#45;&gt;7 -->
<g id="edge17" class="edge">
<title>8&#45;&gt;7</title>
<path fill="none" stroke="grey" stroke-width="2" d="M821.22,-1152.14C749.03,-1138.74 650.41,-1120.43 589.8,-1109.17"/>
<polygon fill="grey" stroke="grey" stroke-width="2" points="590.14,-1105.68 579.67,-1107.29 588.87,-1112.56 590.14,-1105.68"/>
</g>
<!-- 12 -->
<g id="node13" class="node">
<title>12</title>
<path fill="none" stroke="#56d88a" stroke-width="2" d="M598,-900C598,-900 402,-900 402,-900 396,-900 390,-894 390,-888 390,-888 390,-876 390,-876 390,-870 396,-864 402,-864 402,-864 598,-864 598,-864 604,-864 610,-870 610,-876 610,-876 610,-888 610,-888 610,-894 604,-900 598,-900"/>
<text text-anchor="middle" x="500" y="-879.5" font-family="sans" font-size="10.00">align__mark_duplicates__bam_to_cram__</text>
</g>
<!-- 8&#45;&gt;12 -->
<g id="edge29" class="edge">
<title>8&#45;&gt;12</title>
<path fill="none" stroke="grey" stroke-width="2" d="M821.36,-1163.75C702.27,-1155.97 505.41,-1139.69 482,-1116 427.31,-1060.65 464.67,-957.46 486.85,-909.18"/>
<polygon fill="grey" stroke="grey" stroke-width="2" points="490.07,-910.55 491.18,-900.01 483.74,-907.56 490.07,-910.55"/>
</g>
<!-- 8&#45;&gt;13 -->
<g id="edge31" class="edge">
<title>8&#45;&gt;13</title>
<path fill="none" stroke="grey" stroke-width="2" d="M821.7,-1151.89C794.48,-1143.92 765.59,-1132.43 742,-1116 690.58,-1080.18 650.82,-1016.56 631.29,-980.96"/>
<polygon fill="grey" stroke="grey" stroke-width="2" points="634.36,-979.28 626.55,-972.13 628.19,-982.59 634.36,-979.28"/>
</g>
<!-- 14 -->
<g id="node15" class="node">
<title>14</title>
<path fill="none" stroke="#5692d8" stroke-width="2" d="M683.5,-612C683.5,-612 516.5,-612 516.5,-612 510.5,-612 504.5,-606 504.5,-600 504.5,-600 504.5,-588 504.5,-588 504.5,-582 510.5,-576 516.5,-576 516.5,-576 683.5,-576 683.5,-576 689.5,-576 695.5,-582 695.5,-588 695.5,-588 695.5,-600 695.5,-600 695.5,-606 689.5,-612 683.5,-612"/>
<text text-anchor="middle" x="600" y="-591.5" font-family="sans" font-size="10.00">align__recalibrate__bam_to_cram__</text>
</g>
<!-- 8&#45;&gt;14 -->
<g id="edge34" class="edge">
<title>8&#45;&gt;14</title>
<path fill="none" stroke="grey" stroke-width="2" d="M821.24,-1169.06C637.22,-1168.22 233.99,-1161.19 192,-1116 24,-935.17 425.34,-690.91 558.73,-617.05"/>
<polygon fill="grey" stroke="grey" stroke-width="2" points="560.78,-619.91 567.86,-612.03 557.41,-613.78 560.78,-619.91"/>
</g>
<!-- 15 -->
<g id="node16" class="node">
<title>15</title>
<path fill="none" stroke="#68d856" stroke-width="2" d="M907.5,-684C907.5,-684 758.5,-684 758.5,-684 752.5,-684 746.5,-678 746.5,-672 746.5,-672 746.5,-660 746.5,-660 746.5,-654 752.5,-648 758.5,-648 758.5,-648 907.5,-648 907.5,-648 913.5,-648 919.5,-654 919.5,-660 919.5,-660 919.5,-672 919.5,-672 919.5,-678 913.5,-684 907.5,-684"/>
<text text-anchor="middle" x="833" y="-663.5" font-family="sans" font-size="10.00">align__recalibrate__applybqsr__</text>
</g>
<!-- 8&#45;&gt;15 -->
<g id="edge38" class="edge">
<title>8&#45;&gt;15</title>
<path fill="none" stroke="grey" stroke-width="2" d="M868.96,-1151.82C822.78,-1130.2 756,-1088.34 756,-1027 756,-1027 756,-1027 756,-809 756,-767.91 760.41,-755.56 781,-720 787.09,-709.47 795.76,-699.51 804.28,-691.12"/>
<polygon fill="grey" stroke="grey" stroke-width="2" points="806.77,-693.58 811.65,-684.18 801.97,-688.48 806.77,-693.58"/>
</g>
<!-- 16 -->
<g id="node17" class="node">
<title>16</title>
<path fill="none" stroke="#56d8d0" stroke-width="2" d="M982,-756C982,-756 802,-756 802,-756 796,-756 790,-750 790,-744 790,-744 790,-732 790,-732 790,-726 796,-720 802,-720 802,-720 982,-720 982,-720 988,-720 994,-726 994,-732 994,-732 994,-744 994,-744 994,-750 988,-756 982,-756"/>
<text text-anchor="middle" x="892" y="-735.5" font-family="sans" font-size="10.00">align__recalibrate__baserecalibrator__</text>
</g>
<!-- 8&#45;&gt;16 -->
<g id="edge44" class="edge">
<title>8&#45;&gt;16</title>
<path fill="none" stroke="grey" stroke-width="2" d="M955.04,-1151.82C1001.22,-1130.2 1068,-1088.34 1068,-1027 1068,-1027 1068,-1027 1068,-881 1068,-840.55 1075.91,-822.2 1049,-792 1036.37,-777.82 1019.82,-767.43 1002.21,-759.82"/>
<polygon fill="grey" stroke="grey" stroke-width="2" points="1003.5,-756.57 992.91,-756.09 1000.89,-763.06 1003.5,-756.57"/>
</g>
<!-- 17 -->
<g id="node18" class="node">
<title>17</title>
<path fill="none" stroke="#59d856" stroke-width="2" d="M1257.5,-828C1257.5,-828 1108.5,-828 1108.5,-828 1102.5,-828 1096.5,-822 1096.5,-816 1096.5,-816 1096.5,-804 1096.5,-804 1096.5,-798 1102.5,-792 1108.5,-792 1108.5,-792 1257.5,-792 1257.5,-792 1263.5,-792 1269.5,-798 1269.5,-804 1269.5,-804 1269.5,-816 1269.5,-816 1269.5,-822 1263.5,-828 1257.5,-828"/>
<text text-anchor="middle" x="1183" y="-807.5" font-family="sans" font-size="10.00">helpers__samtools__dict_fagz__</text>
</g>
<!-- 8&#45;&gt;17 -->
<g id="edge45" class="edge">
<title>8&#45;&gt;17</title>
<path fill="none" stroke="grey" stroke-width="2" d="M1001.42,-1151.94C1067.12,-1133.62 1145,-1097.11 1145,-1027 1145,-1027 1145,-1027 1145,-953 1145,-911.63 1160.23,-865.72 1171.41,-837.61"/>
<polygon fill="grey" stroke="grey" stroke-width="2" points="1174.76,-838.67 1175.31,-828.09 1168.28,-836.02 1174.76,-838.67"/>
</g>
<!-- 23 -->
<g id="node24" class="node">
<title>23</title>
<path fill="none" stroke="#569ad8" stroke-width="2" d="M1279,-324C1279,-324 1139,-324 1139,-324 1133,-324 1127,-318 1127,-312 1127,-312 1127,-300 1127,-300 1127,-294 1133,-288 1139,-288 1139,-288 1279,-288 1279,-288 1285,-288 1291,-294 1291,-300 1291,-300 1291,-312 1291,-312 1291,-318 1285,-324 1279,-324"/>
<text text-anchor="middle" x="1209" y="-303.5" font-family="sans" font-size="10.00">genotype__variant_filtration__</text>
</g>
<!-- 8&#45;&gt;23 -->
<g id="edge51" class="edge">
<title>8&#45;&gt;23</title>
<path fill="none" stroke="grey" stroke-width="2" d="M1002.69,-1164.09C1111.39,-1157.14 1286.34,-1142.26 1346,-1116 1401.68,-1091.49 1450,-1087.84 1450,-1027 1450,-1027 1450,-1027 1450,-449 1450,-402.27 1431.37,-388.06 1394,-360 1367.13,-339.82 1332.81,-327.31 1301.04,-319.57"/>
<polygon fill="grey" stroke="grey" stroke-width="2" points="1301.81,-316.15 1291.28,-317.32 1300.23,-322.98 1301.81,-316.15"/>
</g>
<!-- 24 -->
<g id="node25" class="node">
<title>24</title>
<path fill="none" stroke="#d89556" stroke-width="2" d="M1372.5,-396C1372.5,-396 1235.5,-396 1235.5,-396 1229.5,-396 1223.5,-390 1223.5,-384 1223.5,-384 1223.5,-372 1223.5,-372 1223.5,-366 1229.5,-360 1235.5,-360 1235.5,-360 1372.5,-360 1372.5,-360 1378.5,-360 1384.5,-366 1384.5,-372 1384.5,-372 1384.5,-384 1384.5,-384 1384.5,-390 1378.5,-396 1372.5,-396"/>
<text text-anchor="middle" x="1304" y="-375.5" font-family="sans" font-size="10.00">genotype__genotype_gvcfs__</text>
</g>
<!-- 8&#45;&gt;24 -->
<g id="edge55" class="edge">
<title>8&#45;&gt;24</title>
<path fill="none" stroke="grey" stroke-width="2" d="M1002.84,-1167.31C1079.35,-1163.25 1190.48,-1151.08 1281,-1116 1346.63,-1090.57 1412,-1097.39 1412,-1027 1412,-1027 1412,-1027 1412,-521 1412,-478.33 1402.17,-465.7 1376,-432 1367.04,-420.46 1354.93,-410.24 1343.2,-401.93"/>
<polygon fill="grey" stroke="grey" stroke-width="2" points="1345.02,-398.93 1334.78,-396.22 1341.09,-404.73 1345.02,-398.93"/>
</g>
<!-- 25 -->
<g id="node26" class="node">
<title>25</title>
<path fill="none" stroke="#70d856" stroke-width="2" d="M1333.5,-468C1333.5,-468 1200.5,-468 1200.5,-468 1194.5,-468 1188.5,-462 1188.5,-456 1188.5,-456 1188.5,-444 1188.5,-444 1188.5,-438 1194.5,-432 1200.5,-432 1200.5,-432 1333.5,-432 1333.5,-432 1339.5,-432 1345.5,-438 1345.5,-444 1345.5,-444 1345.5,-456 1345.5,-456 1345.5,-462 1339.5,-468 1333.5,-468"/>
<text text-anchor="middle" x="1267" y="-447.5" font-family="sans" font-size="10.00">genotype__combine_gvcfs__</text>
</g>
<!-- 8&#45;&gt;25 -->
<g id="edge57" class="edge">
<title>8&#45;&gt;25</title>
<path fill="none" stroke="grey" stroke-width="2" d="M1002.51,-1165.73C1066.97,-1160.57 1154.35,-1147.7 1225,-1116 1282.69,-1090.11 1336,-1090.23 1336,-1027 1336,-1027 1336,-1027 1336,-593 1336,-548.48 1308.22,-503.29 1287.92,-476.2"/>
<polygon fill="grey" stroke="grey" stroke-width="2" points="1290.52,-473.84 1281.63,-468.07 1284.98,-478.12 1290.52,-473.84"/>
</g>
<!-- 26 -->
<g id="node27" class="node">
<title>26</title>
<path fill="none" stroke="#d8c356" stroke-width="2" d="M1258,-540C1258,-540 1118,-540 1118,-540 1112,-540 1106,-534 1106,-528 1106,-528 1106,-516 1106,-516 1106,-510 1112,-504 1118,-504 1118,-504 1258,-504 1258,-504 1264,-504 1270,-510 1270,-516 1270,-516 1270,-528 1270,-528 1270,-534 1264,-540 1258,-540"/>
<text text-anchor="middle" x="1188" y="-519.5" font-family="sans" font-size="10.00">genotype__haplotype_caller__</text>
</g>
<!-- 8&#45;&gt;26 -->
<g id="edge61" class="edge">
<title>8&#45;&gt;26</title>
<path fill="none" stroke="grey" stroke-width="2" d="M1002.99,-1154.2C1117.11,-1133.02 1298,-1089.57 1298,-1027 1298,-1027 1298,-1027 1298,-881 1298,-751.92 1231.85,-607.76 1202.15,-549.52"/>
<polygon fill="grey" stroke="grey" stroke-width="2" points="1205.08,-547.57 1197.38,-540.3 1198.86,-550.79 1205.08,-547.57"/>
</g>
<!-- 9&#45;&gt;5 -->
<g id="edge12" class="edge">
<title>9&#45;&gt;5</title>
<path fill="none" stroke="grey" stroke-width="2" d="M583.36,-791.99C593.76,-760.88 619.07,-693.8 657,-648 674.01,-627.46 685.93,-630.64 705,-612 725.03,-592.43 744.44,-567.08 757.72,-548.45"/>
<polygon fill="grey" stroke="grey" stroke-width="2" points="760.66,-550.34 763.55,-540.15 754.94,-546.32 760.66,-550.34"/>
</g>
<!-- 9&#45;&gt;10 -->
<g id="edge23" class="edge">
<title>9&#45;&gt;10</title>
<path fill="none" stroke="grey" stroke-width="2" d="M558.35,-791.97C502.19,-743.3 340.92,-603.53 275.78,-547.08"/>
<polygon fill="grey" stroke="grey" stroke-width="2" points="277.82,-544.21 267.97,-540.31 273.23,-549.5 277.82,-544.21"/>
</g>
<!-- 9&#45;&gt;11 -->
<g id="edge27" class="edge">
<title>9&#45;&gt;11</title>
<path fill="none" stroke="grey" stroke-width="2" d="M568.09,-791.82C549.5,-758.48 510.01,-682.11 496,-612 492.86,-596.31 493.13,-591.74 496,-576 497.61,-567.2 500.6,-557.95 503.79,-549.7"/>
<polygon fill="grey" stroke="grey" stroke-width="2" points="507.12,-550.79 507.69,-540.21 500.65,-548.12 507.12,-550.79"/>
</g>
<!-- 9&#45;&gt;16 -->
<g id="edge40" class="edge">
<title>9&#45;&gt;16</title>
<path fill="none" stroke="grey" stroke-width="2" d="M651.62,-792.59C697.75,-782.31 757.4,-769.01 805.74,-758.23"/>
<polygon fill="grey" stroke="grey" stroke-width="2" points="806.56,-761.63 815.56,-756.04 805.04,-754.8 806.56,-761.63"/>
</g>
<!-- 9&#45;&gt;26 -->
<g id="edge63" class="edge">
<title>9&#45;&gt;26</title>
<path fill="none" stroke="grey" stroke-width="2" d="M590.19,-791.79C614.46,-758.8 672.2,-686.53 738,-648 851.08,-581.79 1000.73,-549.36 1095.7,-534.44"/>
<polygon fill="grey" stroke="grey" stroke-width="2" points="1096.51,-537.86 1105.86,-532.88 1095.45,-530.94 1096.51,-537.86"/>
</g>
<!-- 10&#45;&gt;4 -->
<g id="edge7" class="edge">
<title>10&#45;&gt;4</title>
<path fill="none" stroke="grey" stroke-width="2" d="M297.89,-503.97C326.65,-494.14 363.01,-481.73 393.29,-471.39"/>
<polygon fill="grey" stroke="grey" stroke-width="2" points="394.56,-474.65 402.89,-468.11 392.3,-468.03 394.56,-474.65"/>
</g>
<!-- 10&#45;&gt;28 -->
<g id="edge64" class="edge">
<title>10&#45;&gt;28</title>
<path fill="none" stroke="grey" stroke-width="2" d="M344.3,-503.98C393.48,-494.84 454.42,-482.82 517.72,-467.97"/>
<polygon fill="grey" stroke="grey" stroke-width="2" points="518.56,-471.37 527.49,-465.66 516.95,-464.56 518.56,-471.37"/>
</g>
<!-- 11&#45;&gt;4 -->
<g id="edge9" class="edge">
<title>11&#45;&gt;4</title>
<path fill="none" stroke="grey" stroke-width="2" d="M500.43,-503.7C492.8,-495.22 483.48,-484.86 475.12,-475.58"/>
<polygon fill="grey" stroke="grey" stroke-width="2" points="477.69,-473.2 468.39,-468.1 472.48,-477.88 477.69,-473.2"/>
</g>
<!-- 11&#45;&gt;28 -->
<g id="edge67" class="edge">
<title>11&#45;&gt;28</title>
<path fill="none" stroke="grey" stroke-width="2" d="M531.57,-503.7C539.2,-495.22 548.52,-484.86 556.88,-475.58"/>
<polygon fill="grey" stroke="grey" stroke-width="2" points="559.52,-477.88 563.61,-468.1 554.31,-473.2 559.52,-477.88"/>
</g>
<!-- 12&#45;&gt;5 -->
<g id="edge11" class="edge">
<title>12&#45;&gt;5</title>
<path fill="none" stroke="grey" stroke-width="2" d="M492.93,-863.66C473.43,-812.74 424.91,-661.86 496,-576 501.5,-569.36 584.39,-554.13 658.39,-541.7"/>
<polygon fill="grey" stroke="grey" stroke-width="2" points="659.02,-545.14 668.3,-540.04 657.86,-538.24 659.02,-545.14"/>
</g>
<!-- 12&#45;&gt;9 -->
<g id="edge19" class="edge">
<title>12&#45;&gt;9</title>
<path fill="none" stroke="grey" stroke-width="2" d="M519.28,-863.7C528.92,-855.05 540.73,-844.45 551.23,-835.03"/>
<polygon fill="grey" stroke="grey" stroke-width="2" points="553.84,-837.39 558.94,-828.1 549.16,-832.18 553.84,-837.39"/>
</g>
<!-- 12&#45;&gt;10 -->
<g id="edge22" class="edge">
<title>12&#45;&gt;10</title>
<path fill="none" stroke="grey" stroke-width="2" d="M424.85,-863.95C363.19,-844.98 286,-807.55 286,-739 286,-739 286,-739 286,-665 286,-623.63 270.77,-577.72 259.59,-549.61"/>
<polygon fill="grey" stroke="grey" stroke-width="2" points="262.72,-548.02 255.69,-540.09 256.24,-550.67 262.72,-548.02"/>
</g>
<!-- 12&#45;&gt;11 -->
<g id="edge26" class="edge">
<title>12&#45;&gt;11</title>
<path fill="none" stroke="grey" stroke-width="2" d="M476.81,-863.61C447.27,-839.28 400,-792.07 400,-739 400,-739 400,-739 400,-665 400,-624.03 399.02,-608.47 424,-576 433.87,-563.18 447.78,-552.92 461.81,-544.97"/>
<polygon fill="grey" stroke="grey" stroke-width="2" points="463.82,-547.86 471,-540.08 460.53,-541.68 463.82,-547.86"/>
</g>
<!-- 12&#45;&gt;15 -->
<g id="edge36" class="edge">
<title>12&#45;&gt;15</title>
<path fill="none" stroke="grey" stroke-width="2" d="M583.58,-863.95C609.97,-855.93 638.17,-844.39 661,-828 709.74,-793.01 697.18,-759.89 742,-720 755.47,-708.01 772.07,-697.39 787.39,-688.87"/>
<polygon fill="grey" stroke="grey" stroke-width="2" points="789.09,-691.93 796.23,-684.09 785.76,-685.77 789.09,-691.93"/>
</g>
<!-- 12&#45;&gt;16 -->
<g id="edge42" class="edge">
<title>12&#45;&gt;16</title>
<path fill="none" stroke="grey" stroke-width="2" d="M573.15,-863.88C609.85,-854.58 654.73,-842.09 694,-828 748.84,-808.32 809.66,-779.95 849.23,-760.56"/>
<polygon fill="grey" stroke="grey" stroke-width="2" points="850.9,-763.64 858.33,-756.08 847.81,-757.36 850.9,-763.64"/>
</g>
<!-- 13&#45;&gt;12 -->
<g id="edge30" class="edge">
<title>13&#45;&gt;12</title>
<path fill="none" stroke="grey" stroke-width="2" d="M589.13,-935.88C573.71,-926.72 554.52,-915.34 537.9,-905.48"/>
<polygon fill="grey" stroke="grey" stroke-width="2" points="539.36,-902.28 528.98,-900.19 535.79,-908.3 539.36,-902.28"/>
</g>
<!-- 14&#45;&gt;5 -->
<g id="edge10" class="edge">
<title>14&#45;&gt;5</title>
<path fill="none" stroke="grey" stroke-width="2" d="M642.81,-575.88C666.95,-566.22 697.28,-554.09 722.81,-543.88"/>
<polygon fill="grey" stroke="grey" stroke-width="2" points="724.34,-547.03 732.33,-540.07 721.74,-540.53 724.34,-547.03"/>
</g>
<!-- 14&#45;&gt;9 -->
<g id="edge18" class="edge">
<title>14&#45;&gt;9</title>
<path fill="none" stroke="grey" stroke-width="2" d="M598.23,-612.23C594.42,-649.32 585.4,-736.98 580.81,-781.71"/>
<polygon fill="grey" stroke="grey" stroke-width="2" points="577.3,-781.54 579.76,-791.85 584.27,-782.26 577.3,-781.54"/>
</g>
<!-- 14&#45;&gt;10 -->
<g id="edge21" class="edge">
<title>14&#45;&gt;10</title>
<path fill="none" stroke="grey" stroke-width="2" d="M514.34,-575.97C462.82,-565.72 397.12,-552.66 343.87,-542.07"/>
<polygon fill="grey" stroke="grey" stroke-width="2" points="344.23,-538.57 333.74,-540.05 342.86,-545.43 344.23,-538.57"/>
</g>
<!-- 14&#45;&gt;11 -->
<g id="edge25" class="edge">
<title>14&#45;&gt;11</title>
<path fill="none" stroke="grey" stroke-width="2" d="M579.24,-575.7C568.76,-566.97 555.89,-556.24 544.5,-546.75"/>
<polygon fill="grey" stroke="grey" stroke-width="2" points="546.45,-543.82 536.53,-540.1 541.97,-549.19 546.45,-543.82"/>
</g>
<!-- 14&#45;&gt;26 -->
<g id="edge60" class="edge">
<title>14&#45;&gt;26</title>
<path fill="none" stroke="grey" stroke-width="2" d="M695.78,-581.6C806.23,-568.45 986.54,-546.98 1095.56,-534"/>
<polygon fill="grey" stroke="grey" stroke-width="2" points="1096.04,-537.47 1105.56,-532.81 1095.22,-530.52 1096.04,-537.47"/>
</g>
<!-- 15&#45;&gt;14 -->
<g id="edge33" class="edge">
<title>15&#45;&gt;14</title>
<path fill="none" stroke="grey" stroke-width="2" d="M776.3,-647.97C743.32,-638.06 701.57,-625.51 666.97,-615.12"/>
<polygon fill="grey" stroke="grey" stroke-width="2" points="667.54,-611.64 656.95,-612.11 665.52,-618.34 667.54,-611.64"/>
</g>
<!-- 16&#45;&gt;15 -->
<g id="edge37" class="edge">
<title>16&#45;&gt;15</title>
<path fill="none" stroke="grey" stroke-width="2" d="M877.42,-719.7C870.34,-711.3 861.72,-701.07 853.95,-691.86"/>
<polygon fill="grey" stroke="grey" stroke-width="2" points="856.54,-689.49 847.42,-684.1 851.19,-694.01 856.54,-689.49"/>
</g>
<!-- 16&#45;&gt;28 -->
<g id="edge65" class="edge">
<title>16&#45;&gt;28</title>
<path fill="none" stroke="grey" stroke-width="2" d="M908.04,-719.85C916.01,-710.12 924.83,-697.27 929,-684 946.31,-628.96 931.15,-533.29 901,-504 864.87,-468.9 723.55,-456.99 640.62,-452.99"/>
<polygon fill="grey" stroke="grey" stroke-width="2" points="640.71,-449.49 630.56,-452.53 640.39,-456.48 640.71,-449.49"/>
</g>
<!-- 17&#45;&gt;15 -->
<g id="edge35" class="edge">
<title>17&#45;&gt;15</title>
<path fill="none" stroke="grey" stroke-width="2" d="M1141.7,-791.98C1118.55,-782.1 1089.33,-769.06 1064,-756 1036.02,-741.57 1031.77,-732.77 1003,-720 973.42,-706.87 939.61,-695.62 909.98,-686.9"/>
<polygon fill="grey" stroke="grey" stroke-width="2" points="910.68,-683.46 900.1,-684.05 908.73,-690.19 910.68,-683.46"/>
</g>
<!-- 17&#45;&gt;16 -->
<g id="edge39" class="edge">
<title>17&#45;&gt;16</title>
<path fill="none" stroke="grey" stroke-width="2" d="M1112.19,-791.97C1070.03,-781.83 1016.41,-768.93 972.63,-758.4"/>
<polygon fill="grey" stroke="grey" stroke-width="2" points="973.42,-754.99 962.88,-756.05 971.78,-761.79 973.42,-754.99"/>
</g>
<!-- 17&#45;&gt;23 -->
<g id="edge52" class="edge">
<title>17&#45;&gt;23</title>
<path fill="none" stroke="grey" stroke-width="2" d="M1158.65,-791.87C1127.63,-767.84 1078,-720.96 1078,-667 1078,-667 1078,-667 1078,-449 1078,-395.59 1128.68,-353.68 1167,-329.64"/>
<polygon fill="grey" stroke="grey" stroke-width="2" points="1169.22,-332.38 1175.94,-324.2 1165.58,-326.4 1169.22,-332.38"/>
</g>
<!-- 17&#45;&gt;24 -->
<g id="edge56" class="edge">
<title>17&#45;&gt;24</title>
<path fill="none" stroke="grey" stroke-width="2" d="M1243.43,-791.96C1299.39,-772.05 1374,-733.11 1374,-667 1374,-667 1374,-667 1374,-521 1374,-480.55 1373.97,-467.72 1355,-432 1349.35,-421.36 1340.93,-411.36 1332.56,-402.98"/>
<polygon fill="grey" stroke="grey" stroke-width="2" points="1334.94,-400.41 1325.28,-396.05 1330.12,-405.48 1334.94,-400.41"/>
</g>
<!-- 17&#45;&gt;25 -->
<g id="edge58" class="edge">
<title>17&#45;&gt;25</title>
<path fill="none" stroke="grey" stroke-width="2" d="M1210.55,-791.82C1244.57,-768.23 1298,-722.36 1298,-667 1298,-667 1298,-667 1298,-593 1298,-552.1 1285.57,-506.06 1276.45,-477.79"/>
<polygon fill="grey" stroke="grey" stroke-width="2" points="1279.75,-476.61 1273.27,-468.22 1273.11,-478.82 1279.75,-476.61"/>
</g>
<!-- 17&#45;&gt;26 -->
<g id="edge62" class="edge">
<title>17&#45;&gt;26</title>
<path fill="none" stroke="grey" stroke-width="2" d="M1183.3,-791.97C1184.13,-744.29 1186.49,-609.18 1187.52,-550.63"/>
<polygon fill="grey" stroke="grey" stroke-width="2" points="1191.02,-550.37 1187.7,-540.31 1184.02,-550.24 1191.02,-550.37"/>
</g>
<!-- 18 -->
<g id="node19" class="node">
<title>18</title>
<path fill="none" stroke="#c6d856" stroke-width="2" d="M972,-900C972,-900 840,-900 840,-900 834,-900 828,-894 828,-888 828,-888 828,-876 828,-876 828,-870 834,-864 840,-864 840,-864 972,-864 972,-864 978,-864 984,-870 984,-876 984,-876 984,-888 984,-888 984,-894 978,-900 972,-900"/>
<text text-anchor="middle" x="906" y="-879.5" font-family="sans" font-size="10.00">reference__recompress__vcf</text>
</g>
<!-- 18&#45;&gt;16 -->
<g id="edge41" class="edge">
<title>18&#45;&gt;16</title>
<path fill="none" stroke="grey" stroke-width="2" d="M881.07,-863.86C869.94,-854.67 858,-842.29 852,-828 845.81,-813.25 846.92,-807.17 852,-792 855.35,-782 861.42,-772.38 867.83,-764.14"/>
<polygon fill="grey" stroke="grey" stroke-width="2" points="870.56,-766.33 874.27,-756.4 865.18,-761.85 870.56,-766.33"/>
</g>
<!-- 19 -->
<g id="node20" class="node">
<title>19</title>
<path fill="none" stroke="#8fd856" stroke-width="2" d="M1027.5,-828C1027.5,-828 872.5,-828 872.5,-828 866.5,-828 860.5,-822 860.5,-816 860.5,-816 860.5,-804 860.5,-804 860.5,-798 866.5,-792 872.5,-792 872.5,-792 1027.5,-792 1027.5,-792 1033.5,-792 1039.5,-798 1039.5,-804 1039.5,-804 1039.5,-816 1039.5,-816 1039.5,-822 1033.5,-828 1027.5,-828"/>
<text text-anchor="middle" x="950" y="-807.5" font-family="sans" font-size="10.00">helpers__samtools__vcf_gz_tbi__</text>
</g>
<!-- 18&#45;&gt;19 -->
<g id="edge46" class="edge">
<title>18&#45;&gt;19</title>
<path fill="none" stroke="grey" stroke-width="2" d="M916.88,-863.7C921.99,-855.56 928.2,-845.69 933.84,-836.7"/>
<polygon fill="grey" stroke="grey" stroke-width="2" points="936.89,-838.43 939.25,-828.1 930.96,-834.71 936.89,-838.43"/>
</g>
<!-- 19&#45;&gt;16 -->
<g id="edge43" class="edge">
<title>19&#45;&gt;16</title>
<path fill="none" stroke="grey" stroke-width="2" d="M935.66,-791.7C928.71,-783.3 920.23,-773.07 912.6,-763.86"/>
<polygon fill="grey" stroke="grey" stroke-width="2" points="915.25,-761.57 906.17,-756.1 909.86,-766.04 915.25,-761.57"/>
</g>
<!-- 20 -->
<g id="node21" class="node">
<title>20</title>
<path fill="none" stroke="#ced856" stroke-width="2" d="M705.5,-108C705.5,-108 598.5,-108 598.5,-108 592.5,-108 586.5,-102 586.5,-96 586.5,-96 586.5,-84 586.5,-84 586.5,-78 592.5,-72 598.5,-72 598.5,-72 705.5,-72 705.5,-72 711.5,-72 717.5,-78 717.5,-84 717.5,-84 717.5,-96 717.5,-96 717.5,-102 711.5,-108 705.5,-108"/>
<text text-anchor="middle" x="652" y="-87.5" font-family="sans" font-size="10.00">report__step__annotate</text>
</g>
<!-- 20&#45;&gt;0 -->
<g id="edge3" class="edge">
<title>20&#45;&gt;0</title>
<path fill="none" stroke="grey" stroke-width="2" d="M614.82,-71.88C591.02,-60.92 560.3,-46.77 536.61,-35.86"/>
<polygon fill="grey" stroke="grey" stroke-width="2" points="537.81,-32.56 527.27,-31.56 534.88,-38.92 537.81,-32.56"/>
</g>
<!-- 21 -->
<g id="node22" class="node">
<title>21</title>
<path fill="none" stroke="#5682d8" stroke-width="2" d="M915.5,-180C915.5,-180 774.5,-180 774.5,-180 768.5,-180 762.5,-174 762.5,-168 762.5,-168 762.5,-156 762.5,-156 762.5,-150 768.5,-144 774.5,-144 774.5,-144 915.5,-144 915.5,-144 921.5,-144 927.5,-150 927.5,-156 927.5,-156 927.5,-168 927.5,-168 927.5,-174 921.5,-180 915.5,-180"/>
<text text-anchor="middle" x="845" y="-159.5" font-family="sans" font-size="10.00">annotate__snpeff__annotate__</text>
</g>
<!-- 21&#45;&gt;20 -->
<g id="edge47" class="edge">
<title>21&#45;&gt;20</title>
<path fill="none" stroke="grey" stroke-width="2" d="M797.79,-143.88C770.93,-134.14 737.12,-121.87 708.82,-111.61"/>
<polygon fill="grey" stroke="grey" stroke-width="2" points="709.65,-108.19 699.06,-108.07 707.27,-114.77 709.65,-108.19"/>
</g>
<!-- 22 -->
<g id="node23" class="node">
<title>22</title>
<path fill="none" stroke="#61d856" stroke-width="2" d="M936,-252C936,-252 754,-252 754,-252 748,-252 742,-246 742,-240 742,-240 742,-228 742,-228 742,-222 748,-216 754,-216 754,-216 936,-216 936,-216 942,-216 948,-222 948,-228 948,-228 948,-240 948,-240 948,-246 942,-252 936,-252"/>
<text text-anchor="middle" x="845" y="-231.5" font-family="sans" font-size="10.00">genotype__variant_filtration__merge__</text>
</g>
<!-- 22&#45;&gt;21 -->
<g id="edge48" class="edge">
<title>22&#45;&gt;21</title>
<path fill="none" stroke="grey" stroke-width="2" d="M845,-215.7C845,-207.98 845,-198.71 845,-190.11"/>
<polygon fill="grey" stroke="grey" stroke-width="2" points="848.5,-190.1 845,-180.1 841.5,-190.1 848.5,-190.1"/>
</g>
<!-- 23&#45;&gt;22 -->
<g id="edge50" class="edge">
<title>23&#45;&gt;22</title>
<path fill="none" stroke="grey" stroke-width="2" d="M1126.86,-289.2C1072.45,-278.74 1000.79,-264.96 943.35,-253.91"/>
<polygon fill="grey" stroke="grey" stroke-width="2" points="944.01,-250.48 933.52,-252.02 942.68,-257.35 944.01,-250.48"/>
</g>
<!-- 24&#45;&gt;23 -->
<g id="edge53" class="edge">
<title>24&#45;&gt;23</title>
<path fill="none" stroke="grey" stroke-width="2" d="M1280.52,-359.7C1268.44,-350.8 1253.55,-339.82 1240.48,-330.2"/>
<polygon fill="grey" stroke="grey" stroke-width="2" points="1242.34,-327.22 1232.21,-324.1 1238.19,-332.85 1242.34,-327.22"/>
</g>
<!-- 25&#45;&gt;24 -->
<g id="edge54" class="edge">
<title>25&#45;&gt;24</title>
<path fill="none" stroke="grey" stroke-width="2" d="M1276.15,-431.7C1280.4,-423.64 1285.56,-413.89 1290.27,-404.98"/>
<polygon fill="grey" stroke="grey" stroke-width="2" points="1293.38,-406.58 1294.96,-396.1 1287.19,-403.31 1293.38,-406.58"/>
</g>
<!-- 26&#45;&gt;25 -->
<g id="edge59" class="edge">
<title>26&#45;&gt;25</title>
<path fill="none" stroke="grey" stroke-width="2" d="M1207.53,-503.7C1217.38,-494.97 1229.49,-484.24 1240.2,-474.75"/>
<polygon fill="grey" stroke="grey" stroke-width="2" points="1242.53,-477.36 1247.7,-468.1 1237.89,-472.12 1242.53,-477.36"/>
</g>
<!-- 27 -->
<g id="node28" class="node">
<title>27</title>
<path fill="none" stroke="#d8d356" stroke-width="2" d="M1123.5,-252C1123.5,-252 978.5,-252 978.5,-252 972.5,-252 966.5,-246 966.5,-240 966.5,-240 966.5,-228 966.5,-228 966.5,-222 972.5,-216 978.5,-216 978.5,-216 1123.5,-216 1123.5,-216 1129.5,-216 1135.5,-222 1135.5,-228 1135.5,-228 1135.5,-240 1135.5,-240 1135.5,-246 1129.5,-252 1123.5,-252"/>
<text text-anchor="middle" x="1051" y="-231.5" font-family="sans" font-size="10.00">annotate__snpeff__download__</text>
</g>
<!-- 27&#45;&gt;21 -->
<g id="edge49" class="edge">
<title>27&#45;&gt;21</title>
<path fill="none" stroke="grey" stroke-width="2" d="M1000.87,-215.97C971.96,-206.14 935.43,-193.73 905,-183.39"/>
<polygon fill="grey" stroke="grey" stroke-width="2" points="905.95,-180.01 895.35,-180.11 903.7,-186.64 905.95,-180.01"/>
</g>
<!-- 28&#45;&gt;0 -->
<g id="edge1" class="edge">
<title>28&#45;&gt;0</title>
<path fill="none" stroke="grey" stroke-width="2" d="M571.11,-431.93C559.71,-405.67 540,-353.53 540,-307 540,-307 540,-307 540,-161 540,-119.48 523.96,-73.61 512.2,-45.54"/>
<polygon fill="grey" stroke="grey" stroke-width="2" points="515.27,-43.84 508.09,-36.05 508.85,-46.62 515.27,-43.84"/>
</g>
</g>
</svg>
