<?xml version="1.0" encoding="UTF-8" standalone="no"?>
<!DOCTYPE svg PUBLIC "-//W3C//DTD SVG 1.1//EN"
 "http://www.w3.org/Graphics/SVG/1.1/DTD/svg11.dtd">
<!-- Generated by graphviz version 2.43.0 (0)
 -->
<!-- Title: snakemake_dag Pages: 1 -->
<svg width="774pt" height="908pt"
 viewBox="0.00 0.00 774.00 908.00" xmlns="http://www.w3.org/2000/svg" xmlns:xlink="http://www.w3.org/1999/xlink">
<g id="graph0" class="graph" transform="scale(1 1) rotate(0) translate(4 904)">
<title>snakemake_dag</title>
<polygon fill="white" stroke="transparent" points="-4,4 -4,-904 770,-904 770,4 -4,4"/>
<!-- 0 -->
<g id="node1" class="node">
<title>0</title>
<path fill="none" stroke="#d89c56" stroke-width="2" d="M509,-36C509,-36 479,-36 479,-36 473,-36 467,-30 467,-24 467,-24 467,-12 467,-12 467,-6 473,0 479,0 479,0 509,0 509,0 515,0 521,-6 521,-12 521,-12 521,-24 521,-24 521,-30 515,-36 509,-36"/>
<text text-anchor="middle" x="494" y="-15.5" font-family="sans" font-size="10.00">all</text>
</g>
<!-- 1 -->
<g id="node2" class="node">
<title>1</title>
<path fill="none" stroke="#56d892" stroke-width="2" d="M517,-108C517,-108 471,-108 471,-108 465,-108 459,-102 459,-96 459,-96 459,-84 459,-84 459,-78 465,-72 471,-72 471,-72 517,-72 517,-72 523,-72 529,-78 529,-84 529,-84 529,-96 529,-96 529,-102 523,-108 517,-108"/>
<text text-anchor="middle" x="494" y="-87.5" font-family="sans" font-size="10.00">snpeff_ann</text>
</g>
<!-- 1&#45;&gt;0 -->
<g id="edge1" class="edge">
<title>1&#45;&gt;0</title>
<path fill="none" stroke="grey" stroke-width="2" d="M494,-71.7C494,-63.98 494,-54.71 494,-46.11"/>
<polygon fill="grey" stroke="grey" stroke-width="2" points="497.5,-46.1 494,-36.1 490.5,-46.1 497.5,-46.1"/>
</g>
<!-- 2 -->
<g id="node3" class="node">
<title>2</title>
<path fill="none" stroke="#b6d856" stroke-width="2" d="M482.5,-180C482.5,-180 369.5,-180 369.5,-180 363.5,-180 357.5,-174 357.5,-168 357.5,-168 357.5,-156 357.5,-156 357.5,-150 363.5,-144 369.5,-144 369.5,-144 482.5,-144 482.5,-144 488.5,-144 494.5,-150 494.5,-156 494.5,-156 494.5,-168 494.5,-168 494.5,-174 488.5,-180 482.5,-180"/>
<text text-anchor="middle" x="426" y="-159.5" font-family="sans" font-size="10.00">gatk4_variant_annotator</text>
</g>
<!-- 2&#45;&gt;1 -->
<g id="edge2" class="edge">
<title>2&#45;&gt;1</title>
<path fill="none" stroke="grey" stroke-width="2" d="M442.81,-143.7C451.13,-135.14 461.31,-124.66 470.39,-115.3"/>
<polygon fill="grey" stroke="grey" stroke-width="2" points="472.93,-117.72 477.38,-108.1 467.91,-112.84 472.93,-117.72"/>
</g>
<!-- 3 -->
<g id="node4" class="node">
<title>3</title>
<path fill="none" stroke="#56d8d8" stroke-width="2" d="M470.5,-612C470.5,-612 391.5,-612 391.5,-612 385.5,-612 379.5,-606 379.5,-600 379.5,-600 379.5,-588 379.5,-588 379.5,-582 385.5,-576 391.5,-576 391.5,-576 470.5,-576 470.5,-576 476.5,-576 482.5,-582 482.5,-588 482.5,-588 482.5,-600 482.5,-600 482.5,-606 476.5,-612 470.5,-612"/>
<text text-anchor="middle" x="431" y="-591.5" font-family="sans" font-size="10.00">gatk4_apply_bqsr</text>
</g>
<!-- 3&#45;&gt;2 -->
<g id="edge5" class="edge">
<title>3&#45;&gt;2</title>
<path fill="none" stroke="grey" stroke-width="2" d="M430.01,-575.96C428.56,-549.31 426,-496.14 426,-451 426,-451 426,-451 426,-305 426,-265 426,-218.65 426,-190.08"/>
<polygon fill="grey" stroke="grey" stroke-width="2" points="429.5,-190.05 426,-180.05 422.5,-190.05 429.5,-190.05"/>
</g>
<!-- 11 -->
<g id="node12" class="node">
<title>11</title>
<path fill="none" stroke="#d6d856" stroke-width="2" d="M386,-540C386,-540 356,-540 356,-540 350,-540 344,-534 344,-528 344,-528 344,-516 344,-516 344,-510 350,-504 356,-504 356,-504 386,-504 386,-504 392,-504 398,-510 398,-516 398,-516 398,-528 398,-528 398,-534 392,-540 386,-540"/>
<text text-anchor="middle" x="371" y="-519.5" font-family="sans" font-size="10.00">bai</text>
</g>
<!-- 3&#45;&gt;11 -->
<g id="edge26" class="edge">
<title>3&#45;&gt;11</title>
<path fill="none" stroke="grey" stroke-width="2" d="M416.17,-575.7C408.98,-567.3 400.2,-557.07 392.31,-547.86"/>
<polygon fill="grey" stroke="grey" stroke-width="2" points="394.83,-545.42 385.66,-540.1 389.51,-549.97 394.83,-545.42"/>
</g>
<!-- 19 -->
<g id="node20" class="node">
<title>19</title>
<path fill="none" stroke="#d85656" stroke-width="2" d="M611.5,-540C611.5,-540 504.5,-540 504.5,-540 498.5,-540 492.5,-534 492.5,-528 492.5,-528 492.5,-516 492.5,-516 492.5,-510 498.5,-504 504.5,-504 504.5,-504 611.5,-504 611.5,-504 617.5,-504 623.5,-510 623.5,-516 623.5,-516 623.5,-528 623.5,-528 623.5,-534 617.5,-540 611.5,-540"/>
<text text-anchor="middle" x="558" y="-519.5" font-family="sans" font-size="10.00">gatk4_haplotype_caller</text>
</g>
<!-- 3&#45;&gt;19 -->
<g id="edge37" class="edge">
<title>3&#45;&gt;19</title>
<path fill="none" stroke="grey" stroke-width="2" d="M462.07,-575.88C478.83,-566.64 499.71,-555.13 517.7,-545.21"/>
<polygon fill="grey" stroke="grey" stroke-width="2" points="519.74,-548.08 526.81,-540.19 516.37,-541.95 519.74,-548.08"/>
</g>
<!-- 4 -->
<g id="node5" class="node">
<title>4</title>
<path fill="none" stroke="#56d8a2" stroke-width="2" d="M415,-684C415,-684 311,-684 311,-684 305,-684 299,-678 299,-672 299,-672 299,-660 299,-660 299,-654 305,-648 311,-648 311,-648 415,-648 415,-648 421,-648 427,-654 427,-660 427,-660 427,-672 427,-672 427,-678 421,-684 415,-684"/>
<text text-anchor="middle" x="363" y="-663.5" font-family="sans" font-size="10.00">picard_markduplicates</text>
</g>
<!-- 4&#45;&gt;3 -->
<g id="edge10" class="edge">
<title>4&#45;&gt;3</title>
<path fill="none" stroke="grey" stroke-width="2" d="M379.81,-647.7C388.13,-639.14 398.31,-628.66 407.39,-619.3"/>
<polygon fill="grey" stroke="grey" stroke-width="2" points="409.93,-621.72 414.38,-612.1 404.91,-616.84 409.93,-621.72"/>
</g>
<!-- 10 -->
<g id="node11" class="node">
<title>10</title>
<path fill="none" stroke="#d8a456" stroke-width="2" d="M295,-468C295,-468 185,-468 185,-468 179,-468 173,-462 173,-456 173,-456 173,-444 173,-444 173,-438 179,-432 185,-432 185,-432 295,-432 295,-432 301,-432 307,-438 307,-444 307,-444 307,-456 307,-456 307,-462 301,-468 295,-468"/>
<text text-anchor="middle" x="240" y="-447.5" font-family="sans" font-size="10.00">gatk4_base_recalibrator</text>
</g>
<!-- 4&#45;&gt;10 -->
<g id="edge23" class="edge">
<title>4&#45;&gt;10</title>
<path fill="none" stroke="grey" stroke-width="2" d="M353.14,-647.85C331.64,-610.44 280.42,-521.32 254.93,-476.98"/>
<polygon fill="grey" stroke="grey" stroke-width="2" points="257.92,-475.16 249.9,-468.23 251.85,-478.65 257.92,-475.16"/>
</g>
<!-- 4&#45;&gt;11 -->
<g id="edge25" class="edge">
<title>4&#45;&gt;11</title>
<path fill="none" stroke="grey" stroke-width="2" d="M363.96,-647.87C365.33,-623.67 367.83,-579.21 369.46,-550.39"/>
<polygon fill="grey" stroke="grey" stroke-width="2" points="372.96,-550.37 370.03,-540.19 365.97,-549.98 372.96,-550.37"/>
</g>
<!-- 5 -->
<g id="node6" class="node">
<title>5</title>
<path fill="none" stroke="#569ad8" stroke-width="2" d="M409.5,-756C409.5,-756 350.5,-756 350.5,-756 344.5,-756 338.5,-750 338.5,-744 338.5,-744 338.5,-732 338.5,-732 338.5,-726 344.5,-720 350.5,-720 350.5,-720 409.5,-720 409.5,-720 415.5,-720 421.5,-726 421.5,-732 421.5,-732 421.5,-744 421.5,-744 421.5,-750 415.5,-756 409.5,-756"/>
<text text-anchor="middle" x="380" y="-735.5" font-family="sans" font-size="10.00">bowtie2_map</text>
</g>
<!-- 5&#45;&gt;4 -->
<g id="edge12" class="edge">
<title>5&#45;&gt;4</title>
<path fill="none" stroke="grey" stroke-width="2" d="M375.8,-719.7C373.9,-711.9 371.62,-702.51 369.52,-693.83"/>
<polygon fill="grey" stroke="grey" stroke-width="2" points="372.92,-693 367.15,-684.1 366.11,-694.65 372.92,-693"/>
</g>
<!-- 6 -->
<g id="node7" class="node">
<title>6</title>
<path fill="none" stroke="#56d87b" stroke-width="2" d="M231,-828C231,-828 201,-828 201,-828 195,-828 189,-822 189,-816 189,-816 189,-804 189,-804 189,-798 195,-792 201,-792 201,-792 231,-792 231,-792 237,-792 243,-798 243,-804 243,-804 243,-816 243,-816 243,-822 237,-828 231,-828"/>
<text text-anchor="middle" x="216" y="-807.5" font-family="sans" font-size="10.00">fastp</text>
</g>
<!-- 6&#45;&gt;5 -->
<g id="edge15" class="edge">
<title>6&#45;&gt;5</title>
<path fill="none" stroke="grey" stroke-width="2" d="M243.08,-797.44C266.79,-787.32 301.82,-772.37 330.52,-760.12"/>
<polygon fill="grey" stroke="grey" stroke-width="2" points="332.16,-763.23 339.98,-756.08 329.41,-756.79 332.16,-763.23"/>
</g>
<!-- 7 -->
<g id="node8" class="node">
<title>7</title>
<path fill="none" stroke="#d87d56" stroke-width="2" d="M246,-900C246,-900 186,-900 186,-900 180,-900 174,-894 174,-888 174,-888 174,-876 174,-876 174,-870 180,-864 186,-864 186,-864 246,-864 246,-864 252,-864 258,-870 258,-876 258,-876 258,-888 258,-888 258,-894 252,-900 246,-900"/>
<text text-anchor="middle" x="216" y="-879.5" font-family="sans" font-size="10.00">reads_link_pe</text>
</g>
<!-- 7&#45;&gt;6 -->
<g id="edge17" class="edge">
<title>7&#45;&gt;6</title>
<path fill="none" stroke="grey" stroke-width="2" d="M216,-863.7C216,-855.98 216,-846.71 216,-838.11"/>
<polygon fill="grey" stroke="grey" stroke-width="2" points="219.5,-838.1 216,-828.1 212.5,-838.1 219.5,-838.1"/>
</g>
<!-- 8 -->
<g id="node9" class="node">
<title>8</title>
<path fill="none" stroke="#56d0d8" stroke-width="2" d="M410.5,-828C410.5,-828 349.5,-828 349.5,-828 343.5,-828 337.5,-822 337.5,-816 337.5,-816 337.5,-804 337.5,-804 337.5,-798 343.5,-792 349.5,-792 349.5,-792 410.5,-792 410.5,-792 416.5,-792 422.5,-798 422.5,-804 422.5,-804 422.5,-816 422.5,-816 422.5,-822 416.5,-828 410.5,-828"/>
<text text-anchor="middle" x="380" y="-807.5" font-family="sans" font-size="10.00">bowtie2_build</text>
</g>
<!-- 8&#45;&gt;5 -->
<g id="edge14" class="edge">
<title>8&#45;&gt;5</title>
<path fill="none" stroke="grey" stroke-width="2" d="M380,-791.7C380,-783.98 380,-774.71 380,-766.11"/>
<polygon fill="grey" stroke="grey" stroke-width="2" points="383.5,-766.1 380,-756.1 376.5,-766.1 383.5,-766.1"/>
</g>
<!-- 9 -->
<g id="node10" class="node">
<title>9</title>
<path fill="none" stroke="#5663d8" stroke-width="2" d="M581,-900C581,-900 435,-900 435,-900 429,-900 423,-894 423,-888 423,-888 423,-876 423,-876 423,-870 429,-864 435,-864 435,-864 581,-864 581,-864 587,-864 593,-870 593,-876 593,-876 593,-888 593,-888 593,-894 587,-900 581,-900"/>
<text text-anchor="middle" x="508" y="-879.5" font-family="sans" font-size="10.00">reference_recompress_genome</text>
</g>
<!-- 9&#45;&gt;2 -->
<g id="edge8" class="edge">
<title>9&#45;&gt;2</title>
<path fill="none" stroke="grey" stroke-width="2" d="M593.19,-869.87C668.34,-854.72 766,-819.53 766,-739 766,-739 766,-739 766,-305 766,-219.32 674.18,-248.72 595,-216 564.23,-203.28 529.25,-191.84 499.13,-182.87"/>
<polygon fill="grey" stroke="grey" stroke-width="2" points="500.12,-179.51 489.54,-180.05 498.14,-186.23 500.12,-179.51"/>
</g>
<!-- 9&#45;&gt;3 -->
<g id="edge11" class="edge">
<title>9&#45;&gt;3</title>
<path fill="none" stroke="grey" stroke-width="2" d="M503.41,-863.97C490.55,-816.19 454.05,-680.62 438.34,-622.27"/>
<polygon fill="grey" stroke="grey" stroke-width="2" points="441.64,-621.05 435.66,-612.31 434.88,-622.87 441.64,-621.05"/>
</g>
<!-- 9&#45;&gt;4 -->
<g id="edge13" class="edge">
<title>9&#45;&gt;4</title>
<path fill="none" stroke="grey" stroke-width="2" d="M422.94,-866.05C382.36,-857.01 340.05,-844.11 328,-828 322.3,-820.37 319.15,-752.77 329,-720 331.87,-710.47 337,-701.01 342.42,-692.78"/>
<polygon fill="grey" stroke="grey" stroke-width="2" points="345.43,-694.58 348.32,-684.39 339.7,-690.55 345.43,-694.58"/>
</g>
<!-- 9&#45;&gt;5 -->
<g id="edge16" class="edge">
<title>9&#45;&gt;5</title>
<path fill="none" stroke="grey" stroke-width="2" d="M493.5,-863.7C478.22,-845.6 453.31,-816.45 431,-792 422.48,-782.66 412.92,-772.62 404.4,-763.82"/>
<polygon fill="grey" stroke="grey" stroke-width="2" points="406.72,-761.17 397.24,-756.44 401.7,-766.05 406.72,-761.17"/>
</g>
<!-- 9&#45;&gt;8 -->
<g id="edge18" class="edge">
<title>9&#45;&gt;8</title>
<path fill="none" stroke="grey" stroke-width="2" d="M476.69,-863.88C459.8,-854.64 438.75,-843.13 420.62,-833.21"/>
<polygon fill="grey" stroke="grey" stroke-width="2" points="421.89,-829.92 411.43,-828.19 418.53,-836.06 421.89,-829.92"/>
</g>
<!-- 9&#45;&gt;10 -->
<g id="edge24" class="edge">
<title>9&#45;&gt;10</title>
<path fill="none" stroke="grey" stroke-width="2" d="M422.55,-876.36C385.92,-869.99 345.54,-856.37 319,-828 225.34,-727.86 231.03,-546.3 237.01,-477.97"/>
<polygon fill="grey" stroke="grey" stroke-width="2" points="240.5,-478.3 237.96,-468.01 233.53,-477.63 240.5,-478.3"/>
</g>
<!-- 12 -->
<g id="node13" class="node">
<title>12</title>
<path fill="none" stroke="#d8cb56" stroke-width="2" d="M82.5,-756C82.5,-756 45.5,-756 45.5,-756 39.5,-756 33.5,-750 33.5,-744 33.5,-744 33.5,-732 33.5,-732 33.5,-726 39.5,-720 45.5,-720 45.5,-720 82.5,-720 82.5,-720 88.5,-720 94.5,-726 94.5,-732 94.5,-732 94.5,-744 94.5,-744 94.5,-750 88.5,-756 82.5,-756"/>
<text text-anchor="middle" x="64" y="-735.5" font-family="sans" font-size="10.00">dict_fagz</text>
</g>
<!-- 9&#45;&gt;12 -->
<g id="edge27" class="edge">
<title>9&#45;&gt;12</title>
<path fill="none" stroke="grey" stroke-width="2" d="M422.94,-878.65C354.78,-874.12 257.99,-861.65 180,-828 144.35,-812.62 109.89,-783.84 87.92,-763.17"/>
<polygon fill="grey" stroke="grey" stroke-width="2" points="90.33,-760.63 80.69,-756.23 85.48,-765.68 90.33,-760.63"/>
</g>
<!-- 15 -->
<g id="node16" class="node">
<title>15</title>
<path fill="none" stroke="#c6d856" stroke-width="2" d="M573.5,-252C573.5,-252 466.5,-252 466.5,-252 460.5,-252 454.5,-246 454.5,-240 454.5,-240 454.5,-228 454.5,-228 454.5,-222 460.5,-216 466.5,-216 466.5,-216 573.5,-216 573.5,-216 579.5,-216 585.5,-222 585.5,-228 585.5,-228 585.5,-240 585.5,-240 585.5,-246 579.5,-252 573.5,-252"/>
<text text-anchor="middle" x="520" y="-231.5" font-family="sans" font-size="10.00">gatk4_variant_filtration</text>
</g>
<!-- 9&#45;&gt;15 -->
<g id="edge30" class="edge">
<title>9&#45;&gt;15</title>
<path fill="none" stroke="grey" stroke-width="2" d="M507.31,-863.93C506.57,-846.02 505.32,-817.02 504,-792 498.95,-695.96 504.36,-671.24 491,-576 488.72,-559.77 486.49,-556.01 483,-540 474.39,-500.48 464,-491.45 464,-451 464,-451 464,-451 464,-377 464,-333.91 486.6,-288.26 503.08,-260.7"/>
<polygon fill="grey" stroke="grey" stroke-width="2" points="506.13,-262.42 508.4,-252.07 500.17,-258.75 506.13,-262.42"/>
</g>
<!-- 16 -->
<g id="node17" class="node">
<title>16</title>
<path fill="none" stroke="#d8b456" stroke-width="2" d="M705.5,-324C705.5,-324 530.5,-324 530.5,-324 524.5,-324 518.5,-318 518.5,-312 518.5,-312 518.5,-300 518.5,-300 518.5,-294 524.5,-288 530.5,-288 530.5,-288 705.5,-288 705.5,-288 711.5,-288 717.5,-294 717.5,-300 717.5,-300 717.5,-312 717.5,-312 717.5,-318 711.5,-324 705.5,-324"/>
<text text-anchor="middle" x="618" y="-303.5" font-family="sans" font-size="10.00">gatk4_calculate_genotype_posteriors</text>
</g>
<!-- 9&#45;&gt;16 -->
<g id="edge32" class="edge">
<title>9&#45;&gt;16</title>
<path fill="none" stroke="grey" stroke-width="2" d="M587.43,-863.95C650.44,-845.2 728,-808.1 728,-739 728,-739 728,-739 728,-449 728,-406.16 717.55,-393.62 691,-360 681.86,-348.43 669.57,-338.2 657.68,-329.89"/>
<polygon fill="grey" stroke="grey" stroke-width="2" points="659.41,-326.83 649.15,-324.19 655.52,-332.65 659.41,-326.83"/>
</g>
<!-- 17 -->
<g id="node18" class="node">
<title>17</title>
<path fill="none" stroke="#56d85b" stroke-width="2" d="M669.5,-396C669.5,-396 566.5,-396 566.5,-396 560.5,-396 554.5,-390 554.5,-384 554.5,-384 554.5,-372 554.5,-372 554.5,-366 560.5,-360 566.5,-360 566.5,-360 669.5,-360 669.5,-360 675.5,-360 681.5,-366 681.5,-372 681.5,-372 681.5,-384 681.5,-384 681.5,-390 675.5,-396 669.5,-396"/>
<text text-anchor="middle" x="618" y="-375.5" font-family="sans" font-size="10.00">gatk4_genotype_gvcfs</text>
</g>
<!-- 9&#45;&gt;17 -->
<g id="edge34" class="edge">
<title>9&#45;&gt;17</title>
<path fill="none" stroke="grey" stroke-width="2" d="M563.59,-863.88C617.12,-843.54 690,-803.92 690,-739 690,-739 690,-739 690,-521 690,-480.55 690.32,-467.54 671,-432 665.18,-421.3 656.54,-411.34 647.91,-403.01"/>
<polygon fill="grey" stroke="grey" stroke-width="2" points="650.14,-400.31 640.4,-396.13 645.41,-405.47 650.14,-400.31"/>
</g>
<!-- 18 -->
<g id="node19" class="node">
<title>18</title>
<path fill="none" stroke="#568ad8" stroke-width="2" d="M649.5,-468C649.5,-468 550.5,-468 550.5,-468 544.5,-468 538.5,-462 538.5,-456 538.5,-456 538.5,-444 538.5,-444 538.5,-438 544.5,-432 550.5,-432 550.5,-432 649.5,-432 649.5,-432 655.5,-432 661.5,-438 661.5,-444 661.5,-444 661.5,-456 661.5,-456 661.5,-462 655.5,-468 649.5,-468"/>
<text text-anchor="middle" x="600" y="-447.5" font-family="sans" font-size="10.00">gatk4_combine_gvcfs</text>
</g>
<!-- 9&#45;&gt;18 -->
<g id="edge36" class="edge">
<title>9&#45;&gt;18</title>
<path fill="none" stroke="grey" stroke-width="2" d="M545.83,-863.9C588.5,-841.72 652,-798.69 652,-739 652,-739 652,-739 652,-593 652,-552.55 648.14,-541.51 633,-504 629.25,-494.7 623.89,-485.2 618.59,-476.86"/>
<polygon fill="grey" stroke="grey" stroke-width="2" points="621.38,-474.72 612.93,-468.32 615.54,-478.59 621.38,-474.72"/>
</g>
<!-- 9&#45;&gt;19 -->
<g id="edge38" class="edge">
<title>9&#45;&gt;19</title>
<path fill="none" stroke="grey" stroke-width="2" d="M520.67,-863.57C527.47,-853.56 535.55,-840.52 541,-828 557.34,-790.43 565,-779.97 565,-739 565,-739 565,-739 565,-665 565,-624.95 562.19,-578.62 560.13,-550.06"/>
<polygon fill="grey" stroke="grey" stroke-width="2" points="563.61,-549.75 559.38,-540.04 556.63,-550.27 563.61,-549.75"/>
</g>
<!-- 10&#45;&gt;3 -->
<g id="edge9" class="edge">
<title>10&#45;&gt;3</title>
<path fill="none" stroke="grey" stroke-width="2" d="M257.32,-468.22C280.04,-490.62 318.91,-528.31 335,-540 350.85,-551.52 369.48,-562.35 386.08,-571.18"/>
<polygon fill="grey" stroke="grey" stroke-width="2" points="384.58,-574.34 395.07,-575.86 387.82,-568.14 384.58,-574.34"/>
</g>
<!-- 11&#45;&gt;2 -->
<g id="edge7" class="edge">
<title>11&#45;&gt;2</title>
<path fill="none" stroke="grey" stroke-width="2" d="M372.78,-503.97C375.4,-477.34 380,-424.21 380,-379 380,-379 380,-379 380,-305 380,-263.04 398.4,-217.36 411.93,-189.44"/>
<polygon fill="grey" stroke="grey" stroke-width="2" points="415.13,-190.86 416.47,-180.34 408.87,-187.73 415.13,-190.86"/>
</g>
<!-- 11&#45;&gt;10 -->
<g id="edge21" class="edge">
<title>11&#45;&gt;10</title>
<path fill="none" stroke="grey" stroke-width="2" d="M343.86,-506.5C325.79,-496.84 301.71,-483.98 281.29,-473.06"/>
<polygon fill="grey" stroke="grey" stroke-width="2" points="282.66,-469.83 272.2,-468.2 279.37,-476 282.66,-469.83"/>
</g>
<!-- 12&#45;&gt;10 -->
<g id="edge20" class="edge">
<title>12&#45;&gt;10</title>
<path fill="none" stroke="grey" stroke-width="2" d="M59.93,-719.72C53.62,-689.84 43.54,-626.85 57,-576 66.43,-540.4 69.96,-527.87 98,-504 116.59,-488.18 140.34,-476.87 163.09,-468.87"/>
<polygon fill="grey" stroke="grey" stroke-width="2" points="164.38,-472.13 172.75,-465.64 162.16,-465.49 164.38,-472.13"/>
</g>
<!-- 13 -->
<g id="node14" class="node">
<title>13</title>
<path fill="none" stroke="#56d8b9" stroke-width="2" d="M200,-612C200,-612 78,-612 78,-612 72,-612 66,-606 66,-600 66,-600 66,-588 66,-588 66,-582 72,-576 78,-576 78,-576 200,-576 200,-576 206,-576 212,-582 212,-588 212,-588 212,-600 212,-600 212,-606 206,-612 200,-612"/>
<text text-anchor="middle" x="139" y="-591.5" font-family="sans" font-size="10.00">reference_recompress_vcf</text>
</g>
<!-- 13&#45;&gt;2 -->
<g id="edge4" class="edge">
<title>13&#45;&gt;2</title>
<path fill="none" stroke="grey" stroke-width="2" d="M103.2,-575.94C62.02,-553.53 0,-509.99 0,-451 0,-451 0,-451 0,-305 0,-232.68 223.76,-190.6 346.94,-172.92"/>
<polygon fill="grey" stroke="grey" stroke-width="2" points="347.67,-176.35 357.08,-171.48 346.69,-169.42 347.67,-176.35"/>
</g>
<!-- 13&#45;&gt;10 -->
<g id="edge19" class="edge">
<title>13&#45;&gt;10</title>
<path fill="none" stroke="grey" stroke-width="2" d="M153.8,-575.69C162.32,-565.51 173.07,-552.26 182,-540 197.07,-519.31 212.85,-494.89 224.14,-476.87"/>
<polygon fill="grey" stroke="grey" stroke-width="2" points="227.3,-478.42 229.61,-468.08 221.35,-474.73 227.3,-478.42"/>
</g>
<!-- 14 -->
<g id="node15" class="node">
<title>14</title>
<path fill="none" stroke="#56a9d8" stroke-width="2" d="M161,-540C161,-540 119,-540 119,-540 113,-540 107,-534 107,-528 107,-528 107,-516 107,-516 107,-510 113,-504 119,-504 119,-504 161,-504 161,-504 167,-504 173,-510 173,-516 173,-516 173,-528 173,-528 173,-534 167,-540 161,-540"/>
<text text-anchor="middle" x="140" y="-519.5" font-family="sans" font-size="10.00">vcf_gz_tbi</text>
</g>
<!-- 13&#45;&gt;14 -->
<g id="edge28" class="edge">
<title>13&#45;&gt;14</title>
<path fill="none" stroke="grey" stroke-width="2" d="M139.25,-575.7C139.36,-567.98 139.49,-558.71 139.61,-550.11"/>
<polygon fill="grey" stroke="grey" stroke-width="2" points="143.11,-550.15 139.76,-540.1 136.11,-550.05 143.11,-550.15"/>
</g>
<!-- 14&#45;&gt;10 -->
<g id="edge22" class="edge">
<title>14&#45;&gt;10</title>
<path fill="none" stroke="grey" stroke-width="2" d="M164.46,-503.88C177.3,-494.89 193.2,-483.76 207.09,-474.03"/>
<polygon fill="grey" stroke="grey" stroke-width="2" points="209.26,-476.79 215.44,-468.19 205.24,-471.06 209.26,-476.79"/>
</g>
<!-- 15&#45;&gt;2 -->
<g id="edge6" class="edge">
<title>15&#45;&gt;2</title>
<path fill="none" stroke="grey" stroke-width="2" d="M496.76,-215.7C484.81,-206.8 470.08,-195.82 457.15,-186.2"/>
<polygon fill="grey" stroke="grey" stroke-width="2" points="459.08,-183.27 448.97,-180.1 454.9,-188.88 459.08,-183.27"/>
</g>
<!-- 16&#45;&gt;15 -->
<g id="edge29" class="edge">
<title>16&#45;&gt;15</title>
<path fill="none" stroke="grey" stroke-width="2" d="M594.03,-287.88C581.45,-278.89 565.87,-267.76 552.25,-258.03"/>
<polygon fill="grey" stroke="grey" stroke-width="2" points="554.24,-255.15 544.07,-252.19 550.17,-260.85 554.24,-255.15"/>
</g>
<!-- 17&#45;&gt;16 -->
<g id="edge31" class="edge">
<title>17&#45;&gt;16</title>
<path fill="none" stroke="grey" stroke-width="2" d="M618,-359.7C618,-351.98 618,-342.71 618,-334.11"/>
<polygon fill="grey" stroke="grey" stroke-width="2" points="621.5,-334.1 618,-324.1 614.5,-334.1 621.5,-334.1"/>
</g>
<!-- 18&#45;&gt;17 -->
<g id="edge33" class="edge">
<title>18&#45;&gt;17</title>
<path fill="none" stroke="grey" stroke-width="2" d="M604.45,-431.7C606.45,-423.9 608.87,-414.51 611.1,-405.83"/>
<polygon fill="grey" stroke="grey" stroke-width="2" points="614.5,-406.66 613.6,-396.1 607.72,-404.92 614.5,-406.66"/>
</g>
<!-- 19&#45;&gt;18 -->
<g id="edge35" class="edge">
<title>19&#45;&gt;18</title>
<path fill="none" stroke="grey" stroke-width="2" d="M568.38,-503.7C573.26,-495.56 579.19,-485.69 584.58,-476.7"/>
<polygon fill="grey" stroke="grey" stroke-width="2" points="587.59,-478.48 589.74,-468.1 581.59,-474.88 587.59,-478.48"/>
</g>
<!-- 20 -->
<g id="node21" class="node">
<title>20</title>
<path fill="none" stroke="#56d882" stroke-width="2" d="M599.5,-180C599.5,-180 524.5,-180 524.5,-180 518.5,-180 512.5,-174 512.5,-168 512.5,-168 512.5,-156 512.5,-156 512.5,-150 518.5,-144 524.5,-144 524.5,-144 599.5,-144 599.5,-144 605.5,-144 611.5,-150 611.5,-156 611.5,-156 611.5,-168 611.5,-168 611.5,-174 605.5,-180 599.5,-180"/>
<text text-anchor="middle" x="562" y="-159.5" font-family="sans" font-size="10.00">snpeff_download</text>
</g>
<!-- 20&#45;&gt;1 -->
<g id="edge3" class="edge">
<title>20&#45;&gt;1</title>
<path fill="none" stroke="grey" stroke-width="2" d="M545.19,-143.7C536.87,-135.14 526.69,-124.66 517.61,-115.3"/>
<polygon fill="grey" stroke="grey" stroke-width="2" points="520.09,-112.84 510.62,-108.1 515.07,-117.72 520.09,-112.84"/>
</g>
</g>
</svg>
